%TF.GenerationSoftware,KiCad,Pcbnew,(6.0.2)*%
%TF.CreationDate,2023-10-08T18:11:24+02:00*%
%TF.ProjectId,kamizelka,6b616d69-7a65-46c6-9b61-2e6b69636164,rev?*%
%TF.SameCoordinates,Original*%
%TF.FileFunction,Copper,L2,Bot*%
%TF.FilePolarity,Positive*%
%FSLAX46Y46*%
G04 Gerber Fmt 4.6, Leading zero omitted, Abs format (unit mm)*
G04 Created by KiCad (PCBNEW (6.0.2)) date 2023-10-08 18:11:24*
%MOMM*%
%LPD*%
G01*
G04 APERTURE LIST*
%TA.AperFunction,ComponentPad*%
%ADD10C,1.600000*%
%TD*%
%TA.AperFunction,ComponentPad*%
%ADD11O,1.600000X1.600000*%
%TD*%
%TA.AperFunction,ComponentPad*%
%ADD12R,1.800000X1.800000*%
%TD*%
%TA.AperFunction,ComponentPad*%
%ADD13C,1.800000*%
%TD*%
%TA.AperFunction,ComponentPad*%
%ADD14R,1.500000X1.050000*%
%TD*%
%TA.AperFunction,ComponentPad*%
%ADD15O,1.500000X1.050000*%
%TD*%
%TA.AperFunction,ComponentPad*%
%ADD16R,1.600000X2.400000*%
%TD*%
%TA.AperFunction,ComponentPad*%
%ADD17O,1.600000X2.400000*%
%TD*%
%TA.AperFunction,ComponentPad*%
%ADD18R,1.700000X1.700000*%
%TD*%
%TA.AperFunction,ComponentPad*%
%ADD19O,1.700000X1.700000*%
%TD*%
%TA.AperFunction,ViaPad*%
%ADD20C,2.000000*%
%TD*%
%TA.AperFunction,ViaPad*%
%ADD21C,1.300000*%
%TD*%
%TA.AperFunction,Conductor*%
%ADD22C,2.000000*%
%TD*%
%TA.AperFunction,Conductor*%
%ADD23C,1.000000*%
%TD*%
%TA.AperFunction,Conductor*%
%ADD24C,3.000000*%
%TD*%
%TA.AperFunction,Conductor*%
%ADD25C,1.500000*%
%TD*%
G04 APERTURE END LIST*
D10*
%TO.P,R46,1*%
%TO.N,+5V*%
X218500000Y-34420000D03*
D11*
%TO.P,R46,2*%
%TO.N,Net-(D45-Pad2)*%
X218500000Y-44580000D03*
%TD*%
D12*
%TO.P,D16,1,K*%
%TO.N,Net-(D16-Pad1)*%
X98500000Y-83275000D03*
D13*
%TO.P,D16,2,A*%
%TO.N,Net-(D15-Pad1)*%
X98500000Y-80735000D03*
%TD*%
D10*
%TO.P,R22,1*%
%TO.N,+5V*%
X136990000Y-34310000D03*
D11*
%TO.P,R22,2*%
%TO.N,Net-(D21-Pad2)*%
X136990000Y-44470000D03*
%TD*%
D12*
%TO.P,D26,1,K*%
%TO.N,Net-(D26-Pad1)*%
X143980000Y-83295000D03*
D13*
%TO.P,D26,2,A*%
%TO.N,Net-(D25-Pad1)*%
X143980000Y-80755000D03*
%TD*%
D12*
%TO.P,D28,1,K*%
%TO.N,Net-(D28-Pad1)*%
X153490000Y-83315000D03*
D13*
%TO.P,D28,2,A*%
%TO.N,Net-(D27-Pad1)*%
X153490000Y-80775000D03*
%TD*%
D12*
%TO.P,D50,1,K*%
%TO.N,Net-(D50-Pad1)*%
X235000000Y-84050000D03*
D13*
%TO.P,D50,2,A*%
%TO.N,Net-(D49-Pad1)*%
X235000000Y-81510000D03*
%TD*%
D10*
%TO.P,R34,1*%
%TO.N,+5V*%
X167000000Y-34340000D03*
D11*
%TO.P,R34,2*%
%TO.N,Net-(D33-Pad2)*%
X167000000Y-44500000D03*
%TD*%
D10*
%TO.P,R18,1*%
%TO.N,+5V*%
X103500000Y-34420000D03*
D11*
%TO.P,R18,2*%
%TO.N,Net-(D17-Pad2)*%
X103500000Y-44580000D03*
%TD*%
D14*
%TO.P,Q13,1,C*%
%TO.N,Net-(D26-Pad1)*%
X146000000Y-107500000D03*
D15*
%TO.P,Q13,2,B*%
%TO.N,Net-(Q13-Pad2)*%
X146000000Y-108770000D03*
%TO.P,Q13,3,E*%
%TO.N,GND*%
X146000000Y-110040000D03*
%TD*%
D10*
%TO.P,R44,1*%
%TO.N,+5V*%
X213500000Y-34420000D03*
D11*
%TO.P,R44,2*%
%TO.N,Net-(D43-Pad2)*%
X213500000Y-44580000D03*
%TD*%
D12*
%TO.P,D36,1,K*%
%TO.N,Net-(D36-Pad1)*%
X193500000Y-94275000D03*
D13*
%TO.P,D36,2,A*%
%TO.N,Net-(D35-Pad1)*%
X193500000Y-91735000D03*
%TD*%
D10*
%TO.P,R41,1*%
%TO.N,Net-(Q21-Pad2)*%
X212500000Y-119000000D03*
D11*
%TO.P,R41,2*%
%TO.N,Net-(J1-Pad8)*%
X212500000Y-129160000D03*
%TD*%
D14*
%TO.P,Q17,1,C*%
%TO.N,Net-(D34-Pad1)*%
X172000000Y-107500000D03*
D15*
%TO.P,Q17,2,B*%
%TO.N,Net-(Q17-Pad2)*%
X172000000Y-108770000D03*
%TO.P,Q17,3,E*%
%TO.N,GND*%
X172000000Y-110040000D03*
%TD*%
D10*
%TO.P,R50,1*%
%TO.N,+5V*%
X228500000Y-34420000D03*
D11*
%TO.P,R50,2*%
%TO.N,Net-(D49-Pad2)*%
X228500000Y-44580000D03*
%TD*%
D14*
%TO.P,Q6,1,C*%
%TO.N,Net-(D12-Pad1)*%
X88000000Y-107500000D03*
D15*
%TO.P,Q6,2,B*%
%TO.N,Net-(Q6-Pad2)*%
X88000000Y-108770000D03*
%TO.P,Q6,3,E*%
%TO.N,GND*%
X88000000Y-110040000D03*
%TD*%
D12*
%TO.P,D40,1,K*%
%TO.N,Net-(D40-Pad1)*%
X205500000Y-94000000D03*
D13*
%TO.P,D40,2,A*%
%TO.N,Net-(D39-Pad1)*%
X205500000Y-91460000D03*
%TD*%
D10*
%TO.P,R10,1*%
%TO.N,+5V*%
X83500000Y-34420000D03*
D11*
%TO.P,R10,2*%
%TO.N,Net-(D9-Pad2)*%
X83500000Y-44580000D03*
%TD*%
D12*
%TO.P,D45,1,K*%
%TO.N,Net-(D45-Pad1)*%
X223000000Y-73275000D03*
D13*
%TO.P,D45,2,A*%
%TO.N,Net-(D45-Pad2)*%
X223000000Y-70735000D03*
%TD*%
D10*
%TO.P,R16,1*%
%TO.N,+5V*%
X98440000Y-34420000D03*
D11*
%TO.P,R16,2*%
%TO.N,Net-(D15-Pad2)*%
X98440000Y-44580000D03*
%TD*%
D10*
%TO.P,R47,1*%
%TO.N,Net-(Q24-Pad2)*%
X230500000Y-119000000D03*
D11*
%TO.P,R47,2*%
%TO.N,Net-(R47-Pad2)*%
X230500000Y-129160000D03*
%TD*%
D12*
%TO.P,D47,1,K*%
%TO.N,Net-(D47-Pad1)*%
X229000000Y-62275000D03*
D13*
%TO.P,D47,2,A*%
%TO.N,Net-(D47-Pad2)*%
X229000000Y-59735000D03*
%TD*%
D10*
%TO.P,R27,1*%
%TO.N,Net-(Q14-Pad2)*%
X152210000Y-119000000D03*
D11*
%TO.P,R27,2*%
%TO.N,Net-(J1-Pad7)*%
X152210000Y-129160000D03*
%TD*%
D10*
%TO.P,R7,1*%
%TO.N,Net-(Q4-Pad2)*%
X75500000Y-118920000D03*
D11*
%TO.P,R7,2*%
%TO.N,Net-(J1-Pad8)*%
X75500000Y-129080000D03*
%TD*%
D16*
%TO.P,U2,1,QB*%
%TO.N,Net-(R47-Pad2)*%
X229960000Y-140040000D03*
D17*
%TO.P,U2,2,QC*%
%TO.N,Net-(R43-Pad2)*%
X227420000Y-140040000D03*
%TO.P,U2,3,QD*%
%TO.N,Net-(R39-Pad2)*%
X224880000Y-140040000D03*
%TO.P,U2,4,QE*%
%TO.N,Net-(R35-Pad2)*%
X222340000Y-140040000D03*
%TO.P,U2,5,QF*%
%TO.N,unconnected-(U2-Pad5)*%
X219800000Y-140040000D03*
%TO.P,U2,6,QG*%
%TO.N,unconnected-(U2-Pad6)*%
X217260000Y-140040000D03*
%TO.P,U2,7,QH*%
%TO.N,unconnected-(U2-Pad7)*%
X214720000Y-140040000D03*
%TO.P,U2,8,GND*%
%TO.N,GND*%
X212180000Y-140040000D03*
%TO.P,U2,9,QH'*%
%TO.N,Net-(U1-Pad14)*%
X212180000Y-147660000D03*
%TO.P,U2,10,~{SRCLR}*%
%TO.N,+3V3*%
X214720000Y-147660000D03*
%TO.P,U2,11,SRCLK*%
%TO.N,Net-(J1-Pad5)*%
X217260000Y-147660000D03*
%TO.P,U2,12,RCLK*%
%TO.N,Net-(J1-Pad6)*%
X219800000Y-147660000D03*
%TO.P,U2,13,~{OE}*%
%TO.N,GND*%
X222340000Y-147660000D03*
%TO.P,U2,14,SER*%
%TO.N,Net-(J1-Pad4)*%
X224880000Y-147660000D03*
%TO.P,U2,15,QA*%
%TO.N,Net-(R51-Pad2)*%
X227420000Y-147660000D03*
%TO.P,U2,16,VCC*%
%TO.N,+3V3*%
X229960000Y-147660000D03*
%TD*%
D10*
%TO.P,R52,1*%
%TO.N,+5V*%
X233500000Y-34420000D03*
D11*
%TO.P,R52,2*%
%TO.N,Net-(D51-Pad2)*%
X233500000Y-44580000D03*
%TD*%
D12*
%TO.P,D46,1,K*%
%TO.N,Net-(D46-Pad1)*%
X223000000Y-83775000D03*
D13*
%TO.P,D46,2,A*%
%TO.N,Net-(D45-Pad1)*%
X223000000Y-81235000D03*
%TD*%
D10*
%TO.P,R45,1*%
%TO.N,Net-(Q23-Pad2)*%
X224500000Y-118920000D03*
D11*
%TO.P,R45,2*%
%TO.N,Net-(J1-Pad8)*%
X224500000Y-129080000D03*
%TD*%
D12*
%TO.P,D30,1,K*%
%TO.N,Net-(D30-Pad1)*%
X163000000Y-83255000D03*
D13*
%TO.P,D30,2,A*%
%TO.N,Net-(D29-Pad1)*%
X163000000Y-80715000D03*
%TD*%
D10*
%TO.P,R20,1*%
%TO.N,+5V*%
X132000000Y-34340000D03*
D11*
%TO.P,R20,2*%
%TO.N,Net-(D19-Pad2)*%
X132000000Y-44500000D03*
%TD*%
D12*
%TO.P,D51,1,K*%
%TO.N,Net-(D51-Pad1)*%
X241000000Y-62275000D03*
D13*
%TO.P,D51,2,A*%
%TO.N,Net-(D51-Pad2)*%
X241000000Y-59735000D03*
%TD*%
D12*
%TO.P,D52,1,K*%
%TO.N,Net-(D52-Pad1)*%
X241225000Y-94000000D03*
D13*
%TO.P,D52,2,A*%
%TO.N,Net-(D51-Pad1)*%
X241225000Y-91460000D03*
%TD*%
D12*
%TO.P,D5,1,K*%
%TO.N,Net-(D5-Pad1)*%
X68290000Y-62275000D03*
D13*
%TO.P,D5,2,A*%
%TO.N,Net-(D5-Pad2)*%
X68290000Y-59735000D03*
%TD*%
D10*
%TO.P,R51,1*%
%TO.N,Net-(Q26-Pad2)*%
X242500000Y-119000000D03*
D11*
%TO.P,R51,2*%
%TO.N,Net-(R51-Pad2)*%
X242500000Y-129160000D03*
%TD*%
D14*
%TO.P,Q9,1,C*%
%TO.N,Net-(D18-Pad1)*%
X107500000Y-107500000D03*
D15*
%TO.P,Q9,2,B*%
%TO.N,Net-(Q9-Pad2)*%
X107500000Y-108770000D03*
%TO.P,Q9,3,E*%
%TO.N,GND*%
X107500000Y-110040000D03*
%TD*%
D14*
%TO.P,Q12,1,C*%
%TO.N,Net-(D24-Pad1)*%
X139500000Y-107500000D03*
D15*
%TO.P,Q12,2,B*%
%TO.N,Net-(Q12-Pad2)*%
X139500000Y-108770000D03*
%TO.P,Q12,3,E*%
%TO.N,GND*%
X139500000Y-110040000D03*
%TD*%
D10*
%TO.P,R26,1*%
%TO.N,+5V*%
X147000000Y-34340000D03*
D11*
%TO.P,R26,2*%
%TO.N,Net-(D25-Pad2)*%
X147000000Y-44500000D03*
%TD*%
D10*
%TO.P,R32,1*%
%TO.N,+5V*%
X162000000Y-34340000D03*
D11*
%TO.P,R32,2*%
%TO.N,Net-(D31-Pad2)*%
X162000000Y-44500000D03*
%TD*%
D10*
%TO.P,R8,1*%
%TO.N,+5V*%
X78500000Y-34420000D03*
D11*
%TO.P,R8,2*%
%TO.N,Net-(D7-Pad2)*%
X78500000Y-44580000D03*
%TD*%
D12*
%TO.P,D41,1,K*%
%TO.N,Net-(D41-Pad1)*%
X211000000Y-73275000D03*
D13*
%TO.P,D41,2,A*%
%TO.N,Net-(D41-Pad2)*%
X211000000Y-70735000D03*
%TD*%
D12*
%TO.P,D21,1,K*%
%TO.N,Net-(D21-Pad1)*%
X125000000Y-73280000D03*
D13*
%TO.P,D21,2,A*%
%TO.N,Net-(D21-Pad2)*%
X125000000Y-70740000D03*
%TD*%
D10*
%TO.P,R29,1*%
%TO.N,Net-(Q15-Pad2)*%
X158240000Y-118950000D03*
D11*
%TO.P,R29,2*%
%TO.N,Net-(J1-Pad7)*%
X158240000Y-129110000D03*
%TD*%
D12*
%TO.P,D9,1,K*%
%TO.N,Net-(D9-Pad1)*%
X80330000Y-62275000D03*
D13*
%TO.P,D9,2,A*%
%TO.N,Net-(D9-Pad2)*%
X80330000Y-59735000D03*
%TD*%
D12*
%TO.P,D38,1,K*%
%TO.N,Net-(D38-Pad1)*%
X199000000Y-83275000D03*
D13*
%TO.P,D38,2,A*%
%TO.N,Net-(D37-Pad1)*%
X199000000Y-80735000D03*
%TD*%
D12*
%TO.P,D15,1,K*%
%TO.N,Net-(D15-Pad1)*%
X98500000Y-73275000D03*
D13*
%TO.P,D15,2,A*%
%TO.N,Net-(D15-Pad2)*%
X98500000Y-70735000D03*
%TD*%
D10*
%TO.P,R4,1*%
%TO.N,+5V*%
X68500000Y-34420000D03*
D11*
%TO.P,R4,2*%
%TO.N,Net-(D3-Pad2)*%
X68500000Y-44580000D03*
%TD*%
D10*
%TO.P,R21,1*%
%TO.N,Net-(Q11-Pad2)*%
X133760000Y-119080000D03*
D11*
%TO.P,R21,2*%
%TO.N,Net-(J1-Pad7)*%
X133760000Y-129240000D03*
%TD*%
D10*
%TO.P,R38,1*%
%TO.N,+5V*%
X198500000Y-34420000D03*
D11*
%TO.P,R38,2*%
%TO.N,Net-(D37-Pad2)*%
X198500000Y-44580000D03*
%TD*%
D12*
%TO.P,D23,1,K*%
%TO.N,Net-(D23-Pad1)*%
X134500000Y-73275000D03*
D13*
%TO.P,D23,2,A*%
%TO.N,Net-(D23-Pad2)*%
X134500000Y-70735000D03*
%TD*%
D12*
%TO.P,D35,1,K*%
%TO.N,Net-(D35-Pad1)*%
X193500000Y-62275000D03*
D13*
%TO.P,D35,2,A*%
%TO.N,Net-(D35-Pad2)*%
X193500000Y-59735000D03*
%TD*%
D14*
%TO.P,Q10,1,C*%
%TO.N,Net-(D20-Pad1)*%
X126500000Y-107500000D03*
D15*
%TO.P,Q10,2,B*%
%TO.N,Net-(Q10-Pad2)*%
X126500000Y-108770000D03*
%TO.P,Q10,3,E*%
%TO.N,GND*%
X126500000Y-110040000D03*
%TD*%
D12*
%TO.P,D10,1,K*%
%TO.N,Net-(D10-Pad1)*%
X80300000Y-94545000D03*
D13*
%TO.P,D10,2,A*%
%TO.N,Net-(D9-Pad1)*%
X80300000Y-92005000D03*
%TD*%
D12*
%TO.P,D48,1,K*%
%TO.N,Net-(D48-Pad1)*%
X229225000Y-94000000D03*
D13*
%TO.P,D48,2,A*%
%TO.N,Net-(D47-Pad1)*%
X229225000Y-91460000D03*
%TD*%
D18*
%TO.P,J1,1,Pin_1*%
%TO.N,+5V*%
X158000000Y-149500000D03*
D19*
%TO.P,J1,2,Pin_2*%
%TO.N,GND*%
X155460000Y-149500000D03*
%TO.P,J1,3,Pin_3*%
%TO.N,+3V3*%
X152920000Y-149500000D03*
%TO.P,J1,4,Pin_4*%
%TO.N,Net-(J1-Pad4)*%
X150380000Y-149500000D03*
%TO.P,J1,5,Pin_5*%
%TO.N,Net-(J1-Pad5)*%
X147840000Y-149500000D03*
%TO.P,J1,6,Pin_6*%
%TO.N,Net-(J1-Pad6)*%
X145300000Y-149500000D03*
%TO.P,J1,7,Pin_7*%
%TO.N,Net-(J1-Pad7)*%
X142760000Y-149500000D03*
%TO.P,J1,8,Pin_8*%
%TO.N,Net-(J1-Pad8)*%
X140220000Y-149500000D03*
%TD*%
D14*
%TO.P,Q20,1,C*%
%TO.N,Net-(D40-Pad1)*%
X203000000Y-107500000D03*
D15*
%TO.P,Q20,2,B*%
%TO.N,Net-(Q20-Pad2)*%
X203000000Y-108770000D03*
%TO.P,Q20,3,E*%
%TO.N,GND*%
X203000000Y-110040000D03*
%TD*%
D12*
%TO.P,D13,1,K*%
%TO.N,Net-(D13-Pad1)*%
X92330000Y-62275000D03*
D13*
%TO.P,D13,2,A*%
%TO.N,Net-(D13-Pad2)*%
X92330000Y-59735000D03*
%TD*%
D10*
%TO.P,R11,1*%
%TO.N,Net-(Q6-Pad2)*%
X87500000Y-118920000D03*
D11*
%TO.P,R11,2*%
%TO.N,Net-(J1-Pad8)*%
X87500000Y-129080000D03*
%TD*%
D14*
%TO.P,Q7,1,C*%
%TO.N,Net-(D14-Pad1)*%
X94500000Y-107500000D03*
D15*
%TO.P,Q7,2,B*%
%TO.N,Net-(Q7-Pad2)*%
X94500000Y-108770000D03*
%TO.P,Q7,3,E*%
%TO.N,GND*%
X94500000Y-110040000D03*
%TD*%
D10*
%TO.P,R28,1*%
%TO.N,+5V*%
X152000000Y-34340000D03*
D11*
%TO.P,R28,2*%
%TO.N,Net-(D27-Pad2)*%
X152000000Y-44500000D03*
%TD*%
D12*
%TO.P,D39,1,K*%
%TO.N,Net-(D39-Pad1)*%
X205500000Y-62275000D03*
D13*
%TO.P,D39,2,A*%
%TO.N,Net-(D39-Pad2)*%
X205500000Y-59735000D03*
%TD*%
D10*
%TO.P,R1,1*%
%TO.N,Net-(Q1-Pad2)*%
X57500000Y-118840000D03*
D11*
%TO.P,R1,2*%
%TO.N,Net-(R1-Pad2)*%
X57500000Y-129000000D03*
%TD*%
D14*
%TO.P,Q14,1,C*%
%TO.N,Net-(D28-Pad1)*%
X152500000Y-107500000D03*
D15*
%TO.P,Q14,2,B*%
%TO.N,Net-(Q14-Pad2)*%
X152500000Y-108770000D03*
%TO.P,Q14,3,E*%
%TO.N,GND*%
X152500000Y-110040000D03*
%TD*%
D10*
%TO.P,R36,1*%
%TO.N,+5V*%
X193500000Y-34420000D03*
D11*
%TO.P,R36,2*%
%TO.N,Net-(D35-Pad2)*%
X193500000Y-44580000D03*
%TD*%
D10*
%TO.P,R17,1*%
%TO.N,Net-(Q9-Pad2)*%
X105500000Y-118920000D03*
D11*
%TO.P,R17,2*%
%TO.N,Net-(R17-Pad2)*%
X105500000Y-129080000D03*
%TD*%
D14*
%TO.P,Q25,1,C*%
%TO.N,Net-(D50-Pad1)*%
X235640000Y-107500000D03*
D15*
%TO.P,Q25,2,B*%
%TO.N,Net-(Q25-Pad2)*%
X235640000Y-108770000D03*
%TO.P,Q25,3,E*%
%TO.N,GND*%
X235640000Y-110040000D03*
%TD*%
D10*
%TO.P,R5,1*%
%TO.N,Net-(Q3-Pad2)*%
X69500000Y-118920000D03*
D11*
%TO.P,R5,2*%
%TO.N,Net-(R5-Pad2)*%
X69500000Y-129080000D03*
%TD*%
D10*
%TO.P,R37,1*%
%TO.N,Net-(Q19-Pad2)*%
X200500000Y-119000000D03*
D11*
%TO.P,R37,2*%
%TO.N,Net-(J1-Pad8)*%
X200500000Y-129160000D03*
%TD*%
D10*
%TO.P,R24,1*%
%TO.N,+5V*%
X142000000Y-34340000D03*
D11*
%TO.P,R24,2*%
%TO.N,Net-(D23-Pad2)*%
X142000000Y-44500000D03*
%TD*%
D12*
%TO.P,D33,1,K*%
%TO.N,Net-(D33-Pad1)*%
X182000000Y-73255000D03*
D13*
%TO.P,D33,2,A*%
%TO.N,Net-(D33-Pad2)*%
X182000000Y-70715000D03*
%TD*%
D14*
%TO.P,Q21,1,C*%
%TO.N,Net-(D42-Pad1)*%
X209500000Y-107500000D03*
D15*
%TO.P,Q21,2,B*%
%TO.N,Net-(Q21-Pad2)*%
X209500000Y-108770000D03*
%TO.P,Q21,3,E*%
%TO.N,GND*%
X209500000Y-110040000D03*
%TD*%
D10*
%TO.P,R19,1*%
%TO.N,Net-(Q10-Pad2)*%
X127750000Y-119070000D03*
D11*
%TO.P,R19,2*%
%TO.N,Net-(J1-Pad7)*%
X127750000Y-129230000D03*
%TD*%
D10*
%TO.P,R6,1*%
%TO.N,+5V*%
X73500000Y-34420000D03*
D11*
%TO.P,R6,2*%
%TO.N,Net-(D5-Pad2)*%
X73500000Y-44580000D03*
%TD*%
D12*
%TO.P,D31,1,K*%
%TO.N,Net-(D31-Pad1)*%
X172500000Y-73255000D03*
D13*
%TO.P,D31,2,A*%
%TO.N,Net-(D31-Pad2)*%
X172500000Y-70715000D03*
%TD*%
D14*
%TO.P,Q16,1,C*%
%TO.N,Net-(D32-Pad1)*%
X165500000Y-107500000D03*
D15*
%TO.P,Q16,2,B*%
%TO.N,Net-(Q16-Pad2)*%
X165500000Y-108770000D03*
%TO.P,Q16,3,E*%
%TO.N,GND*%
X165500000Y-110040000D03*
%TD*%
D10*
%TO.P,R15,1*%
%TO.N,Net-(Q8-Pad2)*%
X99500000Y-119000000D03*
D11*
%TO.P,R15,2*%
%TO.N,Net-(J1-Pad8)*%
X99500000Y-129160000D03*
%TD*%
D10*
%TO.P,R23,1*%
%TO.N,Net-(Q12-Pad2)*%
X139750000Y-119070000D03*
D11*
%TO.P,R23,2*%
%TO.N,Net-(J1-Pad7)*%
X139750000Y-129230000D03*
%TD*%
D14*
%TO.P,Q24,1,C*%
%TO.N,Net-(D48-Pad1)*%
X229140000Y-107500000D03*
D15*
%TO.P,Q24,2,B*%
%TO.N,Net-(Q24-Pad2)*%
X229140000Y-108770000D03*
%TO.P,Q24,3,E*%
%TO.N,GND*%
X229140000Y-110040000D03*
%TD*%
D12*
%TO.P,D2,1,K*%
%TO.N,Net-(D2-Pad1)*%
X56300000Y-94545000D03*
D13*
%TO.P,D2,2,A*%
%TO.N,Net-(D1-Pad1)*%
X56300000Y-92005000D03*
%TD*%
D14*
%TO.P,Q4,1,C*%
%TO.N,Net-(D8-Pad1)*%
X75000000Y-107500000D03*
D15*
%TO.P,Q4,2,B*%
%TO.N,Net-(Q4-Pad2)*%
X75000000Y-108770000D03*
%TO.P,Q4,3,E*%
%TO.N,GND*%
X75000000Y-110040000D03*
%TD*%
D14*
%TO.P,Q19,1,C*%
%TO.N,Net-(D38-Pad1)*%
X196500000Y-107500000D03*
D15*
%TO.P,Q19,2,B*%
%TO.N,Net-(Q19-Pad2)*%
X196500000Y-108770000D03*
%TO.P,Q19,3,E*%
%TO.N,GND*%
X196500000Y-110040000D03*
%TD*%
D12*
%TO.P,D43,1,K*%
%TO.N,Net-(D43-Pad1)*%
X217000000Y-62275000D03*
D13*
%TO.P,D43,2,A*%
%TO.N,Net-(D43-Pad2)*%
X217000000Y-59735000D03*
%TD*%
D16*
%TO.P,U1,1,QB*%
%TO.N,Net-(R13-Pad2)*%
X89700000Y-140030000D03*
D17*
%TO.P,U1,2,QC*%
%TO.N,Net-(R9-Pad2)*%
X87160000Y-140030000D03*
%TO.P,U1,3,QD*%
%TO.N,Net-(R5-Pad2)*%
X84620000Y-140030000D03*
%TO.P,U1,4,QE*%
%TO.N,Net-(R1-Pad2)*%
X82080000Y-140030000D03*
%TO.P,U1,5,QF*%
%TO.N,unconnected-(U1-Pad5)*%
X79540000Y-140030000D03*
%TO.P,U1,6,QG*%
%TO.N,unconnected-(U1-Pad6)*%
X77000000Y-140030000D03*
%TO.P,U1,7,QH*%
%TO.N,unconnected-(U1-Pad7)*%
X74460000Y-140030000D03*
%TO.P,U1,8,GND*%
%TO.N,GND*%
X71920000Y-140030000D03*
%TO.P,U1,9,QH'*%
%TO.N,unconnected-(U1-Pad9)*%
X71920000Y-147650000D03*
%TO.P,U1,10,~{SRCLR}*%
%TO.N,+3V3*%
X74460000Y-147650000D03*
%TO.P,U1,11,SRCLK*%
%TO.N,Net-(J1-Pad5)*%
X77000000Y-147650000D03*
%TO.P,U1,12,RCLK*%
%TO.N,Net-(J1-Pad6)*%
X79540000Y-147650000D03*
%TO.P,U1,13,~{OE}*%
%TO.N,GND*%
X82080000Y-147650000D03*
%TO.P,U1,14,SER*%
%TO.N,Net-(U1-Pad14)*%
X84620000Y-147650000D03*
%TO.P,U1,15,QA*%
%TO.N,Net-(R17-Pad2)*%
X87160000Y-147650000D03*
%TO.P,U1,16,VCC*%
%TO.N,+3V3*%
X89700000Y-147650000D03*
%TD*%
D14*
%TO.P,Q11,1,C*%
%TO.N,Net-(D22-Pad1)*%
X133000000Y-107500000D03*
D15*
%TO.P,Q11,2,B*%
%TO.N,Net-(Q11-Pad2)*%
X133000000Y-108770000D03*
%TO.P,Q11,3,E*%
%TO.N,GND*%
X133000000Y-110040000D03*
%TD*%
D12*
%TO.P,D25,1,K*%
%TO.N,Net-(D25-Pad1)*%
X144000000Y-73275000D03*
D13*
%TO.P,D25,2,A*%
%TO.N,Net-(D25-Pad2)*%
X144000000Y-70735000D03*
%TD*%
D12*
%TO.P,D7,1,K*%
%TO.N,Net-(D7-Pad1)*%
X74500000Y-73275000D03*
D13*
%TO.P,D7,2,A*%
%TO.N,Net-(D7-Pad2)*%
X74500000Y-70735000D03*
%TD*%
D12*
%TO.P,D20,1,K*%
%TO.N,Net-(D20-Pad1)*%
X115500000Y-83325000D03*
D13*
%TO.P,D20,2,A*%
%TO.N,Net-(D19-Pad1)*%
X115500000Y-80785000D03*
%TD*%
D12*
%TO.P,D11,1,K*%
%TO.N,Net-(D12-Pad2)*%
X86500000Y-73275000D03*
D13*
%TO.P,D11,2,A*%
%TO.N,Net-(D11-Pad2)*%
X86500000Y-70735000D03*
%TD*%
D14*
%TO.P,Q26,1,C*%
%TO.N,Net-(D52-Pad1)*%
X242500000Y-107500000D03*
D15*
%TO.P,Q26,2,B*%
%TO.N,Net-(Q26-Pad2)*%
X242500000Y-108770000D03*
%TO.P,Q26,3,E*%
%TO.N,GND*%
X242500000Y-110040000D03*
%TD*%
D12*
%TO.P,D27,1,K*%
%TO.N,Net-(D27-Pad1)*%
X153500000Y-73275000D03*
D13*
%TO.P,D27,2,A*%
%TO.N,Net-(D27-Pad2)*%
X153500000Y-70735000D03*
%TD*%
D14*
%TO.P,Q3,1,C*%
%TO.N,Net-(D6-Pad1)*%
X68500000Y-107500000D03*
D15*
%TO.P,Q3,2,B*%
%TO.N,Net-(Q3-Pad2)*%
X68500000Y-108770000D03*
%TO.P,Q3,3,E*%
%TO.N,GND*%
X68500000Y-110040000D03*
%TD*%
D10*
%TO.P,R40,1*%
%TO.N,+5V*%
X203500000Y-34420000D03*
D11*
%TO.P,R40,2*%
%TO.N,Net-(D39-Pad2)*%
X203500000Y-44580000D03*
%TD*%
D12*
%TO.P,D42,1,K*%
%TO.N,Net-(D42-Pad1)*%
X211000000Y-83550000D03*
D13*
%TO.P,D42,2,A*%
%TO.N,Net-(D41-Pad1)*%
X211000000Y-81010000D03*
%TD*%
D12*
%TO.P,D29,1,K*%
%TO.N,Net-(D29-Pad1)*%
X163000000Y-73255000D03*
D13*
%TO.P,D29,2,A*%
%TO.N,Net-(D29-Pad2)*%
X163000000Y-70715000D03*
%TD*%
D12*
%TO.P,D12,1,K*%
%TO.N,Net-(D12-Pad1)*%
X86500000Y-83275000D03*
D13*
%TO.P,D12,2,A*%
%TO.N,Net-(D12-Pad2)*%
X86500000Y-80735000D03*
%TD*%
D12*
%TO.P,D18,1,K*%
%TO.N,Net-(D18-Pad1)*%
X104340000Y-94545000D03*
D13*
%TO.P,D18,2,A*%
%TO.N,Net-(D17-Pad1)*%
X104340000Y-92005000D03*
%TD*%
D10*
%TO.P,R2,1*%
%TO.N,+5V*%
X63500000Y-34420000D03*
D11*
%TO.P,R2,2*%
%TO.N,Net-(D1-Pad2)*%
X63500000Y-44580000D03*
%TD*%
D10*
%TO.P,R42,1*%
%TO.N,+5V*%
X208500000Y-34420000D03*
D11*
%TO.P,R42,2*%
%TO.N,Net-(D41-Pad2)*%
X208500000Y-44580000D03*
%TD*%
D10*
%TO.P,R43,1*%
%TO.N,Net-(Q22-Pad2)*%
X218500000Y-118920000D03*
D11*
%TO.P,R43,2*%
%TO.N,Net-(R43-Pad2)*%
X218500000Y-129080000D03*
%TD*%
D14*
%TO.P,Q22,1,C*%
%TO.N,Net-(D44-Pad1)*%
X216140000Y-107500000D03*
D15*
%TO.P,Q22,2,B*%
%TO.N,Net-(Q22-Pad2)*%
X216140000Y-108770000D03*
%TO.P,Q22,3,E*%
%TO.N,GND*%
X216140000Y-110040000D03*
%TD*%
D10*
%TO.P,R33,1*%
%TO.N,Net-(Q17-Pad2)*%
X170210000Y-119000000D03*
D11*
%TO.P,R33,2*%
%TO.N,Net-(J1-Pad7)*%
X170210000Y-129160000D03*
%TD*%
D12*
%TO.P,D6,1,K*%
%TO.N,Net-(D6-Pad1)*%
X68300000Y-94570000D03*
D13*
%TO.P,D6,2,A*%
%TO.N,Net-(D5-Pad1)*%
X68300000Y-92030000D03*
%TD*%
D10*
%TO.P,R31,1*%
%TO.N,Net-(Q16-Pad2)*%
X164210000Y-119000000D03*
D11*
%TO.P,R31,2*%
%TO.N,Net-(J1-Pad7)*%
X164210000Y-129160000D03*
%TD*%
D12*
%TO.P,D17,1,K*%
%TO.N,Net-(D17-Pad1)*%
X104330000Y-62275000D03*
D13*
%TO.P,D17,2,A*%
%TO.N,Net-(D17-Pad2)*%
X104330000Y-59735000D03*
%TD*%
D10*
%TO.P,R3,1*%
%TO.N,Net-(Q2-Pad2)*%
X63500000Y-118920000D03*
D11*
%TO.P,R3,2*%
%TO.N,Net-(J1-Pad8)*%
X63500000Y-129080000D03*
%TD*%
D10*
%TO.P,R49,1*%
%TO.N,Net-(Q25-Pad2)*%
X236500000Y-119000000D03*
D11*
%TO.P,R49,2*%
%TO.N,Net-(J1-Pad8)*%
X236500000Y-129160000D03*
%TD*%
D12*
%TO.P,D14,1,K*%
%TO.N,Net-(D14-Pad1)*%
X92340000Y-94545000D03*
D13*
%TO.P,D14,2,A*%
%TO.N,Net-(D13-Pad1)*%
X92340000Y-92005000D03*
%TD*%
D10*
%TO.P,R9,1*%
%TO.N,Net-(Q5-Pad2)*%
X81500000Y-118920000D03*
D11*
%TO.P,R9,2*%
%TO.N,Net-(R9-Pad2)*%
X81500000Y-129080000D03*
%TD*%
D14*
%TO.P,Q1,1,C*%
%TO.N,Net-(D2-Pad1)*%
X55500000Y-107500000D03*
D15*
%TO.P,Q1,2,B*%
%TO.N,Net-(Q1-Pad2)*%
X55500000Y-108770000D03*
%TO.P,Q1,3,E*%
%TO.N,GND*%
X55500000Y-110040000D03*
%TD*%
D14*
%TO.P,Q5,1,C*%
%TO.N,Net-(D10-Pad1)*%
X81500000Y-107500000D03*
D15*
%TO.P,Q5,2,B*%
%TO.N,Net-(Q5-Pad2)*%
X81500000Y-108770000D03*
%TO.P,Q5,3,E*%
%TO.N,GND*%
X81500000Y-110040000D03*
%TD*%
D12*
%TO.P,D19,1,K*%
%TO.N,Net-(D19-Pad1)*%
X115500000Y-73325000D03*
D13*
%TO.P,D19,2,A*%
%TO.N,Net-(D19-Pad2)*%
X115500000Y-70785000D03*
%TD*%
D12*
%TO.P,D22,1,K*%
%TO.N,Net-(D22-Pad1)*%
X125000000Y-83325000D03*
D13*
%TO.P,D22,2,A*%
%TO.N,Net-(D21-Pad1)*%
X125000000Y-80785000D03*
%TD*%
D14*
%TO.P,Q8,1,C*%
%TO.N,Net-(D16-Pad1)*%
X101000000Y-107500000D03*
D15*
%TO.P,Q8,2,B*%
%TO.N,Net-(Q8-Pad2)*%
X101000000Y-108770000D03*
%TO.P,Q8,3,E*%
%TO.N,GND*%
X101000000Y-110040000D03*
%TD*%
D12*
%TO.P,D32,1,K*%
%TO.N,Net-(D32-Pad1)*%
X172500000Y-83255000D03*
D13*
%TO.P,D32,2,A*%
%TO.N,Net-(D31-Pad1)*%
X172500000Y-80715000D03*
%TD*%
D12*
%TO.P,D1,1,K*%
%TO.N,Net-(D1-Pad1)*%
X56290000Y-62275000D03*
D13*
%TO.P,D1,2,A*%
%TO.N,Net-(D1-Pad2)*%
X56290000Y-59735000D03*
%TD*%
D10*
%TO.P,R12,1*%
%TO.N,+5V*%
X88500000Y-34420000D03*
D11*
%TO.P,R12,2*%
%TO.N,Net-(D11-Pad2)*%
X88500000Y-44580000D03*
%TD*%
D12*
%TO.P,D34,1,K*%
%TO.N,Net-(D34-Pad1)*%
X182000000Y-83255000D03*
D13*
%TO.P,D34,2,A*%
%TO.N,Net-(D33-Pad1)*%
X182000000Y-80715000D03*
%TD*%
D12*
%TO.P,D37,1,K*%
%TO.N,Net-(D37-Pad1)*%
X199000000Y-73275000D03*
D13*
%TO.P,D37,2,A*%
%TO.N,Net-(D37-Pad2)*%
X199000000Y-70735000D03*
%TD*%
D12*
%TO.P,D44,1,K*%
%TO.N,Net-(D44-Pad1)*%
X217000000Y-94040000D03*
D13*
%TO.P,D44,2,A*%
%TO.N,Net-(D43-Pad1)*%
X217000000Y-91500000D03*
%TD*%
D14*
%TO.P,Q18,1,C*%
%TO.N,Net-(D36-Pad1)*%
X190140000Y-107500000D03*
D15*
%TO.P,Q18,2,B*%
%TO.N,Net-(Q18-Pad2)*%
X190140000Y-108770000D03*
%TO.P,Q18,3,E*%
%TO.N,GND*%
X190140000Y-110040000D03*
%TD*%
D12*
%TO.P,D49,1,K*%
%TO.N,Net-(D49-Pad1)*%
X235000000Y-73275000D03*
D13*
%TO.P,D49,2,A*%
%TO.N,Net-(D49-Pad2)*%
X235000000Y-70735000D03*
%TD*%
D10*
%TO.P,R48,1*%
%TO.N,+5V*%
X223500000Y-34420000D03*
D11*
%TO.P,R48,2*%
%TO.N,Net-(D47-Pad2)*%
X223500000Y-44580000D03*
%TD*%
D10*
%TO.P,R13,1*%
%TO.N,Net-(Q7-Pad2)*%
X93500000Y-118920000D03*
D11*
%TO.P,R13,2*%
%TO.N,Net-(R13-Pad2)*%
X93500000Y-129080000D03*
%TD*%
D12*
%TO.P,D8,1,K*%
%TO.N,Net-(D8-Pad1)*%
X74500000Y-83060000D03*
D13*
%TO.P,D8,2,A*%
%TO.N,Net-(D7-Pad1)*%
X74500000Y-80520000D03*
%TD*%
D14*
%TO.P,Q15,1,C*%
%TO.N,Net-(D30-Pad1)*%
X159000000Y-107500000D03*
D15*
%TO.P,Q15,2,B*%
%TO.N,Net-(Q15-Pad2)*%
X159000000Y-108770000D03*
%TO.P,Q15,3,E*%
%TO.N,GND*%
X159000000Y-110040000D03*
%TD*%
D10*
%TO.P,R25,1*%
%TO.N,Net-(Q13-Pad2)*%
X145750000Y-119070000D03*
D11*
%TO.P,R25,2*%
%TO.N,Net-(J1-Pad7)*%
X145750000Y-129230000D03*
%TD*%
D10*
%TO.P,R14,1*%
%TO.N,+5V*%
X93440000Y-34420000D03*
D11*
%TO.P,R14,2*%
%TO.N,Net-(D13-Pad2)*%
X93440000Y-44580000D03*
%TD*%
D14*
%TO.P,Q2,1,C*%
%TO.N,Net-(D4-Pad1)*%
X62000000Y-107500000D03*
D15*
%TO.P,Q2,2,B*%
%TO.N,Net-(Q2-Pad2)*%
X62000000Y-108770000D03*
%TO.P,Q2,3,E*%
%TO.N,GND*%
X62000000Y-110040000D03*
%TD*%
D10*
%TO.P,R30,1*%
%TO.N,+5V*%
X157000000Y-34340000D03*
D11*
%TO.P,R30,2*%
%TO.N,Net-(D29-Pad2)*%
X157000000Y-44500000D03*
%TD*%
D12*
%TO.P,D4,1,K*%
%TO.N,Net-(D4-Pad1)*%
X62500000Y-83275000D03*
D13*
%TO.P,D4,2,A*%
%TO.N,Net-(D3-Pad1)*%
X62500000Y-80735000D03*
%TD*%
D14*
%TO.P,Q23,1,C*%
%TO.N,Net-(D46-Pad1)*%
X222640000Y-107500000D03*
D15*
%TO.P,Q23,2,B*%
%TO.N,Net-(Q23-Pad2)*%
X222640000Y-108770000D03*
%TO.P,Q23,3,E*%
%TO.N,GND*%
X222640000Y-110040000D03*
%TD*%
D10*
%TO.P,R39,1*%
%TO.N,Net-(Q20-Pad2)*%
X206500000Y-118920000D03*
D11*
%TO.P,R39,2*%
%TO.N,Net-(R39-Pad2)*%
X206500000Y-129080000D03*
%TD*%
D12*
%TO.P,D3,1,K*%
%TO.N,Net-(D3-Pad1)*%
X62500000Y-73275000D03*
D13*
%TO.P,D3,2,A*%
%TO.N,Net-(D3-Pad2)*%
X62500000Y-70735000D03*
%TD*%
D10*
%TO.P,R35,1*%
%TO.N,Net-(Q18-Pad2)*%
X194500000Y-119000000D03*
D11*
%TO.P,R35,2*%
%TO.N,Net-(R35-Pad2)*%
X194500000Y-129160000D03*
%TD*%
D12*
%TO.P,D24,1,K*%
%TO.N,Net-(D24-Pad1)*%
X134470000Y-83290000D03*
D13*
%TO.P,D24,2,A*%
%TO.N,Net-(D23-Pad1)*%
X134470000Y-80750000D03*
%TD*%
D20*
%TO.N,GND*%
X52500000Y-135500000D03*
D21*
%TO.N,Net-(J1-Pad4)*%
X151500000Y-135960000D03*
%TO.N,Net-(J1-Pad8)*%
X113000000Y-133000000D03*
%TO.N,Net-(U1-Pad14)*%
X175070000Y-149960000D03*
X167000000Y-158000000D03*
X84620000Y-153140000D03*
%TD*%
D22*
%TO.N,Net-(D1-Pad1)*%
X56290000Y-62275000D02*
X56290000Y-81249022D01*
X56300000Y-81259022D02*
X56300000Y-92005000D01*
X56290000Y-81249022D02*
X56300000Y-81259022D01*
%TO.N,Net-(D1-Pad2)*%
X63500000Y-44580000D02*
X63500000Y-45500000D01*
X56290000Y-52710000D02*
X56290000Y-59735000D01*
X63500000Y-45500000D02*
X56290000Y-52710000D01*
D23*
%TO.N,Net-(D2-Pad1)*%
X56250000Y-94595000D02*
X56300000Y-94545000D01*
X55500000Y-95345000D02*
X56300000Y-94545000D01*
X55500000Y-107500000D02*
X55500000Y-95345000D01*
D22*
%TO.N,Net-(D3-Pad1)*%
X62280000Y-73040000D02*
X62280000Y-80500000D01*
X62280000Y-80500000D02*
X62300000Y-80520000D01*
%TO.N,Net-(D3-Pad2)*%
X68500000Y-44580000D02*
X68500000Y-46500000D01*
X62280000Y-52720000D02*
X62280000Y-70500000D01*
X68500000Y-46500000D02*
X62280000Y-52720000D01*
D23*
%TO.N,Net-(D4-Pad1)*%
X62000000Y-102500000D02*
X62000000Y-107500000D01*
X62500000Y-102000000D02*
X62000000Y-102500000D01*
X62500000Y-83275000D02*
X62500000Y-102000000D01*
D22*
%TO.N,Net-(D5-Pad1)*%
X68290000Y-92020000D02*
X68300000Y-92030000D01*
X68290000Y-62275000D02*
X68290000Y-92020000D01*
%TO.N,Net-(D5-Pad2)*%
X68290000Y-52710000D02*
X73500000Y-47500000D01*
X73500000Y-47500000D02*
X73500000Y-44580000D01*
X68290000Y-59735000D02*
X68290000Y-52710000D01*
D23*
%TO.N,Net-(D6-Pad1)*%
X68300000Y-102300000D02*
X68500000Y-102500000D01*
X68250000Y-94620000D02*
X68300000Y-94570000D01*
X68300000Y-94570000D02*
X68300000Y-102300000D01*
X68500000Y-102500000D02*
X68500000Y-107500000D01*
D22*
%TO.N,Net-(D7-Pad1)*%
X74280000Y-80500000D02*
X74300000Y-80520000D01*
X74280000Y-73040000D02*
X74280000Y-80500000D01*
%TO.N,Net-(D7-Pad2)*%
X78500000Y-48500000D02*
X78500000Y-44580000D01*
X74280000Y-52720000D02*
X78500000Y-48500000D01*
X74280000Y-70500000D02*
X74280000Y-52720000D01*
D23*
%TO.N,Net-(D8-Pad1)*%
X75000000Y-102500000D02*
X75000000Y-107500000D01*
X74500000Y-102000000D02*
X75000000Y-102500000D01*
X74300000Y-83060000D02*
X74250000Y-83110000D01*
X74500000Y-83060000D02*
X74500000Y-102000000D01*
D22*
%TO.N,Net-(D9-Pad2)*%
X80330000Y-52670000D02*
X83500000Y-49500000D01*
X83500000Y-49500000D02*
X83500000Y-44580000D01*
X80330000Y-59735000D02*
X80330000Y-52670000D01*
D23*
%TO.N,Net-(D10-Pad1)*%
X81500000Y-103000000D02*
X81500000Y-107500000D01*
X80300000Y-94545000D02*
X80300000Y-101800000D01*
X80300000Y-94545000D02*
X80250000Y-94595000D01*
X80300000Y-101800000D02*
X81500000Y-103000000D01*
D22*
%TO.N,Net-(D11-Pad2)*%
X86320000Y-52680000D02*
X88500000Y-50500000D01*
X88500000Y-50500000D02*
X88500000Y-44580000D01*
X86320000Y-70500000D02*
X86320000Y-52680000D01*
D23*
%TO.N,Net-(D12-Pad1)*%
X88000000Y-103000000D02*
X88000000Y-107500000D01*
X86500000Y-83275000D02*
X86500000Y-101500000D01*
X86250000Y-83150000D02*
X86340000Y-83060000D01*
X86500000Y-101500000D02*
X88000000Y-103000000D01*
D22*
%TO.N,Net-(D13-Pad1)*%
X92330000Y-62275000D02*
X92330000Y-91995000D01*
X92330000Y-91995000D02*
X92340000Y-92005000D01*
%TO.N,Net-(D13-Pad2)*%
X92330000Y-59735000D02*
X92330000Y-52670000D01*
X92330000Y-52670000D02*
X93440000Y-51560000D01*
X93440000Y-51560000D02*
X93440000Y-44580000D01*
D23*
%TO.N,Net-(D14-Pad1)*%
X92340000Y-94545000D02*
X92250000Y-94635000D01*
X92340000Y-94545000D02*
X92340000Y-100840000D01*
X94500000Y-103000000D02*
X94500000Y-107500000D01*
X92340000Y-100840000D02*
X94500000Y-103000000D01*
D22*
%TO.N,Net-(D15-Pad1)*%
X98320000Y-73040000D02*
X98320000Y-80500000D01*
X98320000Y-80500000D02*
X98340000Y-80520000D01*
%TO.N,Net-(D15-Pad2)*%
X98440000Y-52440000D02*
X98440000Y-44580000D01*
X98500000Y-52500000D02*
X98440000Y-52440000D01*
X98320000Y-70500000D02*
X98320000Y-52680000D01*
X98320000Y-52680000D02*
X98500000Y-52500000D01*
D23*
%TO.N,Net-(D16-Pad1)*%
X98500000Y-100500000D02*
X101000000Y-103000000D01*
X101000000Y-103000000D02*
X101000000Y-107500000D01*
X98340000Y-83060000D02*
X98250000Y-83150000D01*
X98500000Y-83275000D02*
X98500000Y-100500000D01*
D22*
%TO.N,Net-(D17-Pad1)*%
X104330000Y-62275000D02*
X104330000Y-91995000D01*
X104330000Y-91995000D02*
X104340000Y-92005000D01*
%TO.N,Net-(D17-Pad2)*%
X104330000Y-53330000D02*
X103500000Y-52500000D01*
X104330000Y-59735000D02*
X104330000Y-53330000D01*
X103500000Y-52500000D02*
X103500000Y-44580000D01*
D23*
%TO.N,Net-(D18-Pad1)*%
X107500000Y-104000000D02*
X107500000Y-107500000D01*
X104340000Y-94545000D02*
X104340000Y-100840000D01*
X104340000Y-100840000D02*
X107500000Y-104000000D01*
X104340000Y-94545000D02*
X104250000Y-94635000D01*
D22*
%TO.N,Net-(D19-Pad1)*%
X115500000Y-73325000D02*
X115500000Y-80785000D01*
%TO.N,Net-(D19-Pad2)*%
X115500000Y-70785000D02*
X115500000Y-61170000D01*
X115500000Y-61170000D02*
X132000000Y-44670000D01*
X132000000Y-44670000D02*
X132000000Y-44500000D01*
D23*
%TO.N,Net-(D20-Pad1)*%
X126500000Y-106000000D02*
X126500000Y-107500000D01*
X120000000Y-104000000D02*
X124500000Y-104000000D01*
X115500000Y-83325000D02*
X115500000Y-99500000D01*
X124500000Y-104000000D02*
X126500000Y-106000000D01*
X115500000Y-99500000D02*
X120000000Y-104000000D01*
D22*
%TO.N,Net-(D21-Pad1)*%
X125000000Y-73280000D02*
X125000000Y-80785000D01*
%TO.N,Net-(D21-Pad2)*%
X136990000Y-48000000D02*
X136990000Y-44470000D01*
X125000000Y-70740000D02*
X125000000Y-59990000D01*
X125000000Y-59990000D02*
X136990000Y-48000000D01*
D23*
%TO.N,Net-(D22-Pad1)*%
X129500000Y-101500000D02*
X133000000Y-105000000D01*
X125000000Y-100000000D02*
X126500000Y-101500000D01*
X125000000Y-83325000D02*
X125000000Y-100000000D01*
X126500000Y-101500000D02*
X129500000Y-101500000D01*
X133000000Y-105000000D02*
X133000000Y-107500000D01*
D22*
%TO.N,Net-(D23-Pad1)*%
X134500000Y-80720000D02*
X134470000Y-80750000D01*
X134500000Y-73275000D02*
X134500000Y-80720000D01*
%TO.N,Net-(D23-Pad2)*%
X142000000Y-50620000D02*
X142000000Y-44500000D01*
X134500000Y-70735000D02*
X134500000Y-58120000D01*
X134500000Y-58120000D02*
X142000000Y-50620000D01*
D23*
%TO.N,Net-(D24-Pad1)*%
X134470000Y-99970000D02*
X139500000Y-105000000D01*
X139500000Y-105000000D02*
X139500000Y-107500000D01*
X134470000Y-83290000D02*
X134470000Y-99970000D01*
D22*
%TO.N,Net-(D25-Pad1)*%
X144000000Y-80735000D02*
X143980000Y-80755000D01*
X144000000Y-73275000D02*
X144000000Y-80735000D01*
%TO.N,Net-(D25-Pad2)*%
X144000000Y-70735000D02*
X144000000Y-55730000D01*
X144000000Y-55730000D02*
X147010000Y-52720000D01*
X147000000Y-52710000D02*
X147000000Y-44500000D01*
X147010000Y-52720000D02*
X147000000Y-52710000D01*
D23*
%TO.N,Net-(D26-Pad1)*%
X143980000Y-83295000D02*
X143980000Y-100980000D01*
X146000000Y-103000000D02*
X146000000Y-107500000D01*
X143980000Y-100980000D02*
X146000000Y-103000000D01*
D22*
%TO.N,Net-(D27-Pad1)*%
X153500000Y-80765000D02*
X153490000Y-80775000D01*
X153500000Y-73275000D02*
X153500000Y-80765000D01*
%TO.N,Net-(D27-Pad2)*%
X153500000Y-70735000D02*
X153580000Y-70655000D01*
X153580000Y-70655000D02*
X153580000Y-54460000D01*
X152000000Y-52880000D02*
X152000000Y-44500000D01*
X153580000Y-54460000D02*
X152000000Y-52880000D01*
D23*
%TO.N,Net-(D28-Pad1)*%
X153490000Y-99990000D02*
X153500000Y-100000000D01*
X153500000Y-102000000D02*
X152500000Y-103000000D01*
X153490000Y-83315000D02*
X153490000Y-99990000D01*
X152500000Y-103000000D02*
X152500000Y-107500000D01*
X153490000Y-99990000D02*
X153490000Y-102010000D01*
D22*
%TO.N,Net-(D29-Pad1)*%
X163000000Y-73255000D02*
X163000000Y-80715000D01*
%TO.N,Net-(D29-Pad2)*%
X163000000Y-70715000D02*
X163000000Y-55870000D01*
X163000000Y-55870000D02*
X157000000Y-49870000D01*
X157000000Y-49870000D02*
X157000000Y-44500000D01*
D23*
%TO.N,Net-(D30-Pad1)*%
X163000000Y-83255000D02*
X163000000Y-100000000D01*
X159000000Y-104360000D02*
X159000000Y-107500000D01*
X163000000Y-100000000D02*
X159000000Y-104000000D01*
X159000000Y-104000000D02*
X159000000Y-104360000D01*
D22*
%TO.N,Net-(D31-Pad1)*%
X172500000Y-73255000D02*
X172500000Y-80715000D01*
%TO.N,Net-(D31-Pad2)*%
X162000000Y-46550000D02*
X162000000Y-44500000D01*
X172500000Y-70715000D02*
X172500000Y-57050000D01*
X172500000Y-57050000D02*
X162000000Y-46550000D01*
D23*
%TO.N,Net-(D32-Pad1)*%
X165500000Y-104000000D02*
X165500000Y-105000000D01*
X172500000Y-83255000D02*
X172500000Y-100000000D01*
X165500000Y-104360000D02*
X165500000Y-107500000D01*
X172500000Y-100000000D02*
X171000000Y-101500000D01*
X171000000Y-101500000D02*
X168000000Y-101500000D01*
X168000000Y-101500000D02*
X165500000Y-104000000D01*
D22*
%TO.N,Net-(D33-Pad1)*%
X182000000Y-73255000D02*
X182000000Y-80715000D01*
%TO.N,Net-(D33-Pad2)*%
X182000000Y-59500000D02*
X167000000Y-44500000D01*
X182000000Y-70715000D02*
X182000000Y-59500000D01*
D23*
%TO.N,Net-(D34-Pad1)*%
X173000000Y-104000000D02*
X178000000Y-104000000D01*
X182000000Y-100000000D02*
X182000000Y-83255000D01*
X172000000Y-107500000D02*
X172000000Y-105000000D01*
X172000000Y-105000000D02*
X173000000Y-104000000D01*
X178000000Y-104000000D02*
X182000000Y-100000000D01*
D22*
%TO.N,Net-(D35-Pad1)*%
X193500000Y-62275000D02*
X193500000Y-91735000D01*
%TO.N,Net-(D35-Pad2)*%
X193500000Y-44580000D02*
X193500000Y-59735000D01*
D23*
%TO.N,Net-(D36-Pad1)*%
X193500000Y-101000000D02*
X190140000Y-104360000D01*
X190140000Y-104360000D02*
X190140000Y-107500000D01*
X193500000Y-94275000D02*
X193500000Y-101000000D01*
X193500000Y-94275000D02*
X193230000Y-94545000D01*
D22*
%TO.N,Net-(D37-Pad1)*%
X199000000Y-73275000D02*
X199000000Y-80735000D01*
%TO.N,Net-(D37-Pad2)*%
X199000000Y-70735000D02*
X199000000Y-52500000D01*
X198500000Y-52000000D02*
X198500000Y-44580000D01*
X199000000Y-52500000D02*
X198500000Y-52000000D01*
D23*
%TO.N,Net-(D38-Pad1)*%
X199000000Y-102500000D02*
X196500000Y-105000000D01*
X199000000Y-83275000D02*
X199000000Y-102500000D01*
X196500000Y-105000000D02*
X196500000Y-107500000D01*
D22*
%TO.N,Net-(D39-Pad1)*%
X205500000Y-62275000D02*
X205500000Y-91460000D01*
%TO.N,Net-(D39-Pad2)*%
X203500000Y-50500000D02*
X203500000Y-44580000D01*
X205500000Y-59735000D02*
X205500000Y-52500000D01*
X205500000Y-52500000D02*
X203500000Y-50500000D01*
D23*
%TO.N,Net-(D40-Pad1)*%
X203000000Y-104500000D02*
X203000000Y-107500000D01*
X205500000Y-94000000D02*
X205500000Y-102000000D01*
X205500000Y-94000000D02*
X205230000Y-94270000D01*
X205500000Y-102000000D02*
X203000000Y-104500000D01*
D22*
%TO.N,Net-(D41-Pad1)*%
X211000000Y-73275000D02*
X211000000Y-81010000D01*
%TO.N,Net-(D41-Pad2)*%
X211000000Y-70735000D02*
X211000000Y-53000000D01*
X211000000Y-53000000D02*
X208500000Y-50500000D01*
X208500000Y-50500000D02*
X208500000Y-44580000D01*
D23*
%TO.N,Net-(D42-Pad1)*%
X211000000Y-102000000D02*
X209500000Y-103500000D01*
X209500000Y-103500000D02*
X209500000Y-107500000D01*
X211000000Y-83550000D02*
X211000000Y-102000000D01*
D22*
%TO.N,Net-(D43-Pad1)*%
X217000000Y-62275000D02*
X217000000Y-91500000D01*
%TO.N,Net-(D43-Pad2)*%
X217000000Y-52000000D02*
X213500000Y-48500000D01*
X213500000Y-48500000D02*
X213500000Y-44580000D01*
X217000000Y-59735000D02*
X217000000Y-52000000D01*
D23*
%TO.N,Net-(D44-Pad1)*%
X217000000Y-94040000D02*
X217000000Y-102000000D01*
X217000000Y-102000000D02*
X216140000Y-102860000D01*
X216140000Y-102860000D02*
X216140000Y-107500000D01*
D22*
%TO.N,Net-(D45-Pad1)*%
X223000000Y-73275000D02*
X223000000Y-81235000D01*
%TO.N,Net-(D45-Pad2)*%
X223000000Y-70735000D02*
X223000000Y-52000000D01*
X218500000Y-47500000D02*
X218500000Y-44580000D01*
X223000000Y-52000000D02*
X218500000Y-47500000D01*
D23*
%TO.N,Net-(D46-Pad1)*%
X223000000Y-83775000D02*
X223000000Y-102500000D01*
X223000000Y-102500000D02*
X222640000Y-102860000D01*
X222640000Y-102860000D02*
X222640000Y-107500000D01*
D22*
%TO.N,Net-(D47-Pad1)*%
X229000000Y-91235000D02*
X229225000Y-91460000D01*
X229000000Y-62275000D02*
X229000000Y-91235000D01*
%TO.N,Net-(D47-Pad2)*%
X229000000Y-59735000D02*
X229000000Y-52500000D01*
X223500000Y-47000000D02*
X223500000Y-44580000D01*
X229000000Y-52500000D02*
X223500000Y-47000000D01*
D23*
%TO.N,Net-(D48-Pad1)*%
X229225000Y-94000000D02*
X229225000Y-107415000D01*
X229225000Y-107415000D02*
X229140000Y-107500000D01*
D22*
%TO.N,Net-(D49-Pad1)*%
X235000000Y-73275000D02*
X235000000Y-81510000D01*
%TO.N,Net-(D49-Pad2)*%
X235000000Y-53000000D02*
X228500000Y-46500000D01*
X228500000Y-46500000D02*
X228500000Y-44580000D01*
X235000000Y-70735000D02*
X235000000Y-53000000D01*
D23*
%TO.N,Net-(D50-Pad1)*%
X235640000Y-103860000D02*
X235640000Y-107500000D01*
X235000000Y-103220000D02*
X235640000Y-103860000D01*
X235000000Y-84050000D02*
X235000000Y-103220000D01*
D22*
%TO.N,Net-(D51-Pad1)*%
X241000000Y-91235000D02*
X241225000Y-91460000D01*
X241000000Y-62275000D02*
X241000000Y-91235000D01*
%TO.N,Net-(D51-Pad2)*%
X241000000Y-59735000D02*
X241000000Y-54000000D01*
X241000000Y-54000000D02*
X233500000Y-46500000D01*
X233500000Y-46500000D02*
X233500000Y-44580000D01*
D23*
%TO.N,Net-(D52-Pad1)*%
X241225000Y-103225000D02*
X242500000Y-104500000D01*
X242500000Y-104500000D02*
X242500000Y-107500000D01*
X241225000Y-94000000D02*
X241225000Y-103225000D01*
D24*
%TO.N,+5V*%
X218500000Y-34420000D02*
X223500000Y-34420000D01*
X193500000Y-34420000D02*
X198500000Y-34420000D01*
X167000000Y-34340000D02*
X193420000Y-34340000D01*
D22*
X158000000Y-149500000D02*
X160500000Y-147000000D01*
D24*
X63500000Y-34420000D02*
X68500000Y-34420000D01*
X198500000Y-34420000D02*
X203500000Y-34420000D01*
D22*
X237080000Y-35120000D02*
X236380000Y-34420000D01*
D24*
X193420000Y-34340000D02*
X193500000Y-34420000D01*
X103500000Y-34420000D02*
X131920000Y-34420000D01*
X136960000Y-34340000D02*
X136990000Y-34310000D01*
X152000000Y-34340000D02*
X157000000Y-34340000D01*
D22*
X237080000Y-39580000D02*
X237080000Y-35120000D01*
X246500000Y-140500000D02*
X246500000Y-49000000D01*
D24*
X68500000Y-34420000D02*
X73500000Y-34420000D01*
X98440000Y-34420000D02*
X93440000Y-34420000D01*
D22*
X194000000Y-156500000D02*
X230500000Y-156500000D01*
D24*
X83500000Y-34420000D02*
X78500000Y-34420000D01*
D22*
X160500000Y-147000000D02*
X184500000Y-147000000D01*
D24*
X103500000Y-34420000D02*
X98440000Y-34420000D01*
X147000000Y-34340000D02*
X152000000Y-34340000D01*
X73500000Y-34420000D02*
X78500000Y-34420000D01*
X141970000Y-34310000D02*
X142000000Y-34340000D01*
X223500000Y-34420000D02*
X228500000Y-34420000D01*
X228500000Y-34420000D02*
X233500000Y-34420000D01*
X142000000Y-34340000D02*
X147000000Y-34340000D01*
X162000000Y-34340000D02*
X167000000Y-34340000D01*
X136990000Y-34310000D02*
X141970000Y-34310000D01*
D22*
X246500000Y-49000000D02*
X237080000Y-39580000D01*
X236380000Y-34420000D02*
X233500000Y-34420000D01*
D24*
X213500000Y-34420000D02*
X218500000Y-34420000D01*
X88500000Y-34420000D02*
X83500000Y-34420000D01*
X131920000Y-34420000D02*
X132000000Y-34340000D01*
D22*
X184500000Y-147000000D02*
X194000000Y-156500000D01*
D24*
X132000000Y-34340000D02*
X136960000Y-34340000D01*
D22*
X230500000Y-156500000D02*
X246500000Y-140500000D01*
D24*
X93440000Y-34420000D02*
X88500000Y-34420000D01*
X203500000Y-34420000D02*
X208500000Y-34420000D01*
X157000000Y-34340000D02*
X162000000Y-34340000D01*
X208500000Y-34420000D02*
X213500000Y-34420000D01*
D23*
%TO.N,GND*%
X75000000Y-114500000D02*
X75500000Y-115000000D01*
X75000000Y-110040000D02*
X75000000Y-114500000D01*
X133000000Y-110040000D02*
X133000000Y-114000000D01*
D22*
X229000000Y-115000000D02*
X235500000Y-115000000D01*
X54500000Y-115000000D02*
X56000000Y-115000000D01*
D23*
X55500000Y-114500000D02*
X56000000Y-115000000D01*
X139500000Y-110040000D02*
X139500000Y-114500000D01*
X126500000Y-110040000D02*
X126500000Y-115000000D01*
X229140000Y-114860000D02*
X229000000Y-115000000D01*
D22*
X190500000Y-115000000D02*
X197000000Y-115000000D01*
X108000000Y-115000000D02*
X126500000Y-115000000D01*
D23*
X172000000Y-114500000D02*
X172500000Y-115000000D01*
X235640000Y-110040000D02*
X235640000Y-114860000D01*
D22*
X140000000Y-115000000D02*
X146000000Y-115000000D01*
X216500000Y-115000000D02*
X222500000Y-115000000D01*
D23*
X81500000Y-110040000D02*
X81500000Y-114500000D01*
X229140000Y-110040000D02*
X229140000Y-114860000D01*
D22*
X52500000Y-135500000D02*
X52500000Y-117000000D01*
D23*
X139500000Y-114500000D02*
X140000000Y-115000000D01*
D22*
X146000000Y-115000000D02*
X152500000Y-115000000D01*
D23*
X196500000Y-110040000D02*
X196500000Y-114500000D01*
X172000000Y-110040000D02*
X172000000Y-114500000D01*
X165500000Y-114500000D02*
X166000000Y-115000000D01*
X68500000Y-114500000D02*
X69000000Y-115000000D01*
D22*
X197000000Y-115000000D02*
X203000000Y-115000000D01*
D23*
X55500000Y-110040000D02*
X55500000Y-114500000D01*
X216140000Y-114640000D02*
X216500000Y-115000000D01*
X203000000Y-110040000D02*
X203000000Y-115000000D01*
X165500000Y-110040000D02*
X165500000Y-114500000D01*
X242500000Y-110040000D02*
X242500000Y-114500000D01*
X152500000Y-110040000D02*
X152500000Y-115000000D01*
D22*
X152500000Y-115000000D02*
X158500000Y-115000000D01*
D23*
X146000000Y-110040000D02*
X146000000Y-115000000D01*
X107500000Y-110040000D02*
X107500000Y-114500000D01*
X190140000Y-114640000D02*
X190500000Y-115000000D01*
X196500000Y-114500000D02*
X197000000Y-115000000D01*
D22*
X134000000Y-115000000D02*
X140000000Y-115000000D01*
X52500000Y-117000000D02*
X54500000Y-115000000D01*
D23*
X235640000Y-114860000D02*
X235500000Y-115000000D01*
X190140000Y-110040000D02*
X190140000Y-114640000D01*
X159000000Y-110040000D02*
X159000000Y-114500000D01*
X133000000Y-114000000D02*
X134000000Y-115000000D01*
D22*
X203000000Y-115000000D02*
X209500000Y-115000000D01*
D23*
X101000000Y-110040000D02*
X101000000Y-115000000D01*
D22*
X94500000Y-115000000D02*
X101000000Y-115000000D01*
X69000000Y-115000000D02*
X75500000Y-115000000D01*
D23*
X216140000Y-110040000D02*
X216140000Y-114640000D01*
X209500000Y-110040000D02*
X209500000Y-115000000D01*
D22*
X126500000Y-115000000D02*
X134000000Y-115000000D01*
X235500000Y-115000000D02*
X242000000Y-115000000D01*
X88000000Y-115000000D02*
X94500000Y-115000000D01*
D23*
X94500000Y-110040000D02*
X94500000Y-115000000D01*
X81500000Y-114500000D02*
X82000000Y-115000000D01*
X68500000Y-110040000D02*
X68500000Y-114500000D01*
D22*
X101000000Y-115000000D02*
X108000000Y-115000000D01*
X75500000Y-115000000D02*
X82000000Y-115000000D01*
X172500000Y-115000000D02*
X190500000Y-115000000D01*
X62000000Y-115000000D02*
X69000000Y-115000000D01*
X82000000Y-115000000D02*
X88000000Y-115000000D01*
D23*
X222640000Y-114860000D02*
X222500000Y-115000000D01*
X222640000Y-110040000D02*
X222640000Y-114860000D01*
D22*
X166000000Y-115000000D02*
X172500000Y-115000000D01*
D23*
X88000000Y-110040000D02*
X88000000Y-115000000D01*
D22*
X56000000Y-115000000D02*
X62000000Y-115000000D01*
X209500000Y-115000000D02*
X216500000Y-115000000D01*
D23*
X107500000Y-114500000D02*
X108000000Y-115000000D01*
X62000000Y-110040000D02*
X62000000Y-115000000D01*
X242500000Y-114500000D02*
X241500000Y-114500000D01*
D22*
X222500000Y-115000000D02*
X229000000Y-115000000D01*
X158500000Y-115000000D02*
X166000000Y-115000000D01*
D23*
X159000000Y-114500000D02*
X158500000Y-115000000D01*
D25*
%TO.N,Net-(J1-Pad4)*%
X198500000Y-142500000D02*
X223500000Y-142500000D01*
D23*
X151500000Y-135960000D02*
X151540000Y-136000000D01*
X151500000Y-135960000D02*
X151460000Y-136000000D01*
D25*
X224880000Y-143880000D02*
X224880000Y-147660000D01*
X223500000Y-142500000D02*
X224880000Y-143880000D01*
X151540000Y-136000000D02*
X192000000Y-136000000D01*
X192000000Y-136000000D02*
X198500000Y-142500000D01*
%TO.N,Net-(J1-Pad5)*%
X147840000Y-145660000D02*
X151500000Y-142000000D01*
X79500000Y-158500000D02*
X142770000Y-158500000D01*
X217260000Y-150740000D02*
X217260000Y-147660000D01*
X195500000Y-152000000D02*
X216000000Y-152000000D01*
X151500000Y-142000000D02*
X185500000Y-142000000D01*
X147840000Y-149500000D02*
X147840000Y-145660000D01*
X77000000Y-147650000D02*
X77000000Y-156000000D01*
X77000000Y-156000000D02*
X79500000Y-158500000D01*
X143270000Y-158000000D02*
X147840000Y-153430000D01*
X185500000Y-142000000D02*
X195500000Y-152000000D01*
X142770000Y-158500000D02*
X143270000Y-158000000D01*
X147840000Y-153430000D02*
X147840000Y-149500000D01*
X216000000Y-152000000D02*
X217260000Y-150740000D01*
%TO.N,Net-(J1-Pad6)*%
X142000000Y-155500000D02*
X142500000Y-155000000D01*
X79540000Y-154040000D02*
X81000000Y-155500000D01*
X142500000Y-155000000D02*
X145300000Y-152200000D01*
X145300000Y-143140000D02*
X145300000Y-149500000D01*
X196520000Y-145000000D02*
X219500000Y-145000000D01*
X219500000Y-145000000D02*
X219800000Y-145300000D01*
X149680000Y-138670000D02*
X190190000Y-138670000D01*
X190190000Y-138670000D02*
X196520000Y-145000000D01*
X219800000Y-145300000D02*
X219800000Y-147660000D01*
D23*
X145300000Y-143140000D02*
X145300000Y-143050000D01*
D25*
X79540000Y-147650000D02*
X79540000Y-154040000D01*
X145300000Y-152200000D02*
X145300000Y-143140000D01*
X145300000Y-143050000D02*
X149680000Y-138670000D01*
X81000000Y-155500000D02*
X142000000Y-155500000D01*
D22*
%TO.N,Net-(J1-Pad7)*%
X158190000Y-129160000D02*
X158240000Y-129110000D01*
X139750000Y-129230000D02*
X143230000Y-129230000D01*
X139740000Y-129240000D02*
X139750000Y-129230000D01*
X133760000Y-129240000D02*
X139740000Y-129240000D01*
X133750000Y-129230000D02*
X133760000Y-129240000D01*
X164210000Y-129160000D02*
X170210000Y-129160000D01*
X127750000Y-129230000D02*
X133750000Y-129230000D01*
X152140000Y-129230000D02*
X152210000Y-129160000D01*
D25*
X142760000Y-149500000D02*
X142760000Y-129700000D01*
D22*
X152210000Y-129160000D02*
X158190000Y-129160000D01*
X143230000Y-129230000D02*
X145750000Y-129230000D01*
X145750000Y-129230000D02*
X152140000Y-129230000D01*
D23*
X142760000Y-129700000D02*
X143230000Y-129230000D01*
D22*
X164160000Y-129110000D02*
X164210000Y-129160000D01*
X158240000Y-129110000D02*
X164160000Y-129110000D01*
D25*
%TO.N,Net-(J1-Pad8)*%
X115250000Y-135250000D02*
X113000000Y-133000000D01*
X129750000Y-135250000D02*
X115250000Y-135250000D01*
X140220000Y-145720000D02*
X129750000Y-135250000D01*
X140220000Y-149500000D02*
X140220000Y-145720000D01*
D23*
%TO.N,Net-(Q2-Pad2)*%
X63520000Y-118900000D02*
X63500000Y-118920000D01*
%TO.N,Net-(Q7-Pad2)*%
X93520000Y-118900000D02*
X93500000Y-118920000D01*
%TO.N,Net-(Q10-Pad2)*%
X127770000Y-119050000D02*
X127750000Y-119070000D01*
%TO.N,Net-(Q11-Pad2)*%
X133770000Y-119070000D02*
X133760000Y-119080000D01*
%TO.N,Net-(Q12-Pad2)*%
X139770000Y-119050000D02*
X139750000Y-119070000D01*
%TO.N,Net-(Q13-Pad2)*%
X145770000Y-119050000D02*
X145750000Y-119070000D01*
%TO.N,Net-(Q14-Pad2)*%
X152230000Y-118980000D02*
X152210000Y-119000000D01*
%TO.N,Net-(Q15-Pad2)*%
X158230000Y-118940000D02*
X158240000Y-118950000D01*
%TO.N,Net-(Q16-Pad2)*%
X164230000Y-118980000D02*
X164210000Y-119000000D01*
%TO.N,Net-(Q17-Pad2)*%
X170230000Y-118980000D02*
X170210000Y-119000000D01*
%TO.N,Net-(Q18-Pad2)*%
X194270000Y-118770000D02*
X194500000Y-119000000D01*
D25*
%TO.N,Net-(R1-Pad2)*%
X78840000Y-135340000D02*
X82080000Y-138580000D01*
X82080000Y-138580000D02*
X82080000Y-140030000D01*
X57500000Y-129000000D02*
X57500000Y-132070000D01*
X60770000Y-135340000D02*
X78840000Y-135340000D01*
X57500000Y-132070000D02*
X60770000Y-135340000D01*
%TO.N,Net-(R5-Pad2)*%
X84620000Y-137120000D02*
X84620000Y-140030000D01*
X69500000Y-131110000D02*
X70890000Y-132500000D01*
X70890000Y-132500000D02*
X80000000Y-132500000D01*
X69500000Y-129080000D02*
X69500000Y-131110000D01*
X80000000Y-132500000D02*
X84620000Y-137120000D01*
%TO.N,Net-(R9-Pad2)*%
X87160000Y-135660000D02*
X87160000Y-140030000D01*
X81500000Y-130000000D02*
X87160000Y-135660000D01*
X81500000Y-129080000D02*
X81500000Y-130000000D01*
%TO.N,Net-(R13-Pad2)*%
X93500000Y-129080000D02*
X93500000Y-131400000D01*
X89700000Y-135200000D02*
X89700000Y-140030000D01*
X93500000Y-131400000D02*
X89700000Y-135200000D01*
%TO.N,Net-(R17-Pad2)*%
X87160000Y-144890000D02*
X87160000Y-147650000D01*
X105500000Y-131250000D02*
X92860000Y-143890000D01*
X92860000Y-143890000D02*
X88160000Y-143890000D01*
X105500000Y-129080000D02*
X105500000Y-131250000D01*
X88160000Y-143890000D02*
X87160000Y-144890000D01*
%TO.N,Net-(R35-Pad2)*%
X199120000Y-137000000D02*
X194500000Y-132380000D01*
X222340000Y-140040000D02*
X222340000Y-138420000D01*
X194500000Y-132380000D02*
X194500000Y-129160000D01*
X220920000Y-137000000D02*
X199120000Y-137000000D01*
X222340000Y-138420000D02*
X220920000Y-137000000D01*
%TO.N,Net-(R39-Pad2)*%
X206500000Y-129080000D02*
X206500000Y-132530000D01*
X206500000Y-132530000D02*
X208470000Y-134500000D01*
X221830000Y-134500000D02*
X224880000Y-137550000D01*
X208470000Y-134500000D02*
X221830000Y-134500000D01*
X224880000Y-137550000D02*
X224880000Y-140040000D01*
%TO.N,Net-(R43-Pad2)*%
X223080000Y-132000000D02*
X227420000Y-136340000D01*
X218500000Y-129500000D02*
X221000000Y-132000000D01*
X221000000Y-132000000D02*
X223080000Y-132000000D01*
X218500000Y-129080000D02*
X218500000Y-129500000D01*
X227420000Y-136340000D02*
X227420000Y-140040000D01*
%TO.N,Net-(R47-Pad2)*%
X230500000Y-129160000D02*
X230500000Y-133450000D01*
X229960000Y-133990000D02*
X229960000Y-140040000D01*
X230500000Y-133450000D02*
X229960000Y-133990000D01*
%TO.N,Net-(R51-Pad2)*%
X242500000Y-133940000D02*
X233360000Y-143080000D01*
X242500000Y-129160000D02*
X242500000Y-133940000D01*
X229000000Y-144000000D02*
X227420000Y-145580000D01*
X227420000Y-145580000D02*
X227420000Y-147660000D01*
X232440000Y-144000000D02*
X229000000Y-144000000D01*
X233360000Y-143080000D02*
X232440000Y-144000000D01*
%TO.N,Net-(U1-Pad14)*%
X175040000Y-149960000D02*
X167000000Y-158000000D01*
X84620000Y-153140000D02*
X84620000Y-147650000D01*
D23*
X175100000Y-149960000D02*
X175040000Y-149960000D01*
%TO.N,Net-(Q1-Pad2)*%
X57520000Y-118820000D02*
X57500000Y-118840000D01*
D22*
%TO.N,Net-(D9-Pad1)*%
X80330000Y-62275000D02*
X80330000Y-91975000D01*
X80330000Y-91975000D02*
X80300000Y-92005000D01*
%TO.N,Net-(D12-Pad2)*%
X86320000Y-80500000D02*
X86340000Y-80520000D01*
X86320000Y-73040000D02*
X86320000Y-80500000D01*
%TD*%
M02*
