%TF.GenerationSoftware,KiCad,Pcbnew,(6.0.2)*%
%TF.CreationDate,2023-10-08T18:11:24+02:00*%
%TF.ProjectId,kamizelka,6b616d69-7a65-46c6-9b61-2e6b69636164,rev?*%
%TF.SameCoordinates,Original*%
%TF.FileFunction,Soldermask,Bot*%
%TF.FilePolarity,Negative*%
%FSLAX46Y46*%
G04 Gerber Fmt 4.6, Leading zero omitted, Abs format (unit mm)*
G04 Created by KiCad (PCBNEW (6.0.2)) date 2023-10-08 18:11:24*
%MOMM*%
%LPD*%
G01*
G04 APERTURE LIST*
%ADD10C,1.600000*%
%ADD11O,1.600000X1.600000*%
%ADD12R,1.800000X1.800000*%
%ADD13C,1.800000*%
%ADD14R,1.500000X1.050000*%
%ADD15O,1.500000X1.050000*%
%ADD16R,1.600000X2.400000*%
%ADD17O,1.600000X2.400000*%
%ADD18R,1.700000X1.700000*%
%ADD19O,1.700000X1.700000*%
%ADD20C,3.200000*%
G04 APERTURE END LIST*
D10*
%TO.C,R46*%
X218500000Y-34420000D03*
D11*
X218500000Y-44580000D03*
%TD*%
D12*
%TO.C,D16*%
X98500000Y-83275000D03*
D13*
X98500000Y-80735000D03*
%TD*%
D10*
%TO.C,R22*%
X136990000Y-34310000D03*
D11*
X136990000Y-44470000D03*
%TD*%
D12*
%TO.C,D26*%
X143980000Y-83295000D03*
D13*
X143980000Y-80755000D03*
%TD*%
D12*
%TO.C,D28*%
X153490000Y-83315000D03*
D13*
X153490000Y-80775000D03*
%TD*%
D12*
%TO.C,D50*%
X235000000Y-84050000D03*
D13*
X235000000Y-81510000D03*
%TD*%
D10*
%TO.C,R34*%
X167000000Y-34340000D03*
D11*
X167000000Y-44500000D03*
%TD*%
D10*
%TO.C,R18*%
X103500000Y-34420000D03*
D11*
X103500000Y-44580000D03*
%TD*%
D14*
%TO.C,Q13*%
X146000000Y-107500000D03*
D15*
X146000000Y-108770000D03*
X146000000Y-110040000D03*
%TD*%
D10*
%TO.C,R44*%
X213500000Y-34420000D03*
D11*
X213500000Y-44580000D03*
%TD*%
D12*
%TO.C,D36*%
X193500000Y-94275000D03*
D13*
X193500000Y-91735000D03*
%TD*%
D10*
%TO.C,R41*%
X212500000Y-119000000D03*
D11*
X212500000Y-129160000D03*
%TD*%
D14*
%TO.C,Q17*%
X172000000Y-107500000D03*
D15*
X172000000Y-108770000D03*
X172000000Y-110040000D03*
%TD*%
D10*
%TO.C,R50*%
X228500000Y-34420000D03*
D11*
X228500000Y-44580000D03*
%TD*%
D14*
%TO.C,Q6*%
X88000000Y-107500000D03*
D15*
X88000000Y-108770000D03*
X88000000Y-110040000D03*
%TD*%
D12*
%TO.C,D40*%
X205500000Y-94000000D03*
D13*
X205500000Y-91460000D03*
%TD*%
D10*
%TO.C,R10*%
X83500000Y-34420000D03*
D11*
X83500000Y-44580000D03*
%TD*%
D12*
%TO.C,D45*%
X223000000Y-73275000D03*
D13*
X223000000Y-70735000D03*
%TD*%
D10*
%TO.C,R16*%
X98440000Y-34420000D03*
D11*
X98440000Y-44580000D03*
%TD*%
D10*
%TO.C,R47*%
X230500000Y-119000000D03*
D11*
X230500000Y-129160000D03*
%TD*%
D12*
%TO.C,D47*%
X229000000Y-62275000D03*
D13*
X229000000Y-59735000D03*
%TD*%
D10*
%TO.C,R27*%
X152210000Y-119000000D03*
D11*
X152210000Y-129160000D03*
%TD*%
D10*
%TO.C,R7*%
X75500000Y-118920000D03*
D11*
X75500000Y-129080000D03*
%TD*%
D16*
%TO.C,U2*%
X229960000Y-140040000D03*
D17*
X227420000Y-140040000D03*
X224880000Y-140040000D03*
X222340000Y-140040000D03*
X219800000Y-140040000D03*
X217260000Y-140040000D03*
X214720000Y-140040000D03*
X212180000Y-140040000D03*
X212180000Y-147660000D03*
X214720000Y-147660000D03*
X217260000Y-147660000D03*
X219800000Y-147660000D03*
X222340000Y-147660000D03*
X224880000Y-147660000D03*
X227420000Y-147660000D03*
X229960000Y-147660000D03*
%TD*%
D10*
%TO.C,R52*%
X233500000Y-34420000D03*
D11*
X233500000Y-44580000D03*
%TD*%
D12*
%TO.C,D46*%
X223000000Y-83775000D03*
D13*
X223000000Y-81235000D03*
%TD*%
D10*
%TO.C,R45*%
X224500000Y-118920000D03*
D11*
X224500000Y-129080000D03*
%TD*%
D12*
%TO.C,D30*%
X163000000Y-83255000D03*
D13*
X163000000Y-80715000D03*
%TD*%
D10*
%TO.C,R20*%
X132000000Y-34340000D03*
D11*
X132000000Y-44500000D03*
%TD*%
D12*
%TO.C,D51*%
X241000000Y-62275000D03*
D13*
X241000000Y-59735000D03*
%TD*%
D12*
%TO.C,D52*%
X241225000Y-94000000D03*
D13*
X241225000Y-91460000D03*
%TD*%
D12*
%TO.C,D5*%
X68290000Y-62275000D03*
D13*
X68290000Y-59735000D03*
%TD*%
D10*
%TO.C,R51*%
X242500000Y-119000000D03*
D11*
X242500000Y-129160000D03*
%TD*%
D14*
%TO.C,Q9*%
X107500000Y-107500000D03*
D15*
X107500000Y-108770000D03*
X107500000Y-110040000D03*
%TD*%
D14*
%TO.C,Q12*%
X139500000Y-107500000D03*
D15*
X139500000Y-108770000D03*
X139500000Y-110040000D03*
%TD*%
D10*
%TO.C,R26*%
X147000000Y-34340000D03*
D11*
X147000000Y-44500000D03*
%TD*%
D10*
%TO.C,R32*%
X162000000Y-34340000D03*
D11*
X162000000Y-44500000D03*
%TD*%
D10*
%TO.C,R8*%
X78500000Y-34420000D03*
D11*
X78500000Y-44580000D03*
%TD*%
D12*
%TO.C,D41*%
X211000000Y-73275000D03*
D13*
X211000000Y-70735000D03*
%TD*%
D12*
%TO.C,D21*%
X125000000Y-73280000D03*
D13*
X125000000Y-70740000D03*
%TD*%
D10*
%TO.C,R29*%
X158240000Y-118950000D03*
D11*
X158240000Y-129110000D03*
%TD*%
D12*
%TO.C,D9*%
X80330000Y-62275000D03*
D13*
X80330000Y-59735000D03*
%TD*%
D12*
%TO.C,D38*%
X199000000Y-83275000D03*
D13*
X199000000Y-80735000D03*
%TD*%
D12*
%TO.C,D15*%
X98500000Y-73275000D03*
D13*
X98500000Y-70735000D03*
%TD*%
D10*
%TO.C,R4*%
X68500000Y-34420000D03*
D11*
X68500000Y-44580000D03*
%TD*%
D10*
%TO.C,R21*%
X133760000Y-119080000D03*
D11*
X133760000Y-129240000D03*
%TD*%
D10*
%TO.C,R38*%
X198500000Y-34420000D03*
D11*
X198500000Y-44580000D03*
%TD*%
D12*
%TO.C,D23*%
X134500000Y-73275000D03*
D13*
X134500000Y-70735000D03*
%TD*%
D12*
%TO.C,D35*%
X193500000Y-62275000D03*
D13*
X193500000Y-59735000D03*
%TD*%
D14*
%TO.C,Q10*%
X126500000Y-107500000D03*
D15*
X126500000Y-108770000D03*
X126500000Y-110040000D03*
%TD*%
D12*
%TO.C,D10*%
X80300000Y-94545000D03*
D13*
X80300000Y-92005000D03*
%TD*%
D12*
%TO.C,D48*%
X229225000Y-94000000D03*
D13*
X229225000Y-91460000D03*
%TD*%
D18*
%TO.C,J1*%
X158000000Y-149500000D03*
D19*
X155460000Y-149500000D03*
X152920000Y-149500000D03*
X150380000Y-149500000D03*
X147840000Y-149500000D03*
X145300000Y-149500000D03*
X142760000Y-149500000D03*
X140220000Y-149500000D03*
%TD*%
D14*
%TO.C,Q20*%
X203000000Y-107500000D03*
D15*
X203000000Y-108770000D03*
X203000000Y-110040000D03*
%TD*%
D12*
%TO.C,D13*%
X92330000Y-62275000D03*
D13*
X92330000Y-59735000D03*
%TD*%
D10*
%TO.C,R11*%
X87500000Y-118920000D03*
D11*
X87500000Y-129080000D03*
%TD*%
D14*
%TO.C,Q7*%
X94500000Y-107500000D03*
D15*
X94500000Y-108770000D03*
X94500000Y-110040000D03*
%TD*%
D10*
%TO.C,R28*%
X152000000Y-34340000D03*
D11*
X152000000Y-44500000D03*
%TD*%
D12*
%TO.C,D39*%
X205500000Y-62275000D03*
D13*
X205500000Y-59735000D03*
%TD*%
D10*
%TO.C,R1*%
X57500000Y-118840000D03*
D11*
X57500000Y-129000000D03*
%TD*%
D14*
%TO.C,Q14*%
X152500000Y-107500000D03*
D15*
X152500000Y-108770000D03*
X152500000Y-110040000D03*
%TD*%
D10*
%TO.C,R36*%
X193500000Y-34420000D03*
D11*
X193500000Y-44580000D03*
%TD*%
D10*
%TO.C,R17*%
X105500000Y-118920000D03*
D11*
X105500000Y-129080000D03*
%TD*%
D14*
%TO.C,Q25*%
X235640000Y-107500000D03*
D15*
X235640000Y-108770000D03*
X235640000Y-110040000D03*
%TD*%
D10*
%TO.C,R5*%
X69500000Y-118920000D03*
D11*
X69500000Y-129080000D03*
%TD*%
D10*
%TO.C,R37*%
X200500000Y-119000000D03*
D11*
X200500000Y-129160000D03*
%TD*%
D10*
%TO.C,R24*%
X142000000Y-34340000D03*
D11*
X142000000Y-44500000D03*
%TD*%
D12*
%TO.C,D33*%
X182000000Y-73255000D03*
D13*
X182000000Y-70715000D03*
%TD*%
D14*
%TO.C,Q21*%
X209500000Y-107500000D03*
D15*
X209500000Y-108770000D03*
X209500000Y-110040000D03*
%TD*%
D20*
%TO.C,REF\u002A\u002A*%
X55000000Y-155000000D03*
%TD*%
D10*
%TO.C,R19*%
X127750000Y-119070000D03*
D11*
X127750000Y-129230000D03*
%TD*%
D10*
%TO.C,R6*%
X73500000Y-34420000D03*
D11*
X73500000Y-44580000D03*
%TD*%
D12*
%TO.C,D31*%
X172500000Y-73255000D03*
D13*
X172500000Y-70715000D03*
%TD*%
D14*
%TO.C,Q16*%
X165500000Y-107500000D03*
D15*
X165500000Y-108770000D03*
X165500000Y-110040000D03*
%TD*%
D10*
%TO.C,R15*%
X99500000Y-119000000D03*
D11*
X99500000Y-129160000D03*
%TD*%
D10*
%TO.C,R23*%
X139750000Y-119070000D03*
D11*
X139750000Y-129230000D03*
%TD*%
D14*
%TO.C,Q24*%
X229140000Y-107500000D03*
D15*
X229140000Y-108770000D03*
X229140000Y-110040000D03*
%TD*%
D12*
%TO.C,D2*%
X56300000Y-94545000D03*
D13*
X56300000Y-92005000D03*
%TD*%
D14*
%TO.C,Q4*%
X75000000Y-107500000D03*
D15*
X75000000Y-108770000D03*
X75000000Y-110040000D03*
%TD*%
D14*
%TO.C,Q19*%
X196500000Y-107500000D03*
D15*
X196500000Y-108770000D03*
X196500000Y-110040000D03*
%TD*%
D12*
%TO.C,D43*%
X217000000Y-62275000D03*
D13*
X217000000Y-59735000D03*
%TD*%
D16*
%TO.C,U1*%
X89700000Y-140030000D03*
D17*
X87160000Y-140030000D03*
X84620000Y-140030000D03*
X82080000Y-140030000D03*
X79540000Y-140030000D03*
X77000000Y-140030000D03*
X74460000Y-140030000D03*
X71920000Y-140030000D03*
X71920000Y-147650000D03*
X74460000Y-147650000D03*
X77000000Y-147650000D03*
X79540000Y-147650000D03*
X82080000Y-147650000D03*
X84620000Y-147650000D03*
X87160000Y-147650000D03*
X89700000Y-147650000D03*
%TD*%
D14*
%TO.C,Q11*%
X133000000Y-107500000D03*
D15*
X133000000Y-108770000D03*
X133000000Y-110040000D03*
%TD*%
D12*
%TO.C,D25*%
X144000000Y-73275000D03*
D13*
X144000000Y-70735000D03*
%TD*%
D12*
%TO.C,D7*%
X74500000Y-73275000D03*
D13*
X74500000Y-70735000D03*
%TD*%
D12*
%TO.C,D20*%
X115500000Y-83325000D03*
D13*
X115500000Y-80785000D03*
%TD*%
D12*
%TO.C,D11*%
X86500000Y-73275000D03*
D13*
X86500000Y-70735000D03*
%TD*%
D14*
%TO.C,Q26*%
X242500000Y-107500000D03*
D15*
X242500000Y-108770000D03*
X242500000Y-110040000D03*
%TD*%
D12*
%TO.C,D27*%
X153500000Y-73275000D03*
D13*
X153500000Y-70735000D03*
%TD*%
D14*
%TO.C,Q3*%
X68500000Y-107500000D03*
D15*
X68500000Y-108770000D03*
X68500000Y-110040000D03*
%TD*%
D10*
%TO.C,R40*%
X203500000Y-34420000D03*
D11*
X203500000Y-44580000D03*
%TD*%
D12*
%TO.C,D42*%
X211000000Y-83550000D03*
D13*
X211000000Y-81010000D03*
%TD*%
D12*
%TO.C,D29*%
X163000000Y-73255000D03*
D13*
X163000000Y-70715000D03*
%TD*%
D12*
%TO.C,D12*%
X86500000Y-83275000D03*
D13*
X86500000Y-80735000D03*
%TD*%
D12*
%TO.C,D18*%
X104340000Y-94545000D03*
D13*
X104340000Y-92005000D03*
%TD*%
D10*
%TO.C,R2*%
X63500000Y-34420000D03*
D11*
X63500000Y-44580000D03*
%TD*%
D10*
%TO.C,R42*%
X208500000Y-34420000D03*
D11*
X208500000Y-44580000D03*
%TD*%
D10*
%TO.C,R43*%
X218500000Y-118920000D03*
D11*
X218500000Y-129080000D03*
%TD*%
D14*
%TO.C,Q22*%
X216140000Y-107500000D03*
D15*
X216140000Y-108770000D03*
X216140000Y-110040000D03*
%TD*%
D10*
%TO.C,R33*%
X170210000Y-119000000D03*
D11*
X170210000Y-129160000D03*
%TD*%
D12*
%TO.C,D6*%
X68300000Y-94570000D03*
D13*
X68300000Y-92030000D03*
%TD*%
D10*
%TO.C,R31*%
X164210000Y-119000000D03*
D11*
X164210000Y-129160000D03*
%TD*%
D12*
%TO.C,D17*%
X104330000Y-62275000D03*
D13*
X104330000Y-59735000D03*
%TD*%
D20*
%TO.C,REF\u002A\u002A*%
X244000000Y-155000000D03*
%TD*%
D10*
%TO.C,R3*%
X63500000Y-118920000D03*
D11*
X63500000Y-129080000D03*
%TD*%
D10*
%TO.C,R49*%
X236500000Y-119000000D03*
D11*
X236500000Y-129160000D03*
%TD*%
D12*
%TO.C,D14*%
X92340000Y-94545000D03*
D13*
X92340000Y-92005000D03*
%TD*%
D10*
%TO.C,R9*%
X81500000Y-118920000D03*
D11*
X81500000Y-129080000D03*
%TD*%
D14*
%TO.C,Q1*%
X55500000Y-107500000D03*
D15*
X55500000Y-108770000D03*
X55500000Y-110040000D03*
%TD*%
D14*
%TO.C,Q5*%
X81500000Y-107500000D03*
D15*
X81500000Y-108770000D03*
X81500000Y-110040000D03*
%TD*%
D12*
%TO.C,D19*%
X115500000Y-73325000D03*
D13*
X115500000Y-70785000D03*
%TD*%
D12*
%TO.C,D22*%
X125000000Y-83325000D03*
D13*
X125000000Y-80785000D03*
%TD*%
D14*
%TO.C,Q8*%
X101000000Y-107500000D03*
D15*
X101000000Y-108770000D03*
X101000000Y-110040000D03*
%TD*%
D12*
%TO.C,D32*%
X172500000Y-83255000D03*
D13*
X172500000Y-80715000D03*
%TD*%
D20*
%TO.C,REF\u002A\u002A*%
X55000000Y-36000000D03*
%TD*%
D12*
%TO.C,D1*%
X56290000Y-62275000D03*
D13*
X56290000Y-59735000D03*
%TD*%
D20*
%TO.C,REF\u002A\u002A*%
X244000000Y-36000000D03*
%TD*%
D10*
%TO.C,R12*%
X88500000Y-34420000D03*
D11*
X88500000Y-44580000D03*
%TD*%
D12*
%TO.C,D34*%
X182000000Y-83255000D03*
D13*
X182000000Y-80715000D03*
%TD*%
D12*
%TO.C,D37*%
X199000000Y-73275000D03*
D13*
X199000000Y-70735000D03*
%TD*%
D12*
%TO.C,D44*%
X217000000Y-94040000D03*
D13*
X217000000Y-91500000D03*
%TD*%
D14*
%TO.C,Q18*%
X190140000Y-107500000D03*
D15*
X190140000Y-108770000D03*
X190140000Y-110040000D03*
%TD*%
D12*
%TO.C,D49*%
X235000000Y-73275000D03*
D13*
X235000000Y-70735000D03*
%TD*%
D10*
%TO.C,R48*%
X223500000Y-34420000D03*
D11*
X223500000Y-44580000D03*
%TD*%
D10*
%TO.C,R13*%
X93500000Y-118920000D03*
D11*
X93500000Y-129080000D03*
%TD*%
D12*
%TO.C,D8*%
X74500000Y-83060000D03*
D13*
X74500000Y-80520000D03*
%TD*%
D14*
%TO.C,Q15*%
X159000000Y-107500000D03*
D15*
X159000000Y-108770000D03*
X159000000Y-110040000D03*
%TD*%
D10*
%TO.C,R25*%
X145750000Y-119070000D03*
D11*
X145750000Y-129230000D03*
%TD*%
D10*
%TO.C,R14*%
X93440000Y-34420000D03*
D11*
X93440000Y-44580000D03*
%TD*%
D14*
%TO.C,Q2*%
X62000000Y-107500000D03*
D15*
X62000000Y-108770000D03*
X62000000Y-110040000D03*
%TD*%
D10*
%TO.C,R30*%
X157000000Y-34340000D03*
D11*
X157000000Y-44500000D03*
%TD*%
D12*
%TO.C,D4*%
X62500000Y-83275000D03*
D13*
X62500000Y-80735000D03*
%TD*%
D14*
%TO.C,Q23*%
X222640000Y-107500000D03*
D15*
X222640000Y-108770000D03*
X222640000Y-110040000D03*
%TD*%
D10*
%TO.C,R39*%
X206500000Y-118920000D03*
D11*
X206500000Y-129080000D03*
%TD*%
D12*
%TO.C,D3*%
X62500000Y-73275000D03*
D13*
X62500000Y-70735000D03*
%TD*%
D10*
%TO.C,R35*%
X194500000Y-119000000D03*
D11*
X194500000Y-129160000D03*
%TD*%
D12*
%TO.C,D24*%
X134470000Y-83290000D03*
D13*
X134470000Y-80750000D03*
%TD*%
M02*
