%TF.GenerationSoftware,KiCad,Pcbnew,(6.0.2)*%
%TF.CreationDate,2023-10-08T18:38:51+02:00*%
%TF.ProjectId,kierownica,6b696572-6f77-46e6-9963-612e6b696361,rev?*%
%TF.SameCoordinates,Original*%
%TF.FileFunction,Copper,L2,Bot*%
%TF.FilePolarity,Positive*%
%FSLAX46Y46*%
G04 Gerber Fmt 4.6, Leading zero omitted, Abs format (unit mm)*
G04 Created by KiCad (PCBNEW (6.0.2)) date 2023-10-08 18:38:51*
%MOMM*%
%LPD*%
G01*
G04 APERTURE LIST*
%TA.AperFunction,NonConductor*%
%ADD10C,0.200000*%
%TD*%
%TA.AperFunction,ComponentPad*%
%ADD11C,2.000000*%
%TD*%
%TA.AperFunction,ComponentPad*%
%ADD12C,1.600000*%
%TD*%
%TA.AperFunction,ComponentPad*%
%ADD13O,1.600000X1.600000*%
%TD*%
%TA.AperFunction,ComponentPad*%
%ADD14R,1.700000X1.700000*%
%TD*%
%TA.AperFunction,ComponentPad*%
%ADD15O,3.048000X1.850000*%
%TD*%
%TA.AperFunction,ComponentPad*%
%ADD16O,1.700000X1.700000*%
%TD*%
%TA.AperFunction,ComponentPad*%
%ADD17R,1.800000X1.800000*%
%TD*%
%TA.AperFunction,ComponentPad*%
%ADD18C,1.800000*%
%TD*%
%TA.AperFunction,ComponentPad*%
%ADD19R,2.400000X1.600000*%
%TD*%
%TA.AperFunction,ComponentPad*%
%ADD20O,2.400000X1.600000*%
%TD*%
%TA.AperFunction,ViaPad*%
%ADD21C,1.600000*%
%TD*%
%TA.AperFunction,Conductor*%
%ADD22C,2.000000*%
%TD*%
G04 APERTURE END LIST*
D10*
X152500000Y-211150000D02*
X152500000Y-214750000D01*
X152500000Y-214750000D02*
X150550000Y-214500000D01*
X150550000Y-214500000D02*
X150550000Y-211550000D01*
X150550000Y-211550000D02*
X150500000Y-209200000D01*
X150500000Y-209200000D02*
X152500000Y-211150000D01*
G36*
X152500000Y-211150000D02*
G01*
X152500000Y-214750000D01*
X150550000Y-214500000D01*
X150550000Y-211550000D01*
X150500000Y-209200000D01*
X152500000Y-211150000D01*
G37*
X152500000Y-211150000D02*
X152500000Y-214750000D01*
X150550000Y-214500000D01*
X150550000Y-211550000D01*
X150500000Y-209200000D01*
X152500000Y-211150000D01*
X162000000Y-137775000D02*
X157500000Y-137775000D01*
X157500000Y-137775000D02*
X157500000Y-136000000D01*
X157500000Y-136000000D02*
X162000000Y-136000000D01*
X162000000Y-136000000D02*
X162000000Y-137775000D01*
G36*
X162000000Y-137775000D02*
G01*
X157500000Y-137775000D01*
X157500000Y-136000000D01*
X162000000Y-136000000D01*
X162000000Y-137775000D01*
G37*
X169000000Y-198000000D02*
X170400000Y-198000000D01*
X170400000Y-198000000D02*
X170400000Y-202500000D01*
X170400000Y-202500000D02*
X169000000Y-202500000D01*
X169000000Y-202500000D02*
X169000000Y-198000000D01*
G36*
X169000000Y-198000000D02*
G01*
X170400000Y-198000000D01*
X170400000Y-202500000D01*
X169000000Y-202500000D01*
X169000000Y-198000000D01*
G37*
D11*
%TO.P,SW3,1,1*%
%TO.N,GND*%
X151750000Y-200250000D03*
X158250000Y-200250000D03*
%TO.P,SW3,2,2*%
%TO.N,unconnected-(SW3-Pad2)*%
X151750000Y-204750000D03*
X158250000Y-204750000D03*
%TD*%
D12*
%TO.P,R2,1*%
%TO.N,Net-(C1-Pad2)*%
X154500000Y-119000000D03*
D13*
%TO.P,R2,2*%
%TO.N,GND*%
X164660000Y-119000000D03*
%TD*%
D14*
%TO.P,J1,1,Pin_1*%
%TO.N,Net-(C4-Pad1)*%
X151500000Y-217000000D03*
%TD*%
D12*
%TO.P,R6,1*%
%TO.N,Net-(C3-Pad2)*%
X154500000Y-100200000D03*
D13*
%TO.P,R6,2*%
%TO.N,GND*%
X164660000Y-100200000D03*
%TD*%
D15*
%TO.P,SW4,1,1*%
%TO.N,GND*%
X160760000Y-68500000D03*
X148260000Y-68500000D03*
%TO.P,SW4,2,2*%
%TO.N,unconnected-(SW4-Pad2)*%
X148260000Y-73500000D03*
X160760000Y-73500000D03*
%TD*%
D12*
%TO.P,R10,1*%
%TO.N,Net-(J3-Pad2)*%
X154500000Y-171420000D03*
D13*
%TO.P,R10,2*%
%TO.N,Net-(D2-Pad2)*%
X154500000Y-181580000D03*
%TD*%
D12*
%TO.P,R3,1*%
%TO.N,Net-(C2-Pad1)*%
X149520000Y-107000000D03*
D13*
%TO.P,R3,2*%
%TO.N,+3V3*%
X159680000Y-107000000D03*
%TD*%
D14*
%TO.P,J3,1,Pin_1*%
%TO.N,Net-(J3-Pad1)*%
X139375000Y-165025000D03*
D16*
%TO.P,J3,2,Pin_2*%
%TO.N,Net-(J3-Pad2)*%
X139375000Y-162485000D03*
%TO.P,J3,3,Pin_3*%
%TO.N,Net-(J3-Pad3)*%
X139375000Y-159945000D03*
%TD*%
D14*
%TO.P,J2,1,Pin_1*%
%TO.N,Net-(C1-Pad1)*%
X139500000Y-113500000D03*
D16*
%TO.P,J2,2,Pin_2*%
%TO.N,Net-(C2-Pad1)*%
X139500000Y-110960000D03*
%TO.P,J2,3,Pin_3*%
%TO.N,Net-(C3-Pad1)*%
X139500000Y-108420000D03*
%TD*%
D12*
%TO.P,R13,1*%
%TO.N,Net-(R12-Pad2)*%
X154420000Y-131500000D03*
D13*
%TO.P,R13,2*%
%TO.N,GND*%
X164580000Y-131500000D03*
%TD*%
D12*
%TO.P,R14,1*%
%TO.N,+3V3*%
X141710000Y-143870000D03*
D13*
%TO.P,R14,2*%
%TO.N,Net-(J6-Pad1)*%
X141710000Y-133710000D03*
%TD*%
D12*
%TO.P,R9,1*%
%TO.N,Net-(J3-Pad1)*%
X150000000Y-171500000D03*
D13*
%TO.P,R9,2*%
%TO.N,Net-(D1-Pad2)*%
X150000000Y-181660000D03*
%TD*%
D12*
%TO.P,C3,1*%
%TO.N,Net-(C3-Pad1)*%
X147580000Y-100200000D03*
%TO.P,C3,2*%
%TO.N,Net-(C3-Pad2)*%
X150080000Y-100200000D03*
%TD*%
D15*
%TO.P,SW1,1,1*%
%TO.N,GND*%
X108500000Y-68000000D03*
X96000000Y-68000000D03*
%TO.P,SW1,2,2*%
%TO.N,unconnected-(SW1-Pad2)*%
X108500000Y-73000000D03*
X96000000Y-73000000D03*
%TD*%
D17*
%TO.P,D1,1,K*%
%TO.N,GND*%
X146500000Y-192500000D03*
D18*
%TO.P,D1,2,A*%
%TO.N,Net-(D1-Pad2)*%
X146500000Y-189960000D03*
%TD*%
D12*
%TO.P,R11,1*%
%TO.N,Net-(J3-Pad3)*%
X159000000Y-171500000D03*
D13*
%TO.P,R11,2*%
%TO.N,Net-(D3-Pad2)*%
X159000000Y-181660000D03*
%TD*%
D19*
%TO.P,U1,1*%
%TO.N,Net-(J6-Pad1)*%
X148175000Y-136880000D03*
D20*
%TO.P,U1,2,-*%
%TO.N,Net-(R12-Pad2)*%
X148175000Y-139420000D03*
%TO.P,U1,3,+*%
%TO.N,Net-(J4-Pad2)*%
X148175000Y-141960000D03*
%TO.P,U1,4*%
%TO.N,N/C*%
X148175000Y-144500000D03*
%TO.P,U1,5*%
X155795000Y-144500000D03*
%TO.P,U1,6*%
X155795000Y-141960000D03*
%TO.P,U1,7*%
X155795000Y-139420000D03*
%TO.P,U1,8*%
X155795000Y-136880000D03*
%TD*%
D12*
%TO.P,R5,1*%
%TO.N,Net-(C3-Pad1)*%
X149420000Y-96200000D03*
D13*
%TO.P,R5,2*%
%TO.N,+3V3*%
X159580000Y-96200000D03*
%TD*%
D14*
%TO.P,J4,1,Pin_1*%
%TO.N,+3V3*%
X139500000Y-148200000D03*
D16*
%TO.P,J4,2,Pin_2*%
%TO.N,Net-(J4-Pad2)*%
X139500000Y-150740000D03*
%TO.P,J4,3,Pin_3*%
%TO.N,GND*%
X139500000Y-153280000D03*
%TD*%
D12*
%TO.P,R12,1*%
%TO.N,+3V3*%
X161280000Y-127000000D03*
D13*
%TO.P,R12,2*%
%TO.N,Net-(R12-Pad2)*%
X151120000Y-127000000D03*
%TD*%
D12*
%TO.P,C4,1*%
%TO.N,Net-(C4-Pad1)*%
X153500000Y-213500000D03*
%TO.P,C4,2*%
%TO.N,Net-(C4-Pad2)*%
X156000000Y-213500000D03*
%TD*%
%TO.P,C1,1*%
%TO.N,Net-(C1-Pad1)*%
X147580000Y-119000000D03*
%TO.P,C1,2*%
%TO.N,Net-(C1-Pad2)*%
X150080000Y-119000000D03*
%TD*%
%TO.P,R7,1*%
%TO.N,Net-(C4-Pad1)*%
X150000000Y-213500000D03*
D13*
%TO.P,R7,2*%
%TO.N,+3V3*%
X139840000Y-213500000D03*
%TD*%
D14*
%TO.P,J6,1,Pin_1*%
%TO.N,Net-(J6-Pad1)*%
X139500000Y-128800000D03*
%TD*%
D17*
%TO.P,D3,1,K*%
%TO.N,GND*%
X162500000Y-192500000D03*
D18*
%TO.P,D3,2,A*%
%TO.N,Net-(D3-Pad2)*%
X162500000Y-189960000D03*
%TD*%
D15*
%TO.P,SW2,1,1*%
%TO.N,GND*%
X213260000Y-67500000D03*
X200760000Y-67500000D03*
%TO.P,SW2,2,2*%
%TO.N,unconnected-(SW2-Pad2)*%
X200760000Y-72500000D03*
X213260000Y-72500000D03*
%TD*%
D12*
%TO.P,C2,1*%
%TO.N,Net-(C2-Pad1)*%
X147550000Y-111000000D03*
%TO.P,C2,2*%
%TO.N,Net-(C2-Pad2)*%
X150050000Y-111000000D03*
%TD*%
%TO.P,R4,1*%
%TO.N,Net-(C2-Pad2)*%
X154520000Y-111000000D03*
D13*
%TO.P,R4,2*%
%TO.N,GND*%
X164680000Y-111000000D03*
%TD*%
D12*
%TO.P,R8,1*%
%TO.N,Net-(C4-Pad2)*%
X159370000Y-213450000D03*
D13*
%TO.P,R8,2*%
%TO.N,GND*%
X169530000Y-213450000D03*
%TD*%
D17*
%TO.P,D2,1,K*%
%TO.N,GND*%
X154500000Y-192520000D03*
D18*
%TO.P,D2,2,A*%
%TO.N,Net-(D2-Pad2)*%
X154500000Y-189980000D03*
%TD*%
D14*
%TO.P,J5,1,Pin_1*%
%TO.N,+3V3*%
X139500000Y-91540000D03*
D16*
%TO.P,J5,2,Pin_2*%
%TO.N,GND*%
X139500000Y-89000000D03*
%TD*%
D12*
%TO.P,R1,1*%
%TO.N,Net-(C1-Pad1)*%
X149420000Y-123000000D03*
D13*
%TO.P,R1,2*%
%TO.N,+3V3*%
X159580000Y-123000000D03*
%TD*%
D21*
%TO.N,GND*%
X164660000Y-153315000D03*
%TD*%
D22*
%TO.N,*%
X157380000Y-136880000D02*
X157380480Y-136879520D01*
X155795000Y-136880000D02*
X157380000Y-136880000D01*
%TO.N,Net-(C1-Pad1)*%
X146000000Y-119000000D02*
X147580000Y-119000000D01*
X140500000Y-113500000D02*
X146000000Y-119000000D01*
X147580000Y-121160000D02*
X149420000Y-123000000D01*
X139500000Y-113500000D02*
X140500000Y-113500000D01*
X147580000Y-119000000D02*
X147580000Y-121160000D01*
%TO.N,Net-(C1-Pad2)*%
X150080000Y-119000000D02*
X154500000Y-119000000D01*
%TO.N,Net-(C2-Pad1)*%
X139500000Y-110960000D02*
X141500000Y-110960000D01*
X147550000Y-111000000D02*
X139540000Y-111000000D01*
X139540000Y-111000000D02*
X139500000Y-110960000D01*
X149520000Y-107000000D02*
X147550000Y-108970000D01*
X147550000Y-108970000D02*
X147550000Y-111000000D01*
%TO.N,Net-(C2-Pad2)*%
X150050000Y-111000000D02*
X154520000Y-111000000D01*
%TO.N,Net-(C3-Pad1)*%
X147580000Y-100420000D02*
X147580000Y-100200000D01*
X147580000Y-100200000D02*
X147580000Y-98040000D01*
X147580000Y-98040000D02*
X149420000Y-96200000D01*
X139500000Y-108420000D02*
X139580000Y-108420000D01*
X139580000Y-108420000D02*
X147580000Y-100420000D01*
%TO.N,Net-(C3-Pad2)*%
X150080000Y-100200000D02*
X154500000Y-100200000D01*
%TO.N,Net-(C4-Pad2)*%
X156000000Y-213500000D02*
X159220000Y-213500000D01*
%TO.N,GND*%
X167000000Y-179337500D02*
X169500000Y-181837500D01*
X149000000Y-62800000D02*
X146400000Y-62800000D01*
X167000000Y-155655000D02*
X167000000Y-179337500D01*
X169500000Y-199500000D02*
X168480000Y-200520000D01*
X164660000Y-92260000D02*
X164660000Y-119000000D01*
X208560000Y-62800000D02*
X149000000Y-62800000D01*
X169500000Y-201540000D02*
X169500000Y-212920000D01*
X164660000Y-119000000D02*
X164660000Y-153315000D01*
X158520000Y-200520000D02*
X158250000Y-200250000D01*
X168200000Y-192300000D02*
X168200000Y-193200000D01*
X96400000Y-68000000D02*
X101400000Y-63000000D01*
X147180000Y-203230000D02*
X147180000Y-207180000D01*
X147760000Y-64160000D02*
X146400000Y-62800000D01*
X168480000Y-200520000D02*
X158520000Y-200520000D01*
X139500000Y-89000000D02*
X141300000Y-87200000D01*
X169500000Y-193500000D02*
X169500000Y-199500000D01*
X147760000Y-64160000D02*
X147760000Y-64040000D01*
X146745000Y-192745000D02*
X169400000Y-192745000D01*
X168480000Y-200520000D02*
X169500000Y-201540000D01*
X141300000Y-87200000D02*
X159600000Y-87200000D01*
X147180000Y-207180000D02*
X151300480Y-211300480D01*
X151750000Y-200250000D02*
X150160000Y-200250000D01*
X101600000Y-62800000D02*
X101400000Y-63000000D01*
X169355000Y-200520000D02*
X168480000Y-200520000D01*
X150160000Y-200250000D02*
X147180000Y-203230000D01*
X96000000Y-68000000D02*
X96400000Y-68000000D01*
X147760000Y-68500000D02*
X147760000Y-64160000D01*
X169500000Y-191000000D02*
X168200000Y-192300000D01*
X147760000Y-64040000D02*
X149000000Y-62800000D01*
X146400000Y-62800000D02*
X101600000Y-62800000D01*
X168200000Y-193200000D02*
X169500000Y-194500000D01*
X169500000Y-181837500D02*
X169500000Y-194500000D01*
X164660000Y-153315000D02*
X167000000Y-155655000D01*
X213260000Y-67500000D02*
X208560000Y-62800000D01*
X159600000Y-87200000D02*
X164660000Y-92260000D01*
X146500000Y-192500000D02*
X146745000Y-192745000D01*
%TO.N,Net-(D1-Pad2)*%
X150000000Y-181660000D02*
X146500000Y-185160000D01*
X146500000Y-185160000D02*
X146500000Y-189960000D01*
%TO.N,Net-(D2-Pad2)*%
X154500000Y-181580000D02*
X154500000Y-189980000D01*
%TO.N,Net-(D3-Pad2)*%
X162500000Y-185160000D02*
X162500000Y-189960000D01*
X159000000Y-181660000D02*
X162500000Y-185160000D01*
%TO.N,+3V3*%
X161299520Y-124719520D02*
X161299520Y-145700480D01*
X160700000Y-148300000D02*
X161299520Y-147700480D01*
X158800000Y-148200000D02*
X158800000Y-148300000D01*
X159660000Y-122920000D02*
X159580000Y-123000000D01*
X159660000Y-93460000D02*
X159660000Y-122920000D01*
X141700000Y-143980000D02*
X141700000Y-146000000D01*
X160700480Y-150200480D02*
X161299520Y-150200480D01*
X139840000Y-174160000D02*
X161299520Y-152700480D01*
X141800000Y-143880000D02*
X141700000Y-143980000D01*
X158800000Y-148200000D02*
X161299520Y-145700480D01*
X159580000Y-123000000D02*
X161299520Y-124719520D01*
X161299520Y-147700480D02*
X161299520Y-150200480D01*
X139500000Y-148200000D02*
X158800000Y-148200000D01*
X141700000Y-146000000D02*
X139500000Y-148200000D01*
X139500000Y-91540000D02*
X139560000Y-91600000D01*
X158800000Y-148300000D02*
X160700000Y-148300000D01*
X139560000Y-91600000D02*
X157720000Y-91600000D01*
X157800000Y-91600000D02*
X159660000Y-93460000D01*
X139840000Y-213500000D02*
X139840000Y-174160000D01*
X158800000Y-148300000D02*
X160700480Y-150200480D01*
X161299520Y-145700480D02*
X161299520Y-147700480D01*
X157720000Y-91600000D02*
X159460000Y-93340000D01*
X161299520Y-152700480D02*
X161299520Y-150200480D01*
%TO.N,Net-(R12-Pad2)*%
X151000000Y-127120000D02*
X151000000Y-130710000D01*
X152040000Y-131500000D02*
X154420000Y-131500000D01*
X151900000Y-131640000D02*
X152040000Y-131500000D01*
X148175000Y-139420000D02*
X150034022Y-139420000D01*
X150034022Y-139420000D02*
X152060000Y-137394022D01*
X151000000Y-130710000D02*
X152060000Y-131770000D01*
X152060000Y-137394022D02*
X152060000Y-131800000D01*
X151120000Y-127000000D02*
X151000000Y-127120000D01*
X152060000Y-131800000D02*
X151900000Y-131640000D01*
%TO.N,Net-(C4-Pad1)*%
X151500000Y-217500000D02*
X151500000Y-213500000D01*
X150000000Y-213500000D02*
X151500000Y-213500000D01*
X151500000Y-213500000D02*
X153500000Y-213500000D01*
%TO.N,Net-(J6-Pad1)*%
X141800000Y-131100000D02*
X139500000Y-128800000D01*
X148175000Y-136880000D02*
X144880000Y-136880000D01*
X144880000Y-136800000D02*
X141800000Y-133720000D01*
X144880000Y-136880000D02*
X144880000Y-136800000D01*
X141800000Y-133720000D02*
X141800000Y-131100000D01*
%TD*%
M02*
