%TF.GenerationSoftware,KiCad,Pcbnew,(6.0.2)*%
%TF.CreationDate,2023-10-08T18:38:51+02:00*%
%TF.ProjectId,kierownica,6b696572-6f77-46e6-9963-612e6b696361,rev?*%
%TF.SameCoordinates,Original*%
%TF.FileFunction,Soldermask,Top*%
%TF.FilePolarity,Negative*%
%FSLAX46Y46*%
G04 Gerber Fmt 4.6, Leading zero omitted, Abs format (unit mm)*
G04 Created by KiCad (PCBNEW (6.0.2)) date 2023-10-08 18:38:51*
%MOMM*%
%LPD*%
G01*
G04 APERTURE LIST*
%ADD10C,2.000000*%
%ADD11C,1.600000*%
%ADD12O,1.600000X1.600000*%
%ADD13R,1.700000X1.700000*%
%ADD14O,3.048000X1.850000*%
%ADD15O,1.700000X1.700000*%
%ADD16C,3.200000*%
%ADD17R,1.800000X1.800000*%
%ADD18C,1.800000*%
%ADD19R,2.400000X1.600000*%
%ADD20O,2.400000X1.600000*%
G04 APERTURE END LIST*
D10*
%TO.C,SW3*%
X151750000Y-200250000D03*
X158250000Y-200250000D03*
X151750000Y-204750000D03*
X158250000Y-204750000D03*
%TD*%
D11*
%TO.C,R2*%
X154500000Y-119000000D03*
D12*
X164660000Y-119000000D03*
%TD*%
D13*
%TO.C,J1*%
X151500000Y-217000000D03*
%TD*%
D11*
%TO.C,R6*%
X154500000Y-100200000D03*
D12*
X164660000Y-100200000D03*
%TD*%
D14*
%TO.C,SW4*%
X160760000Y-68500000D03*
X148260000Y-68500000D03*
X148260000Y-73500000D03*
X160760000Y-73500000D03*
%TD*%
D11*
%TO.C,R10*%
X154500000Y-171420000D03*
D12*
X154500000Y-181580000D03*
%TD*%
D11*
%TO.C,R3*%
X149520000Y-107000000D03*
D12*
X159680000Y-107000000D03*
%TD*%
D13*
%TO.C,J3*%
X139375000Y-165025000D03*
D15*
X139375000Y-162485000D03*
X139375000Y-159945000D03*
%TD*%
D13*
%TO.C,J2*%
X139500000Y-113500000D03*
D15*
X139500000Y-110960000D03*
X139500000Y-108420000D03*
%TD*%
D16*
%TO.C,REF\u002A\u002A*%
X139000000Y-217000000D03*
%TD*%
D11*
%TO.C,R13*%
X154420000Y-131500000D03*
D12*
X164580000Y-131500000D03*
%TD*%
D11*
%TO.C,R14*%
X141710000Y-143870000D03*
D12*
X141710000Y-133710000D03*
%TD*%
D11*
%TO.C,R9*%
X150000000Y-171500000D03*
D12*
X150000000Y-181660000D03*
%TD*%
D11*
%TO.C,C3*%
X147580000Y-100200000D03*
X150080000Y-100200000D03*
%TD*%
D14*
%TO.C,SW1*%
X108500000Y-68000000D03*
X96000000Y-68000000D03*
X108500000Y-73000000D03*
X96000000Y-73000000D03*
%TD*%
D17*
%TO.C,D1*%
X146500000Y-192500000D03*
D18*
X146500000Y-189960000D03*
%TD*%
D11*
%TO.C,R11*%
X159000000Y-171500000D03*
D12*
X159000000Y-181660000D03*
%TD*%
D19*
%TO.C,U1*%
X148175000Y-136880000D03*
D20*
X148175000Y-139420000D03*
X148175000Y-141960000D03*
X148175000Y-144500000D03*
X155795000Y-144500000D03*
X155795000Y-141960000D03*
X155795000Y-139420000D03*
X155795000Y-136880000D03*
%TD*%
D11*
%TO.C,R5*%
X149420000Y-96200000D03*
D12*
X159580000Y-96200000D03*
%TD*%
D16*
%TO.C,REF\u002A\u002A*%
X92500000Y-62500000D03*
%TD*%
D13*
%TO.C,J4*%
X139500000Y-148200000D03*
D15*
X139500000Y-150740000D03*
X139500000Y-153280000D03*
%TD*%
D11*
%TO.C,R12*%
X161280000Y-127000000D03*
D12*
X151120000Y-127000000D03*
%TD*%
D11*
%TO.C,C4*%
X153500000Y-213500000D03*
X156000000Y-213500000D03*
%TD*%
%TO.C,C1*%
X147580000Y-119000000D03*
X150080000Y-119000000D03*
%TD*%
%TO.C,R7*%
X150000000Y-213500000D03*
D12*
X139840000Y-213500000D03*
%TD*%
D13*
%TO.C,J6*%
X139500000Y-128800000D03*
%TD*%
D16*
%TO.C,REF\u002A\u002A*%
X170000000Y-217000000D03*
%TD*%
D17*
%TO.C,D3*%
X162500000Y-192500000D03*
D18*
X162500000Y-189960000D03*
%TD*%
D14*
%TO.C,SW2*%
X213260000Y-67500000D03*
X200760000Y-67500000D03*
X200760000Y-72500000D03*
X213260000Y-72500000D03*
%TD*%
D11*
%TO.C,C2*%
X147550000Y-111000000D03*
X150050000Y-111000000D03*
%TD*%
%TO.C,R4*%
X154520000Y-111000000D03*
D12*
X164680000Y-111000000D03*
%TD*%
D11*
%TO.C,R8*%
X159370000Y-213450000D03*
D12*
X169530000Y-213450000D03*
%TD*%
D17*
%TO.C,D2*%
X154500000Y-192520000D03*
D18*
X154500000Y-189980000D03*
%TD*%
D13*
%TO.C,J5*%
X139500000Y-91540000D03*
D15*
X139500000Y-89000000D03*
%TD*%
D11*
%TO.C,R1*%
X149420000Y-123000000D03*
D12*
X159580000Y-123000000D03*
%TD*%
D16*
%TO.C,REF\u002A\u002A*%
X217000000Y-62000000D03*
%TD*%
M02*
