%FSLAX45Y45*%
G04 Gerber Fmt 4.5, Leading zero omitted, Abs format (unit mm)*
G04 Created by KiCad (PCBNEW (6.0.2)) date 2023-10-08 18:38:42*
%MOMM*%
%LPD*%
G01*
G04 APERTURE LIST*
%TA.AperFunction,Profile*%
%ADD10C,0.150000*%
%TD*%
%ADD11C,0.200000*%
%ADD12C,0.080000*%
%ADD13C,0.090000*%
%ADD14C,0.100000*%
%ADD15C,0.110000*%
%ADD16C,0.130000*%
G04 APERTURE END LIST*
D10*
X21900000Y-8100000D02*
X17200000Y-8100000D01*
X17200000Y-8100000D02*
X17200000Y-21908000D01*
X17200000Y-21908000D02*
X13700000Y-21908000D01*
X13700000Y-21908000D02*
X13700000Y-8100000D01*
X13700000Y-8100000D02*
X9000000Y-8100000D01*
X9000000Y-8100000D02*
X9000000Y-6000000D01*
X9000000Y-6000000D02*
X21900000Y-6000000D01*
X21900000Y-6000000D02*
X21900000Y-8100000D01*
D11*
D12*
X13944000Y-21310000D02*
X14024000Y-21390000D01*
X14024000Y-21310000D02*
X13944000Y-21390000D01*
X14131000Y-13331000D02*
X14211000Y-13411000D01*
X14211000Y-13331000D02*
X14131000Y-13411000D01*
X14131000Y-14347000D02*
X14211000Y-14427000D01*
X14211000Y-14347000D02*
X14131000Y-14427000D01*
X14715000Y-11060000D02*
X14795000Y-11140000D01*
X14795000Y-11060000D02*
X14715000Y-11140000D01*
X14718000Y-9980000D02*
X14798000Y-10060000D01*
X14798000Y-9980000D02*
X14718000Y-10060000D01*
X14718000Y-11860000D02*
X14798000Y-11940000D01*
X14798000Y-11860000D02*
X14718000Y-11940000D01*
X14777500Y-13648000D02*
X14857500Y-13728000D01*
X14857500Y-13648000D02*
X14777500Y-13728000D01*
X14777500Y-13902000D02*
X14857500Y-13982000D01*
X14857500Y-13902000D02*
X14777500Y-13982000D01*
X14777500Y-14156000D02*
X14857500Y-14236000D01*
X14857500Y-14156000D02*
X14777500Y-14236000D01*
X14777500Y-14410000D02*
X14857500Y-14490000D01*
X14857500Y-14410000D02*
X14777500Y-14490000D01*
X14902000Y-9580000D02*
X14982000Y-9660000D01*
X14982000Y-9580000D02*
X14902000Y-9660000D01*
X14902000Y-12260000D02*
X14982000Y-12340000D01*
X14982000Y-12260000D02*
X14902000Y-12340000D01*
X14912000Y-10660000D02*
X14992000Y-10740000D01*
X14992000Y-10660000D02*
X14912000Y-10740000D01*
X14960000Y-17110000D02*
X15040000Y-17190000D01*
X15040000Y-17110000D02*
X14960000Y-17190000D01*
X14960000Y-18126000D02*
X15040000Y-18206000D01*
X15040000Y-18126000D02*
X14960000Y-18206000D01*
X14960000Y-21310000D02*
X15040000Y-21390000D01*
X15040000Y-21310000D02*
X14960000Y-21390000D01*
X14965000Y-11060000D02*
X15045000Y-11140000D01*
X15045000Y-11060000D02*
X14965000Y-11140000D01*
X14968000Y-9980000D02*
X15048000Y-10060000D01*
X15048000Y-9980000D02*
X14968000Y-10060000D01*
X14968000Y-11860000D02*
X15048000Y-11940000D01*
X15048000Y-11860000D02*
X14968000Y-11940000D01*
X15072000Y-12660000D02*
X15152000Y-12740000D01*
X15152000Y-12660000D02*
X15072000Y-12740000D01*
X15310000Y-21310000D02*
X15390000Y-21390000D01*
X15390000Y-21310000D02*
X15310000Y-21390000D01*
X15402000Y-13110000D02*
X15482000Y-13190000D01*
X15482000Y-13110000D02*
X15402000Y-13190000D01*
X15410000Y-9980000D02*
X15490000Y-10060000D01*
X15490000Y-9980000D02*
X15410000Y-10060000D01*
X15410000Y-11860000D02*
X15490000Y-11940000D01*
X15490000Y-11860000D02*
X15410000Y-11940000D01*
X15410000Y-17102000D02*
X15490000Y-17182000D01*
X15490000Y-17102000D02*
X15410000Y-17182000D01*
X15410000Y-18118000D02*
X15490000Y-18198000D01*
X15490000Y-18118000D02*
X15410000Y-18198000D01*
X15412000Y-11060000D02*
X15492000Y-11140000D01*
X15492000Y-11060000D02*
X15412000Y-11140000D01*
X15539500Y-13648000D02*
X15619500Y-13728000D01*
X15619500Y-13648000D02*
X15539500Y-13728000D01*
X15539500Y-13902000D02*
X15619500Y-13982000D01*
X15619500Y-13902000D02*
X15539500Y-13982000D01*
X15539500Y-14156000D02*
X15619500Y-14236000D01*
X15619500Y-14156000D02*
X15539500Y-14236000D01*
X15539500Y-14410000D02*
X15619500Y-14490000D01*
X15619500Y-14410000D02*
X15539500Y-14490000D01*
X15560000Y-21310000D02*
X15640000Y-21390000D01*
X15640000Y-21310000D02*
X15560000Y-21390000D01*
X15860000Y-17110000D02*
X15940000Y-17190000D01*
X15940000Y-17110000D02*
X15860000Y-17190000D01*
X15860000Y-18126000D02*
X15940000Y-18206000D01*
X15940000Y-18126000D02*
X15860000Y-18206000D01*
X15897000Y-21305000D02*
X15977000Y-21385000D01*
X15977000Y-21305000D02*
X15897000Y-21385000D01*
X15918000Y-9580000D02*
X15998000Y-9660000D01*
X15998000Y-9580000D02*
X15918000Y-9660000D01*
X15918000Y-12260000D02*
X15998000Y-12340000D01*
X15998000Y-12260000D02*
X15918000Y-12340000D01*
X15928000Y-10660000D02*
X16008000Y-10740000D01*
X16008000Y-10660000D02*
X15928000Y-10740000D01*
X16088000Y-12660000D02*
X16168000Y-12740000D01*
X16168000Y-12660000D02*
X16088000Y-12740000D01*
X16418000Y-13110000D02*
X16498000Y-13190000D01*
X16498000Y-13110000D02*
X16418000Y-13190000D01*
X16426000Y-9980000D02*
X16506000Y-10060000D01*
X16506000Y-9980000D02*
X16426000Y-10060000D01*
X16426000Y-11860000D02*
X16506000Y-11940000D01*
X16506000Y-11860000D02*
X16426000Y-11940000D01*
X16428000Y-11060000D02*
X16508000Y-11140000D01*
X16508000Y-11060000D02*
X16428000Y-11140000D01*
X16913000Y-21305000D02*
X16993000Y-21385000D01*
X16993000Y-21305000D02*
X16913000Y-21385000D01*
D13*
X14695000Y-18996000D02*
G75*
G03*
X14695000Y-18996000I-45000J0D01*
G01*
X14695000Y-19250000D02*
G75*
G03*
X14695000Y-19250000I-45000J0D01*
G01*
X15495000Y-18998000D02*
G75*
G03*
X15495000Y-18998000I-45000J0D01*
G01*
X15495000Y-19252000D02*
G75*
G03*
X15495000Y-19252000I-45000J0D01*
G01*
X16295000Y-18996000D02*
G75*
G03*
X16295000Y-18996000I-45000J0D01*
G01*
X16295000Y-19250000D02*
G75*
G03*
X16295000Y-19250000I-45000J0D01*
G01*
D14*
X13937500Y-15944500D02*
X13937500Y-16044500D01*
X13887500Y-15994500D02*
X13987500Y-15994500D01*
X13937500Y-16198500D02*
X13937500Y-16298500D01*
X13887500Y-16248500D02*
X13987500Y-16248500D01*
X13937500Y-16452500D02*
X13937500Y-16552500D01*
X13887500Y-16502500D02*
X13987500Y-16502500D01*
X13950000Y-8850000D02*
X13950000Y-8950000D01*
X13900000Y-8900000D02*
X14000000Y-8900000D01*
X13950000Y-9104000D02*
X13950000Y-9204000D01*
X13900000Y-9154000D02*
X14000000Y-9154000D01*
X13950000Y-10792000D02*
X13950000Y-10892000D01*
X13900000Y-10842000D02*
X14000000Y-10842000D01*
X13950000Y-11046000D02*
X13950000Y-11146000D01*
X13900000Y-11096000D02*
X14000000Y-11096000D01*
X13950000Y-11300000D02*
X13950000Y-11400000D01*
X13900000Y-11350000D02*
X14000000Y-11350000D01*
X13950000Y-12830000D02*
X13950000Y-12930000D01*
X13900000Y-12880000D02*
X14000000Y-12880000D01*
X13950000Y-14770000D02*
X13950000Y-14870000D01*
X13900000Y-14820000D02*
X14000000Y-14820000D01*
X13950000Y-15024000D02*
X13950000Y-15124000D01*
X13900000Y-15074000D02*
X14000000Y-15074000D01*
X13950000Y-15278000D02*
X13950000Y-15378000D01*
X13900000Y-15328000D02*
X14000000Y-15328000D01*
X15150000Y-21650000D02*
X15150000Y-21750000D01*
X15100000Y-21700000D02*
X15200000Y-21700000D01*
D15*
X15213891Y-20063891D02*
X15213891Y-19986109D01*
X15136109Y-19986109D01*
X15136109Y-20063891D01*
X15213891Y-20063891D01*
X15213891Y-20513891D02*
X15213891Y-20436109D01*
X15136109Y-20436109D01*
X15136109Y-20513891D01*
X15213891Y-20513891D01*
X15863891Y-20063891D02*
X15863891Y-19986109D01*
X15786109Y-19986109D01*
X15786109Y-20063891D01*
X15863891Y-20063891D01*
X15863891Y-20513891D02*
X15863891Y-20436109D01*
X15786109Y-20436109D01*
X15786109Y-20513891D01*
X15863891Y-20513891D01*
D16*
X16466000Y-15396500D02*
X16531000Y-15331500D01*
X16466000Y-15266500D01*
X16401000Y-15331500D01*
X16466000Y-15396500D01*
X9535000Y-6735000D02*
X9665000Y-6865000D01*
X9665000Y-6735000D02*
X9535000Y-6865000D01*
X9665000Y-6800000D02*
G75*
G03*
X9665000Y-6800000I-65000J0D01*
G01*
X9535000Y-7235000D02*
X9665000Y-7365000D01*
X9665000Y-7235000D02*
X9535000Y-7365000D01*
X9665000Y-7300000D02*
G75*
G03*
X9665000Y-7300000I-65000J0D01*
G01*
X10785000Y-6735000D02*
X10915000Y-6865000D01*
X10915000Y-6735000D02*
X10785000Y-6865000D01*
X10915000Y-6800000D02*
G75*
G03*
X10915000Y-6800000I-65000J0D01*
G01*
X10785000Y-7235000D02*
X10915000Y-7365000D01*
X10915000Y-7235000D02*
X10785000Y-7365000D01*
X10915000Y-7300000D02*
G75*
G03*
X10915000Y-7300000I-65000J0D01*
G01*
X14761000Y-6785000D02*
X14891000Y-6915000D01*
X14891000Y-6785000D02*
X14761000Y-6915000D01*
X14891000Y-6850000D02*
G75*
G03*
X14891000Y-6850000I-65000J0D01*
G01*
X14761000Y-7285000D02*
X14891000Y-7415000D01*
X14891000Y-7285000D02*
X14761000Y-7415000D01*
X14891000Y-7350000D02*
G75*
G03*
X14891000Y-7350000I-65000J0D01*
G01*
X16011000Y-6785000D02*
X16141000Y-6915000D01*
X16141000Y-6785000D02*
X16011000Y-6915000D01*
X16141000Y-6850000D02*
G75*
G03*
X16141000Y-6850000I-65000J0D01*
G01*
X16011000Y-7285000D02*
X16141000Y-7415000D01*
X16141000Y-7285000D02*
X16011000Y-7415000D01*
X16141000Y-7350000D02*
G75*
G03*
X16141000Y-7350000I-65000J0D01*
G01*
X20011000Y-6685000D02*
X20141000Y-6815000D01*
X20141000Y-6685000D02*
X20011000Y-6815000D01*
X20141000Y-6750000D02*
G75*
G03*
X20141000Y-6750000I-65000J0D01*
G01*
X20011000Y-7185000D02*
X20141000Y-7315000D01*
X20141000Y-7185000D02*
X20011000Y-7315000D01*
X20141000Y-7250000D02*
G75*
G03*
X20141000Y-7250000I-65000J0D01*
G01*
X21261000Y-6685000D02*
X21391000Y-6815000D01*
X21391000Y-6685000D02*
X21261000Y-6815000D01*
X21391000Y-6750000D02*
G75*
G03*
X21391000Y-6750000I-65000J0D01*
G01*
X21261000Y-7185000D02*
X21391000Y-7315000D01*
X21391000Y-7185000D02*
X21261000Y-7315000D01*
X21391000Y-7250000D02*
G75*
G03*
X21391000Y-7250000I-65000J0D01*
G01*
D11*
X9250119Y-22225976D02*
X9250119Y-22025976D01*
X9297738Y-22025976D01*
X9326310Y-22035500D01*
X9345357Y-22054548D01*
X9354881Y-22073595D01*
X9364405Y-22111690D01*
X9364405Y-22140262D01*
X9354881Y-22178357D01*
X9345357Y-22197405D01*
X9326310Y-22216452D01*
X9297738Y-22225976D01*
X9250119Y-22225976D01*
X9450119Y-22225976D02*
X9450119Y-22092643D01*
X9450119Y-22130738D02*
X9459643Y-22111690D01*
X9469167Y-22102167D01*
X9488214Y-22092643D01*
X9507262Y-22092643D01*
X9573929Y-22225976D02*
X9573929Y-22092643D01*
X9573929Y-22025976D02*
X9564405Y-22035500D01*
X9573929Y-22045024D01*
X9583452Y-22035500D01*
X9573929Y-22025976D01*
X9573929Y-22045024D01*
X9697738Y-22225976D02*
X9678690Y-22216452D01*
X9669167Y-22197405D01*
X9669167Y-22025976D01*
X9802500Y-22225976D02*
X9783452Y-22216452D01*
X9773929Y-22197405D01*
X9773929Y-22025976D01*
X10031071Y-22225976D02*
X10031071Y-22025976D01*
X10097738Y-22168833D01*
X10164405Y-22025976D01*
X10164405Y-22225976D01*
X10345357Y-22225976D02*
X10345357Y-22121214D01*
X10335833Y-22102167D01*
X10316786Y-22092643D01*
X10278690Y-22092643D01*
X10259643Y-22102167D01*
X10345357Y-22216452D02*
X10326310Y-22225976D01*
X10278690Y-22225976D01*
X10259643Y-22216452D01*
X10250119Y-22197405D01*
X10250119Y-22178357D01*
X10259643Y-22159310D01*
X10278690Y-22149786D01*
X10326310Y-22149786D01*
X10345357Y-22140262D01*
X10440595Y-22092643D02*
X10440595Y-22292643D01*
X10440595Y-22102167D02*
X10459643Y-22092643D01*
X10497738Y-22092643D01*
X10516786Y-22102167D01*
X10526310Y-22111690D01*
X10535833Y-22130738D01*
X10535833Y-22187881D01*
X10526310Y-22206929D01*
X10516786Y-22216452D01*
X10497738Y-22225976D01*
X10459643Y-22225976D01*
X10440595Y-22216452D01*
X10621548Y-22206929D02*
X10631071Y-22216452D01*
X10621548Y-22225976D01*
X10612024Y-22216452D01*
X10621548Y-22206929D01*
X10621548Y-22225976D01*
X10621548Y-22102167D02*
X10631071Y-22111690D01*
X10621548Y-22121214D01*
X10612024Y-22111690D01*
X10621548Y-22102167D01*
X10621548Y-22121214D01*
D12*
X8912500Y-22515500D02*
X8992500Y-22595500D01*
X8992500Y-22515500D02*
X8912500Y-22595500D01*
D11*
X9288214Y-22445976D02*
X9307262Y-22445976D01*
X9326310Y-22455500D01*
X9335833Y-22465024D01*
X9345357Y-22484071D01*
X9354881Y-22522167D01*
X9354881Y-22569786D01*
X9345357Y-22607881D01*
X9335833Y-22626928D01*
X9326310Y-22636452D01*
X9307262Y-22645976D01*
X9288214Y-22645976D01*
X9269167Y-22636452D01*
X9259643Y-22626928D01*
X9250119Y-22607881D01*
X9240595Y-22569786D01*
X9240595Y-22522167D01*
X9250119Y-22484071D01*
X9259643Y-22465024D01*
X9269167Y-22455500D01*
X9288214Y-22445976D01*
X9440595Y-22626928D02*
X9450119Y-22636452D01*
X9440595Y-22645976D01*
X9431071Y-22636452D01*
X9440595Y-22626928D01*
X9440595Y-22645976D01*
X9564405Y-22531690D02*
X9545357Y-22522167D01*
X9535833Y-22512643D01*
X9526310Y-22493595D01*
X9526310Y-22484071D01*
X9535833Y-22465024D01*
X9545357Y-22455500D01*
X9564405Y-22445976D01*
X9602500Y-22445976D01*
X9621548Y-22455500D01*
X9631071Y-22465024D01*
X9640595Y-22484071D01*
X9640595Y-22493595D01*
X9631071Y-22512643D01*
X9621548Y-22522167D01*
X9602500Y-22531690D01*
X9564405Y-22531690D01*
X9545357Y-22541214D01*
X9535833Y-22550738D01*
X9526310Y-22569786D01*
X9526310Y-22607881D01*
X9535833Y-22626928D01*
X9545357Y-22636452D01*
X9564405Y-22645976D01*
X9602500Y-22645976D01*
X9621548Y-22636452D01*
X9631071Y-22626928D01*
X9640595Y-22607881D01*
X9640595Y-22569786D01*
X9631071Y-22550738D01*
X9621548Y-22541214D01*
X9602500Y-22531690D01*
X9764405Y-22445976D02*
X9783452Y-22445976D01*
X9802500Y-22455500D01*
X9812024Y-22465024D01*
X9821548Y-22484071D01*
X9831071Y-22522167D01*
X9831071Y-22569786D01*
X9821548Y-22607881D01*
X9812024Y-22626928D01*
X9802500Y-22636452D01*
X9783452Y-22645976D01*
X9764405Y-22645976D01*
X9745357Y-22636452D01*
X9735833Y-22626928D01*
X9726310Y-22607881D01*
X9716786Y-22569786D01*
X9716786Y-22522167D01*
X9726310Y-22484071D01*
X9735833Y-22465024D01*
X9745357Y-22455500D01*
X9764405Y-22445976D01*
X9954881Y-22445976D02*
X9973929Y-22445976D01*
X9992976Y-22455500D01*
X10002500Y-22465024D01*
X10012024Y-22484071D01*
X10021548Y-22522167D01*
X10021548Y-22569786D01*
X10012024Y-22607881D01*
X10002500Y-22626928D01*
X9992976Y-22636452D01*
X9973929Y-22645976D01*
X9954881Y-22645976D01*
X9935833Y-22636452D01*
X9926310Y-22626928D01*
X9916786Y-22607881D01*
X9907262Y-22569786D01*
X9907262Y-22522167D01*
X9916786Y-22484071D01*
X9926310Y-22465024D01*
X9935833Y-22455500D01*
X9954881Y-22445976D01*
X10107262Y-22645976D02*
X10107262Y-22512643D01*
X10107262Y-22531690D02*
X10116786Y-22522167D01*
X10135833Y-22512643D01*
X10164405Y-22512643D01*
X10183452Y-22522167D01*
X10192976Y-22541214D01*
X10192976Y-22645976D01*
X10192976Y-22541214D02*
X10202500Y-22522167D01*
X10221548Y-22512643D01*
X10250119Y-22512643D01*
X10269167Y-22522167D01*
X10278690Y-22541214D01*
X10278690Y-22645976D01*
X10373929Y-22645976D02*
X10373929Y-22512643D01*
X10373929Y-22531690D02*
X10383452Y-22522167D01*
X10402500Y-22512643D01*
X10431071Y-22512643D01*
X10450119Y-22522167D01*
X10459643Y-22541214D01*
X10459643Y-22645976D01*
X10459643Y-22541214D02*
X10469167Y-22522167D01*
X10488214Y-22512643D01*
X10516786Y-22512643D01*
X10535833Y-22522167D01*
X10545357Y-22541214D01*
X10545357Y-22645976D01*
X10935833Y-22436452D02*
X10764405Y-22693595D01*
X11192976Y-22445976D02*
X11212024Y-22445976D01*
X11231071Y-22455500D01*
X11240595Y-22465024D01*
X11250119Y-22484071D01*
X11259643Y-22522167D01*
X11259643Y-22569786D01*
X11250119Y-22607881D01*
X11240595Y-22626928D01*
X11231071Y-22636452D01*
X11212024Y-22645976D01*
X11192976Y-22645976D01*
X11173929Y-22636452D01*
X11164405Y-22626928D01*
X11154881Y-22607881D01*
X11145357Y-22569786D01*
X11145357Y-22522167D01*
X11154881Y-22484071D01*
X11164405Y-22465024D01*
X11173929Y-22455500D01*
X11192976Y-22445976D01*
X11345357Y-22626928D02*
X11354881Y-22636452D01*
X11345357Y-22645976D01*
X11335833Y-22636452D01*
X11345357Y-22626928D01*
X11345357Y-22645976D01*
X11478690Y-22445976D02*
X11497738Y-22445976D01*
X11516786Y-22455500D01*
X11526309Y-22465024D01*
X11535833Y-22484071D01*
X11545357Y-22522167D01*
X11545357Y-22569786D01*
X11535833Y-22607881D01*
X11526309Y-22626928D01*
X11516786Y-22636452D01*
X11497738Y-22645976D01*
X11478690Y-22645976D01*
X11459643Y-22636452D01*
X11450119Y-22626928D01*
X11440595Y-22607881D01*
X11431071Y-22569786D01*
X11431071Y-22522167D01*
X11440595Y-22484071D01*
X11450119Y-22465024D01*
X11459643Y-22455500D01*
X11478690Y-22445976D01*
X11612024Y-22445976D02*
X11735833Y-22445976D01*
X11669167Y-22522167D01*
X11697738Y-22522167D01*
X11716786Y-22531690D01*
X11726309Y-22541214D01*
X11735833Y-22560262D01*
X11735833Y-22607881D01*
X11726309Y-22626928D01*
X11716786Y-22636452D01*
X11697738Y-22645976D01*
X11640595Y-22645976D01*
X11621548Y-22636452D01*
X11612024Y-22626928D01*
X11926309Y-22645976D02*
X11812024Y-22645976D01*
X11869167Y-22645976D02*
X11869167Y-22445976D01*
X11850119Y-22474548D01*
X11831071Y-22493595D01*
X11812024Y-22503119D01*
X12107262Y-22445976D02*
X12012024Y-22445976D01*
X12002500Y-22541214D01*
X12012024Y-22531690D01*
X12031071Y-22522167D01*
X12078690Y-22522167D01*
X12097738Y-22531690D01*
X12107262Y-22541214D01*
X12116786Y-22560262D01*
X12116786Y-22607881D01*
X12107262Y-22626928D01*
X12097738Y-22636452D01*
X12078690Y-22645976D01*
X12031071Y-22645976D01*
X12012024Y-22636452D01*
X12002500Y-22626928D01*
X12192976Y-22445976D02*
X12192976Y-22484071D01*
X12269167Y-22445976D02*
X12269167Y-22484071D01*
X12564405Y-22722167D02*
X12554881Y-22712643D01*
X12535833Y-22684071D01*
X12526309Y-22665024D01*
X12516786Y-22636452D01*
X12507262Y-22588833D01*
X12507262Y-22550738D01*
X12516786Y-22503119D01*
X12526309Y-22474548D01*
X12535833Y-22455500D01*
X12554881Y-22426928D01*
X12564405Y-22417405D01*
X12726309Y-22512643D02*
X12726309Y-22645976D01*
X12678690Y-22436452D02*
X12631071Y-22579309D01*
X12754881Y-22579309D01*
X12916786Y-22512643D02*
X12916786Y-22645976D01*
X12869167Y-22436452D02*
X12821548Y-22579309D01*
X12945357Y-22579309D01*
X13173928Y-22645976D02*
X13173928Y-22445976D01*
X13259643Y-22645976D02*
X13259643Y-22541214D01*
X13250119Y-22522167D01*
X13231071Y-22512643D01*
X13202500Y-22512643D01*
X13183452Y-22522167D01*
X13173928Y-22531690D01*
X13383452Y-22645976D02*
X13364405Y-22636452D01*
X13354881Y-22626928D01*
X13345357Y-22607881D01*
X13345357Y-22550738D01*
X13354881Y-22531690D01*
X13364405Y-22522167D01*
X13383452Y-22512643D01*
X13412024Y-22512643D01*
X13431071Y-22522167D01*
X13440595Y-22531690D01*
X13450119Y-22550738D01*
X13450119Y-22607881D01*
X13440595Y-22626928D01*
X13431071Y-22636452D01*
X13412024Y-22645976D01*
X13383452Y-22645976D01*
X13564405Y-22645976D02*
X13545357Y-22636452D01*
X13535833Y-22617405D01*
X13535833Y-22445976D01*
X13716786Y-22636452D02*
X13697738Y-22645976D01*
X13659643Y-22645976D01*
X13640595Y-22636452D01*
X13631071Y-22617405D01*
X13631071Y-22541214D01*
X13640595Y-22522167D01*
X13659643Y-22512643D01*
X13697738Y-22512643D01*
X13716786Y-22522167D01*
X13726309Y-22541214D01*
X13726309Y-22560262D01*
X13631071Y-22579309D01*
X13802500Y-22636452D02*
X13821548Y-22645976D01*
X13859643Y-22645976D01*
X13878690Y-22636452D01*
X13888214Y-22617405D01*
X13888214Y-22607881D01*
X13878690Y-22588833D01*
X13859643Y-22579309D01*
X13831071Y-22579309D01*
X13812024Y-22569786D01*
X13802500Y-22550738D01*
X13802500Y-22541214D01*
X13812024Y-22522167D01*
X13831071Y-22512643D01*
X13859643Y-22512643D01*
X13878690Y-22522167D01*
X13954881Y-22722167D02*
X13964405Y-22712643D01*
X13983452Y-22684071D01*
X13992976Y-22665024D01*
X14002500Y-22636452D01*
X14012024Y-22588833D01*
X14012024Y-22550738D01*
X14002500Y-22503119D01*
X13992976Y-22474548D01*
X13983452Y-22455500D01*
X13964405Y-22426928D01*
X13954881Y-22417405D01*
D13*
X8992500Y-22819500D02*
G75*
G03*
X8992500Y-22819500I-45000J0D01*
G01*
D11*
X9288214Y-22709976D02*
X9307262Y-22709976D01*
X9326310Y-22719500D01*
X9335833Y-22729024D01*
X9345357Y-22748071D01*
X9354881Y-22786167D01*
X9354881Y-22833786D01*
X9345357Y-22871881D01*
X9335833Y-22890928D01*
X9326310Y-22900452D01*
X9307262Y-22909976D01*
X9288214Y-22909976D01*
X9269167Y-22900452D01*
X9259643Y-22890928D01*
X9250119Y-22871881D01*
X9240595Y-22833786D01*
X9240595Y-22786167D01*
X9250119Y-22748071D01*
X9259643Y-22729024D01*
X9269167Y-22719500D01*
X9288214Y-22709976D01*
X9440595Y-22890928D02*
X9450119Y-22900452D01*
X9440595Y-22909976D01*
X9431071Y-22900452D01*
X9440595Y-22890928D01*
X9440595Y-22909976D01*
X9545357Y-22909976D02*
X9583452Y-22909976D01*
X9602500Y-22900452D01*
X9612024Y-22890928D01*
X9631071Y-22862357D01*
X9640595Y-22824262D01*
X9640595Y-22748071D01*
X9631071Y-22729024D01*
X9621548Y-22719500D01*
X9602500Y-22709976D01*
X9564405Y-22709976D01*
X9545357Y-22719500D01*
X9535833Y-22729024D01*
X9526310Y-22748071D01*
X9526310Y-22795690D01*
X9535833Y-22814738D01*
X9545357Y-22824262D01*
X9564405Y-22833786D01*
X9602500Y-22833786D01*
X9621548Y-22824262D01*
X9631071Y-22814738D01*
X9640595Y-22795690D01*
X9764405Y-22709976D02*
X9783452Y-22709976D01*
X9802500Y-22719500D01*
X9812024Y-22729024D01*
X9821548Y-22748071D01*
X9831071Y-22786167D01*
X9831071Y-22833786D01*
X9821548Y-22871881D01*
X9812024Y-22890928D01*
X9802500Y-22900452D01*
X9783452Y-22909976D01*
X9764405Y-22909976D01*
X9745357Y-22900452D01*
X9735833Y-22890928D01*
X9726310Y-22871881D01*
X9716786Y-22833786D01*
X9716786Y-22786167D01*
X9726310Y-22748071D01*
X9735833Y-22729024D01*
X9745357Y-22719500D01*
X9764405Y-22709976D01*
X9954881Y-22709976D02*
X9973929Y-22709976D01*
X9992976Y-22719500D01*
X10002500Y-22729024D01*
X10012024Y-22748071D01*
X10021548Y-22786167D01*
X10021548Y-22833786D01*
X10012024Y-22871881D01*
X10002500Y-22890928D01*
X9992976Y-22900452D01*
X9973929Y-22909976D01*
X9954881Y-22909976D01*
X9935833Y-22900452D01*
X9926310Y-22890928D01*
X9916786Y-22871881D01*
X9907262Y-22833786D01*
X9907262Y-22786167D01*
X9916786Y-22748071D01*
X9926310Y-22729024D01*
X9935833Y-22719500D01*
X9954881Y-22709976D01*
X10107262Y-22909976D02*
X10107262Y-22776643D01*
X10107262Y-22795690D02*
X10116786Y-22786167D01*
X10135833Y-22776643D01*
X10164405Y-22776643D01*
X10183452Y-22786167D01*
X10192976Y-22805214D01*
X10192976Y-22909976D01*
X10192976Y-22805214D02*
X10202500Y-22786167D01*
X10221548Y-22776643D01*
X10250119Y-22776643D01*
X10269167Y-22786167D01*
X10278690Y-22805214D01*
X10278690Y-22909976D01*
X10373929Y-22909976D02*
X10373929Y-22776643D01*
X10373929Y-22795690D02*
X10383452Y-22786167D01*
X10402500Y-22776643D01*
X10431071Y-22776643D01*
X10450119Y-22786167D01*
X10459643Y-22805214D01*
X10459643Y-22909976D01*
X10459643Y-22805214D02*
X10469167Y-22786167D01*
X10488214Y-22776643D01*
X10516786Y-22776643D01*
X10535833Y-22786167D01*
X10545357Y-22805214D01*
X10545357Y-22909976D01*
X10935833Y-22700452D02*
X10764405Y-22957595D01*
X11192976Y-22709976D02*
X11212024Y-22709976D01*
X11231071Y-22719500D01*
X11240595Y-22729024D01*
X11250119Y-22748071D01*
X11259643Y-22786167D01*
X11259643Y-22833786D01*
X11250119Y-22871881D01*
X11240595Y-22890928D01*
X11231071Y-22900452D01*
X11212024Y-22909976D01*
X11192976Y-22909976D01*
X11173929Y-22900452D01*
X11164405Y-22890928D01*
X11154881Y-22871881D01*
X11145357Y-22833786D01*
X11145357Y-22786167D01*
X11154881Y-22748071D01*
X11164405Y-22729024D01*
X11173929Y-22719500D01*
X11192976Y-22709976D01*
X11345357Y-22890928D02*
X11354881Y-22900452D01*
X11345357Y-22909976D01*
X11335833Y-22900452D01*
X11345357Y-22890928D01*
X11345357Y-22909976D01*
X11478690Y-22709976D02*
X11497738Y-22709976D01*
X11516786Y-22719500D01*
X11526309Y-22729024D01*
X11535833Y-22748071D01*
X11545357Y-22786167D01*
X11545357Y-22833786D01*
X11535833Y-22871881D01*
X11526309Y-22890928D01*
X11516786Y-22900452D01*
X11497738Y-22909976D01*
X11478690Y-22909976D01*
X11459643Y-22900452D01*
X11450119Y-22890928D01*
X11440595Y-22871881D01*
X11431071Y-22833786D01*
X11431071Y-22786167D01*
X11440595Y-22748071D01*
X11450119Y-22729024D01*
X11459643Y-22719500D01*
X11478690Y-22709976D01*
X11612024Y-22709976D02*
X11735833Y-22709976D01*
X11669167Y-22786167D01*
X11697738Y-22786167D01*
X11716786Y-22795690D01*
X11726309Y-22805214D01*
X11735833Y-22824262D01*
X11735833Y-22871881D01*
X11726309Y-22890928D01*
X11716786Y-22900452D01*
X11697738Y-22909976D01*
X11640595Y-22909976D01*
X11621548Y-22900452D01*
X11612024Y-22890928D01*
X11916786Y-22709976D02*
X11821548Y-22709976D01*
X11812024Y-22805214D01*
X11821548Y-22795690D01*
X11840595Y-22786167D01*
X11888214Y-22786167D01*
X11907262Y-22795690D01*
X11916786Y-22805214D01*
X11926309Y-22824262D01*
X11926309Y-22871881D01*
X11916786Y-22890928D01*
X11907262Y-22900452D01*
X11888214Y-22909976D01*
X11840595Y-22909976D01*
X11821548Y-22900452D01*
X11812024Y-22890928D01*
X12097738Y-22776643D02*
X12097738Y-22909976D01*
X12050119Y-22700452D02*
X12002500Y-22843309D01*
X12126309Y-22843309D01*
X12192976Y-22709976D02*
X12192976Y-22748071D01*
X12269167Y-22709976D02*
X12269167Y-22748071D01*
X12564405Y-22986167D02*
X12554881Y-22976643D01*
X12535833Y-22948071D01*
X12526309Y-22929024D01*
X12516786Y-22900452D01*
X12507262Y-22852833D01*
X12507262Y-22814738D01*
X12516786Y-22767119D01*
X12526309Y-22738548D01*
X12535833Y-22719500D01*
X12554881Y-22690928D01*
X12564405Y-22681405D01*
X12726309Y-22709976D02*
X12688214Y-22709976D01*
X12669167Y-22719500D01*
X12659643Y-22729024D01*
X12640595Y-22757595D01*
X12631071Y-22795690D01*
X12631071Y-22871881D01*
X12640595Y-22890928D01*
X12650119Y-22900452D01*
X12669167Y-22909976D01*
X12707262Y-22909976D01*
X12726309Y-22900452D01*
X12735833Y-22890928D01*
X12745357Y-22871881D01*
X12745357Y-22824262D01*
X12735833Y-22805214D01*
X12726309Y-22795690D01*
X12707262Y-22786167D01*
X12669167Y-22786167D01*
X12650119Y-22795690D01*
X12640595Y-22805214D01*
X12631071Y-22824262D01*
X12983452Y-22909976D02*
X12983452Y-22709976D01*
X13069167Y-22909976D02*
X13069167Y-22805214D01*
X13059643Y-22786167D01*
X13040595Y-22776643D01*
X13012024Y-22776643D01*
X12992976Y-22786167D01*
X12983452Y-22795690D01*
X13192976Y-22909976D02*
X13173928Y-22900452D01*
X13164405Y-22890928D01*
X13154881Y-22871881D01*
X13154881Y-22814738D01*
X13164405Y-22795690D01*
X13173928Y-22786167D01*
X13192976Y-22776643D01*
X13221548Y-22776643D01*
X13240595Y-22786167D01*
X13250119Y-22795690D01*
X13259643Y-22814738D01*
X13259643Y-22871881D01*
X13250119Y-22890928D01*
X13240595Y-22900452D01*
X13221548Y-22909976D01*
X13192976Y-22909976D01*
X13373928Y-22909976D02*
X13354881Y-22900452D01*
X13345357Y-22881405D01*
X13345357Y-22709976D01*
X13526309Y-22900452D02*
X13507262Y-22909976D01*
X13469167Y-22909976D01*
X13450119Y-22900452D01*
X13440595Y-22881405D01*
X13440595Y-22805214D01*
X13450119Y-22786167D01*
X13469167Y-22776643D01*
X13507262Y-22776643D01*
X13526309Y-22786167D01*
X13535833Y-22805214D01*
X13535833Y-22824262D01*
X13440595Y-22843309D01*
X13612024Y-22900452D02*
X13631071Y-22909976D01*
X13669167Y-22909976D01*
X13688214Y-22900452D01*
X13697738Y-22881405D01*
X13697738Y-22871881D01*
X13688214Y-22852833D01*
X13669167Y-22843309D01*
X13640595Y-22843309D01*
X13621548Y-22833786D01*
X13612024Y-22814738D01*
X13612024Y-22805214D01*
X13621548Y-22786167D01*
X13640595Y-22776643D01*
X13669167Y-22776643D01*
X13688214Y-22786167D01*
X13764405Y-22986167D02*
X13773928Y-22976643D01*
X13792976Y-22948071D01*
X13802500Y-22929024D01*
X13812024Y-22900452D01*
X13821548Y-22852833D01*
X13821548Y-22814738D01*
X13812024Y-22767119D01*
X13802500Y-22738548D01*
X13792976Y-22719500D01*
X13773928Y-22690928D01*
X13764405Y-22681405D01*
D14*
X8942500Y-23033500D02*
X8942500Y-23133500D01*
X8892500Y-23083500D02*
X8992500Y-23083500D01*
D11*
X9354881Y-23173976D02*
X9240595Y-23173976D01*
X9297738Y-23173976D02*
X9297738Y-22973976D01*
X9278690Y-23002548D01*
X9259643Y-23021595D01*
X9240595Y-23031119D01*
X9440595Y-23154928D02*
X9450119Y-23164452D01*
X9440595Y-23173976D01*
X9431071Y-23164452D01*
X9440595Y-23154928D01*
X9440595Y-23173976D01*
X9573929Y-22973976D02*
X9592976Y-22973976D01*
X9612024Y-22983500D01*
X9621548Y-22993024D01*
X9631071Y-23012071D01*
X9640595Y-23050167D01*
X9640595Y-23097786D01*
X9631071Y-23135881D01*
X9621548Y-23154928D01*
X9612024Y-23164452D01*
X9592976Y-23173976D01*
X9573929Y-23173976D01*
X9554881Y-23164452D01*
X9545357Y-23154928D01*
X9535833Y-23135881D01*
X9526310Y-23097786D01*
X9526310Y-23050167D01*
X9535833Y-23012071D01*
X9545357Y-22993024D01*
X9554881Y-22983500D01*
X9573929Y-22973976D01*
X9764405Y-22973976D02*
X9783452Y-22973976D01*
X9802500Y-22983500D01*
X9812024Y-22993024D01*
X9821548Y-23012071D01*
X9831071Y-23050167D01*
X9831071Y-23097786D01*
X9821548Y-23135881D01*
X9812024Y-23154928D01*
X9802500Y-23164452D01*
X9783452Y-23173976D01*
X9764405Y-23173976D01*
X9745357Y-23164452D01*
X9735833Y-23154928D01*
X9726310Y-23135881D01*
X9716786Y-23097786D01*
X9716786Y-23050167D01*
X9726310Y-23012071D01*
X9735833Y-22993024D01*
X9745357Y-22983500D01*
X9764405Y-22973976D01*
X9954881Y-22973976D02*
X9973929Y-22973976D01*
X9992976Y-22983500D01*
X10002500Y-22993024D01*
X10012024Y-23012071D01*
X10021548Y-23050167D01*
X10021548Y-23097786D01*
X10012024Y-23135881D01*
X10002500Y-23154928D01*
X9992976Y-23164452D01*
X9973929Y-23173976D01*
X9954881Y-23173976D01*
X9935833Y-23164452D01*
X9926310Y-23154928D01*
X9916786Y-23135881D01*
X9907262Y-23097786D01*
X9907262Y-23050167D01*
X9916786Y-23012071D01*
X9926310Y-22993024D01*
X9935833Y-22983500D01*
X9954881Y-22973976D01*
X10107262Y-23173976D02*
X10107262Y-23040643D01*
X10107262Y-23059690D02*
X10116786Y-23050167D01*
X10135833Y-23040643D01*
X10164405Y-23040643D01*
X10183452Y-23050167D01*
X10192976Y-23069214D01*
X10192976Y-23173976D01*
X10192976Y-23069214D02*
X10202500Y-23050167D01*
X10221548Y-23040643D01*
X10250119Y-23040643D01*
X10269167Y-23050167D01*
X10278690Y-23069214D01*
X10278690Y-23173976D01*
X10373929Y-23173976D02*
X10373929Y-23040643D01*
X10373929Y-23059690D02*
X10383452Y-23050167D01*
X10402500Y-23040643D01*
X10431071Y-23040643D01*
X10450119Y-23050167D01*
X10459643Y-23069214D01*
X10459643Y-23173976D01*
X10459643Y-23069214D02*
X10469167Y-23050167D01*
X10488214Y-23040643D01*
X10516786Y-23040643D01*
X10535833Y-23050167D01*
X10545357Y-23069214D01*
X10545357Y-23173976D01*
X10935833Y-22964452D02*
X10764405Y-23221595D01*
X11192976Y-22973976D02*
X11212024Y-22973976D01*
X11231071Y-22983500D01*
X11240595Y-22993024D01*
X11250119Y-23012071D01*
X11259643Y-23050167D01*
X11259643Y-23097786D01*
X11250119Y-23135881D01*
X11240595Y-23154928D01*
X11231071Y-23164452D01*
X11212024Y-23173976D01*
X11192976Y-23173976D01*
X11173929Y-23164452D01*
X11164405Y-23154928D01*
X11154881Y-23135881D01*
X11145357Y-23097786D01*
X11145357Y-23050167D01*
X11154881Y-23012071D01*
X11164405Y-22993024D01*
X11173929Y-22983500D01*
X11192976Y-22973976D01*
X11345357Y-23154928D02*
X11354881Y-23164452D01*
X11345357Y-23173976D01*
X11335833Y-23164452D01*
X11345357Y-23154928D01*
X11345357Y-23173976D01*
X11478690Y-22973976D02*
X11497738Y-22973976D01*
X11516786Y-22983500D01*
X11526309Y-22993024D01*
X11535833Y-23012071D01*
X11545357Y-23050167D01*
X11545357Y-23097786D01*
X11535833Y-23135881D01*
X11526309Y-23154928D01*
X11516786Y-23164452D01*
X11497738Y-23173976D01*
X11478690Y-23173976D01*
X11459643Y-23164452D01*
X11450119Y-23154928D01*
X11440595Y-23135881D01*
X11431071Y-23097786D01*
X11431071Y-23050167D01*
X11440595Y-23012071D01*
X11450119Y-22993024D01*
X11459643Y-22983500D01*
X11478690Y-22973976D01*
X11612024Y-22973976D02*
X11735833Y-22973976D01*
X11669167Y-23050167D01*
X11697738Y-23050167D01*
X11716786Y-23059690D01*
X11726309Y-23069214D01*
X11735833Y-23088262D01*
X11735833Y-23135881D01*
X11726309Y-23154928D01*
X11716786Y-23164452D01*
X11697738Y-23173976D01*
X11640595Y-23173976D01*
X11621548Y-23164452D01*
X11612024Y-23154928D01*
X11831071Y-23173976D02*
X11869167Y-23173976D01*
X11888214Y-23164452D01*
X11897738Y-23154928D01*
X11916786Y-23126357D01*
X11926309Y-23088262D01*
X11926309Y-23012071D01*
X11916786Y-22993024D01*
X11907262Y-22983500D01*
X11888214Y-22973976D01*
X11850119Y-22973976D01*
X11831071Y-22983500D01*
X11821548Y-22993024D01*
X11812024Y-23012071D01*
X11812024Y-23059690D01*
X11821548Y-23078738D01*
X11831071Y-23088262D01*
X11850119Y-23097786D01*
X11888214Y-23097786D01*
X11907262Y-23088262D01*
X11916786Y-23078738D01*
X11926309Y-23059690D01*
X12097738Y-23040643D02*
X12097738Y-23173976D01*
X12050119Y-22964452D02*
X12002500Y-23107309D01*
X12126309Y-23107309D01*
X12192976Y-22973976D02*
X12192976Y-23012071D01*
X12269167Y-22973976D02*
X12269167Y-23012071D01*
X12564405Y-23250167D02*
X12554881Y-23240643D01*
X12535833Y-23212071D01*
X12526309Y-23193024D01*
X12516786Y-23164452D01*
X12507262Y-23116833D01*
X12507262Y-23078738D01*
X12516786Y-23031119D01*
X12526309Y-23002548D01*
X12535833Y-22983500D01*
X12554881Y-22954928D01*
X12564405Y-22945405D01*
X12745357Y-23173976D02*
X12631071Y-23173976D01*
X12688214Y-23173976D02*
X12688214Y-22973976D01*
X12669167Y-23002548D01*
X12650119Y-23021595D01*
X12631071Y-23031119D01*
X12812024Y-22973976D02*
X12935833Y-22973976D01*
X12869167Y-23050167D01*
X12897738Y-23050167D01*
X12916786Y-23059690D01*
X12926309Y-23069214D01*
X12935833Y-23088262D01*
X12935833Y-23135881D01*
X12926309Y-23154928D01*
X12916786Y-23164452D01*
X12897738Y-23173976D01*
X12840595Y-23173976D01*
X12821548Y-23164452D01*
X12812024Y-23154928D01*
X13173928Y-23173976D02*
X13173928Y-22973976D01*
X13259643Y-23173976D02*
X13259643Y-23069214D01*
X13250119Y-23050167D01*
X13231071Y-23040643D01*
X13202500Y-23040643D01*
X13183452Y-23050167D01*
X13173928Y-23059690D01*
X13383452Y-23173976D02*
X13364405Y-23164452D01*
X13354881Y-23154928D01*
X13345357Y-23135881D01*
X13345357Y-23078738D01*
X13354881Y-23059690D01*
X13364405Y-23050167D01*
X13383452Y-23040643D01*
X13412024Y-23040643D01*
X13431071Y-23050167D01*
X13440595Y-23059690D01*
X13450119Y-23078738D01*
X13450119Y-23135881D01*
X13440595Y-23154928D01*
X13431071Y-23164452D01*
X13412024Y-23173976D01*
X13383452Y-23173976D01*
X13564405Y-23173976D02*
X13545357Y-23164452D01*
X13535833Y-23145405D01*
X13535833Y-22973976D01*
X13716786Y-23164452D02*
X13697738Y-23173976D01*
X13659643Y-23173976D01*
X13640595Y-23164452D01*
X13631071Y-23145405D01*
X13631071Y-23069214D01*
X13640595Y-23050167D01*
X13659643Y-23040643D01*
X13697738Y-23040643D01*
X13716786Y-23050167D01*
X13726309Y-23069214D01*
X13726309Y-23088262D01*
X13631071Y-23107309D01*
X13802500Y-23164452D02*
X13821548Y-23173976D01*
X13859643Y-23173976D01*
X13878690Y-23164452D01*
X13888214Y-23145405D01*
X13888214Y-23135881D01*
X13878690Y-23116833D01*
X13859643Y-23107309D01*
X13831071Y-23107309D01*
X13812024Y-23097786D01*
X13802500Y-23078738D01*
X13802500Y-23069214D01*
X13812024Y-23050167D01*
X13831071Y-23040643D01*
X13859643Y-23040643D01*
X13878690Y-23050167D01*
X13954881Y-23250167D02*
X13964405Y-23240643D01*
X13983452Y-23212071D01*
X13992976Y-23193024D01*
X14002500Y-23164452D01*
X14012024Y-23116833D01*
X14012024Y-23078738D01*
X14002500Y-23031119D01*
X13992976Y-23002548D01*
X13983452Y-22983500D01*
X13964405Y-22954928D01*
X13954881Y-22945405D01*
D15*
X8976391Y-23386391D02*
X8976391Y-23308609D01*
X8898609Y-23308609D01*
X8898609Y-23386391D01*
X8976391Y-23386391D01*
D11*
X9354881Y-23437976D02*
X9240595Y-23437976D01*
X9297738Y-23437976D02*
X9297738Y-23237976D01*
X9278690Y-23266548D01*
X9259643Y-23285595D01*
X9240595Y-23295119D01*
X9440595Y-23418928D02*
X9450119Y-23428452D01*
X9440595Y-23437976D01*
X9431071Y-23428452D01*
X9440595Y-23418928D01*
X9440595Y-23437976D01*
X9640595Y-23437976D02*
X9526310Y-23437976D01*
X9583452Y-23437976D02*
X9583452Y-23237976D01*
X9564405Y-23266548D01*
X9545357Y-23285595D01*
X9526310Y-23295119D01*
X9764405Y-23237976D02*
X9783452Y-23237976D01*
X9802500Y-23247500D01*
X9812024Y-23257024D01*
X9821548Y-23276071D01*
X9831071Y-23314167D01*
X9831071Y-23361786D01*
X9821548Y-23399881D01*
X9812024Y-23418928D01*
X9802500Y-23428452D01*
X9783452Y-23437976D01*
X9764405Y-23437976D01*
X9745357Y-23428452D01*
X9735833Y-23418928D01*
X9726310Y-23399881D01*
X9716786Y-23361786D01*
X9716786Y-23314167D01*
X9726310Y-23276071D01*
X9735833Y-23257024D01*
X9745357Y-23247500D01*
X9764405Y-23237976D01*
X9954881Y-23237976D02*
X9973929Y-23237976D01*
X9992976Y-23247500D01*
X10002500Y-23257024D01*
X10012024Y-23276071D01*
X10021548Y-23314167D01*
X10021548Y-23361786D01*
X10012024Y-23399881D01*
X10002500Y-23418928D01*
X9992976Y-23428452D01*
X9973929Y-23437976D01*
X9954881Y-23437976D01*
X9935833Y-23428452D01*
X9926310Y-23418928D01*
X9916786Y-23399881D01*
X9907262Y-23361786D01*
X9907262Y-23314167D01*
X9916786Y-23276071D01*
X9926310Y-23257024D01*
X9935833Y-23247500D01*
X9954881Y-23237976D01*
X10107262Y-23437976D02*
X10107262Y-23304643D01*
X10107262Y-23323690D02*
X10116786Y-23314167D01*
X10135833Y-23304643D01*
X10164405Y-23304643D01*
X10183452Y-23314167D01*
X10192976Y-23333214D01*
X10192976Y-23437976D01*
X10192976Y-23333214D02*
X10202500Y-23314167D01*
X10221548Y-23304643D01*
X10250119Y-23304643D01*
X10269167Y-23314167D01*
X10278690Y-23333214D01*
X10278690Y-23437976D01*
X10373929Y-23437976D02*
X10373929Y-23304643D01*
X10373929Y-23323690D02*
X10383452Y-23314167D01*
X10402500Y-23304643D01*
X10431071Y-23304643D01*
X10450119Y-23314167D01*
X10459643Y-23333214D01*
X10459643Y-23437976D01*
X10459643Y-23333214D02*
X10469167Y-23314167D01*
X10488214Y-23304643D01*
X10516786Y-23304643D01*
X10535833Y-23314167D01*
X10545357Y-23333214D01*
X10545357Y-23437976D01*
X10935833Y-23228452D02*
X10764405Y-23485595D01*
X11192976Y-23237976D02*
X11212024Y-23237976D01*
X11231071Y-23247500D01*
X11240595Y-23257024D01*
X11250119Y-23276071D01*
X11259643Y-23314167D01*
X11259643Y-23361786D01*
X11250119Y-23399881D01*
X11240595Y-23418928D01*
X11231071Y-23428452D01*
X11212024Y-23437976D01*
X11192976Y-23437976D01*
X11173929Y-23428452D01*
X11164405Y-23418928D01*
X11154881Y-23399881D01*
X11145357Y-23361786D01*
X11145357Y-23314167D01*
X11154881Y-23276071D01*
X11164405Y-23257024D01*
X11173929Y-23247500D01*
X11192976Y-23237976D01*
X11345357Y-23418928D02*
X11354881Y-23428452D01*
X11345357Y-23437976D01*
X11335833Y-23428452D01*
X11345357Y-23418928D01*
X11345357Y-23437976D01*
X11478690Y-23237976D02*
X11497738Y-23237976D01*
X11516786Y-23247500D01*
X11526309Y-23257024D01*
X11535833Y-23276071D01*
X11545357Y-23314167D01*
X11545357Y-23361786D01*
X11535833Y-23399881D01*
X11526309Y-23418928D01*
X11516786Y-23428452D01*
X11497738Y-23437976D01*
X11478690Y-23437976D01*
X11459643Y-23428452D01*
X11450119Y-23418928D01*
X11440595Y-23399881D01*
X11431071Y-23361786D01*
X11431071Y-23314167D01*
X11440595Y-23276071D01*
X11450119Y-23257024D01*
X11459643Y-23247500D01*
X11478690Y-23237976D01*
X11716786Y-23304643D02*
X11716786Y-23437976D01*
X11669167Y-23228452D02*
X11621548Y-23371309D01*
X11745357Y-23371309D01*
X11802500Y-23237976D02*
X11926309Y-23237976D01*
X11859643Y-23314167D01*
X11888214Y-23314167D01*
X11907262Y-23323690D01*
X11916786Y-23333214D01*
X11926309Y-23352262D01*
X11926309Y-23399881D01*
X11916786Y-23418928D01*
X11907262Y-23428452D01*
X11888214Y-23437976D01*
X11831071Y-23437976D01*
X11812024Y-23428452D01*
X11802500Y-23418928D01*
X11992976Y-23237976D02*
X12116786Y-23237976D01*
X12050119Y-23314167D01*
X12078690Y-23314167D01*
X12097738Y-23323690D01*
X12107262Y-23333214D01*
X12116786Y-23352262D01*
X12116786Y-23399881D01*
X12107262Y-23418928D01*
X12097738Y-23428452D01*
X12078690Y-23437976D01*
X12021548Y-23437976D01*
X12002500Y-23428452D01*
X11992976Y-23418928D01*
X12192976Y-23237976D02*
X12192976Y-23276071D01*
X12269167Y-23237976D02*
X12269167Y-23276071D01*
X12564405Y-23514167D02*
X12554881Y-23504643D01*
X12535833Y-23476071D01*
X12526309Y-23457024D01*
X12516786Y-23428452D01*
X12507262Y-23380833D01*
X12507262Y-23342738D01*
X12516786Y-23295119D01*
X12526309Y-23266548D01*
X12535833Y-23247500D01*
X12554881Y-23218928D01*
X12564405Y-23209405D01*
X12726309Y-23304643D02*
X12726309Y-23437976D01*
X12678690Y-23228452D02*
X12631071Y-23371309D01*
X12754881Y-23371309D01*
X12983452Y-23437976D02*
X12983452Y-23237976D01*
X13069167Y-23437976D02*
X13069167Y-23333214D01*
X13059643Y-23314167D01*
X13040595Y-23304643D01*
X13012024Y-23304643D01*
X12992976Y-23314167D01*
X12983452Y-23323690D01*
X13192976Y-23437976D02*
X13173928Y-23428452D01*
X13164405Y-23418928D01*
X13154881Y-23399881D01*
X13154881Y-23342738D01*
X13164405Y-23323690D01*
X13173928Y-23314167D01*
X13192976Y-23304643D01*
X13221548Y-23304643D01*
X13240595Y-23314167D01*
X13250119Y-23323690D01*
X13259643Y-23342738D01*
X13259643Y-23399881D01*
X13250119Y-23418928D01*
X13240595Y-23428452D01*
X13221548Y-23437976D01*
X13192976Y-23437976D01*
X13373928Y-23437976D02*
X13354881Y-23428452D01*
X13345357Y-23409405D01*
X13345357Y-23237976D01*
X13526309Y-23428452D02*
X13507262Y-23437976D01*
X13469167Y-23437976D01*
X13450119Y-23428452D01*
X13440595Y-23409405D01*
X13440595Y-23333214D01*
X13450119Y-23314167D01*
X13469167Y-23304643D01*
X13507262Y-23304643D01*
X13526309Y-23314167D01*
X13535833Y-23333214D01*
X13535833Y-23352262D01*
X13440595Y-23371309D01*
X13612024Y-23428452D02*
X13631071Y-23437976D01*
X13669167Y-23437976D01*
X13688214Y-23428452D01*
X13697738Y-23409405D01*
X13697738Y-23399881D01*
X13688214Y-23380833D01*
X13669167Y-23371309D01*
X13640595Y-23371309D01*
X13621548Y-23361786D01*
X13612024Y-23342738D01*
X13612024Y-23333214D01*
X13621548Y-23314167D01*
X13640595Y-23304643D01*
X13669167Y-23304643D01*
X13688214Y-23314167D01*
X13764405Y-23514167D02*
X13773928Y-23504643D01*
X13792976Y-23476071D01*
X13802500Y-23457024D01*
X13812024Y-23428452D01*
X13821548Y-23380833D01*
X13821548Y-23342738D01*
X13812024Y-23295119D01*
X13802500Y-23266548D01*
X13792976Y-23247500D01*
X13773928Y-23218928D01*
X13764405Y-23209405D01*
D16*
X8927500Y-23676500D02*
X8992500Y-23611500D01*
X8927500Y-23546500D01*
X8862500Y-23611500D01*
X8927500Y-23676500D01*
D11*
X9354881Y-23701976D02*
X9240595Y-23701976D01*
X9297738Y-23701976D02*
X9297738Y-23501976D01*
X9278690Y-23530548D01*
X9259643Y-23549595D01*
X9240595Y-23559119D01*
X9440595Y-23682928D02*
X9450119Y-23692452D01*
X9440595Y-23701976D01*
X9431071Y-23692452D01*
X9440595Y-23682928D01*
X9440595Y-23701976D01*
X9516786Y-23501976D02*
X9640595Y-23501976D01*
X9573929Y-23578167D01*
X9602500Y-23578167D01*
X9621548Y-23587690D01*
X9631071Y-23597214D01*
X9640595Y-23616262D01*
X9640595Y-23663881D01*
X9631071Y-23682928D01*
X9621548Y-23692452D01*
X9602500Y-23701976D01*
X9545357Y-23701976D01*
X9526310Y-23692452D01*
X9516786Y-23682928D01*
X9764405Y-23501976D02*
X9783452Y-23501976D01*
X9802500Y-23511500D01*
X9812024Y-23521024D01*
X9821548Y-23540071D01*
X9831071Y-23578167D01*
X9831071Y-23625786D01*
X9821548Y-23663881D01*
X9812024Y-23682928D01*
X9802500Y-23692452D01*
X9783452Y-23701976D01*
X9764405Y-23701976D01*
X9745357Y-23692452D01*
X9735833Y-23682928D01*
X9726310Y-23663881D01*
X9716786Y-23625786D01*
X9716786Y-23578167D01*
X9726310Y-23540071D01*
X9735833Y-23521024D01*
X9745357Y-23511500D01*
X9764405Y-23501976D01*
X9954881Y-23501976D02*
X9973929Y-23501976D01*
X9992976Y-23511500D01*
X10002500Y-23521024D01*
X10012024Y-23540071D01*
X10021548Y-23578167D01*
X10021548Y-23625786D01*
X10012024Y-23663881D01*
X10002500Y-23682928D01*
X9992976Y-23692452D01*
X9973929Y-23701976D01*
X9954881Y-23701976D01*
X9935833Y-23692452D01*
X9926310Y-23682928D01*
X9916786Y-23663881D01*
X9907262Y-23625786D01*
X9907262Y-23578167D01*
X9916786Y-23540071D01*
X9926310Y-23521024D01*
X9935833Y-23511500D01*
X9954881Y-23501976D01*
X10107262Y-23701976D02*
X10107262Y-23568643D01*
X10107262Y-23587690D02*
X10116786Y-23578167D01*
X10135833Y-23568643D01*
X10164405Y-23568643D01*
X10183452Y-23578167D01*
X10192976Y-23597214D01*
X10192976Y-23701976D01*
X10192976Y-23597214D02*
X10202500Y-23578167D01*
X10221548Y-23568643D01*
X10250119Y-23568643D01*
X10269167Y-23578167D01*
X10278690Y-23597214D01*
X10278690Y-23701976D01*
X10373929Y-23701976D02*
X10373929Y-23568643D01*
X10373929Y-23587690D02*
X10383452Y-23578167D01*
X10402500Y-23568643D01*
X10431071Y-23568643D01*
X10450119Y-23578167D01*
X10459643Y-23597214D01*
X10459643Y-23701976D01*
X10459643Y-23597214D02*
X10469167Y-23578167D01*
X10488214Y-23568643D01*
X10516786Y-23568643D01*
X10535833Y-23578167D01*
X10545357Y-23597214D01*
X10545357Y-23701976D01*
X10935833Y-23492452D02*
X10764405Y-23749595D01*
X11192976Y-23501976D02*
X11212024Y-23501976D01*
X11231071Y-23511500D01*
X11240595Y-23521024D01*
X11250119Y-23540071D01*
X11259643Y-23578167D01*
X11259643Y-23625786D01*
X11250119Y-23663881D01*
X11240595Y-23682928D01*
X11231071Y-23692452D01*
X11212024Y-23701976D01*
X11192976Y-23701976D01*
X11173929Y-23692452D01*
X11164405Y-23682928D01*
X11154881Y-23663881D01*
X11145357Y-23625786D01*
X11145357Y-23578167D01*
X11154881Y-23540071D01*
X11164405Y-23521024D01*
X11173929Y-23511500D01*
X11192976Y-23501976D01*
X11345357Y-23682928D02*
X11354881Y-23692452D01*
X11345357Y-23701976D01*
X11335833Y-23692452D01*
X11345357Y-23682928D01*
X11345357Y-23701976D01*
X11478690Y-23501976D02*
X11497738Y-23501976D01*
X11516786Y-23511500D01*
X11526309Y-23521024D01*
X11535833Y-23540071D01*
X11545357Y-23578167D01*
X11545357Y-23625786D01*
X11535833Y-23663881D01*
X11526309Y-23682928D01*
X11516786Y-23692452D01*
X11497738Y-23701976D01*
X11478690Y-23701976D01*
X11459643Y-23692452D01*
X11450119Y-23682928D01*
X11440595Y-23663881D01*
X11431071Y-23625786D01*
X11431071Y-23578167D01*
X11440595Y-23540071D01*
X11450119Y-23521024D01*
X11459643Y-23511500D01*
X11478690Y-23501976D01*
X11726309Y-23501976D02*
X11631071Y-23501976D01*
X11621548Y-23597214D01*
X11631071Y-23587690D01*
X11650119Y-23578167D01*
X11697738Y-23578167D01*
X11716786Y-23587690D01*
X11726309Y-23597214D01*
X11735833Y-23616262D01*
X11735833Y-23663881D01*
X11726309Y-23682928D01*
X11716786Y-23692452D01*
X11697738Y-23701976D01*
X11650119Y-23701976D01*
X11631071Y-23692452D01*
X11621548Y-23682928D01*
X11926309Y-23701976D02*
X11812024Y-23701976D01*
X11869167Y-23701976D02*
X11869167Y-23501976D01*
X11850119Y-23530548D01*
X11831071Y-23549595D01*
X11812024Y-23559119D01*
X12002500Y-23521024D02*
X12012024Y-23511500D01*
X12031071Y-23501976D01*
X12078690Y-23501976D01*
X12097738Y-23511500D01*
X12107262Y-23521024D01*
X12116786Y-23540071D01*
X12116786Y-23559119D01*
X12107262Y-23587690D01*
X11992976Y-23701976D01*
X12116786Y-23701976D01*
X12192976Y-23501976D02*
X12192976Y-23540071D01*
X12269167Y-23501976D02*
X12269167Y-23540071D01*
X12564405Y-23778167D02*
X12554881Y-23768643D01*
X12535833Y-23740071D01*
X12526309Y-23721024D01*
X12516786Y-23692452D01*
X12507262Y-23644833D01*
X12507262Y-23606738D01*
X12516786Y-23559119D01*
X12526309Y-23530548D01*
X12535833Y-23511500D01*
X12554881Y-23482928D01*
X12564405Y-23473405D01*
X12745357Y-23701976D02*
X12631071Y-23701976D01*
X12688214Y-23701976D02*
X12688214Y-23501976D01*
X12669167Y-23530548D01*
X12650119Y-23549595D01*
X12631071Y-23559119D01*
X12983452Y-23701976D02*
X12983452Y-23501976D01*
X13069167Y-23701976D02*
X13069167Y-23597214D01*
X13059643Y-23578167D01*
X13040595Y-23568643D01*
X13012024Y-23568643D01*
X12992976Y-23578167D01*
X12983452Y-23587690D01*
X13192976Y-23701976D02*
X13173928Y-23692452D01*
X13164405Y-23682928D01*
X13154881Y-23663881D01*
X13154881Y-23606738D01*
X13164405Y-23587690D01*
X13173928Y-23578167D01*
X13192976Y-23568643D01*
X13221548Y-23568643D01*
X13240595Y-23578167D01*
X13250119Y-23587690D01*
X13259643Y-23606738D01*
X13259643Y-23663881D01*
X13250119Y-23682928D01*
X13240595Y-23692452D01*
X13221548Y-23701976D01*
X13192976Y-23701976D01*
X13373928Y-23701976D02*
X13354881Y-23692452D01*
X13345357Y-23673405D01*
X13345357Y-23501976D01*
X13526309Y-23692452D02*
X13507262Y-23701976D01*
X13469167Y-23701976D01*
X13450119Y-23692452D01*
X13440595Y-23673405D01*
X13440595Y-23597214D01*
X13450119Y-23578167D01*
X13469167Y-23568643D01*
X13507262Y-23568643D01*
X13526309Y-23578167D01*
X13535833Y-23597214D01*
X13535833Y-23616262D01*
X13440595Y-23635309D01*
X13602500Y-23778167D02*
X13612024Y-23768643D01*
X13631071Y-23740071D01*
X13640595Y-23721024D01*
X13650119Y-23692452D01*
X13659643Y-23644833D01*
X13659643Y-23606738D01*
X13650119Y-23559119D01*
X13640595Y-23530548D01*
X13631071Y-23511500D01*
X13612024Y-23482928D01*
X13602500Y-23473405D01*
D16*
X8862500Y-23810500D02*
X8992500Y-23940500D01*
X8992500Y-23810500D02*
X8862500Y-23940500D01*
X8992500Y-23875500D02*
G75*
G03*
X8992500Y-23875500I-65000J0D01*
G01*
D11*
X9354881Y-23965976D02*
X9240595Y-23965976D01*
X9297738Y-23965976D02*
X9297738Y-23765976D01*
X9278690Y-23794548D01*
X9259643Y-23813595D01*
X9240595Y-23823119D01*
X9440595Y-23946928D02*
X9450119Y-23956452D01*
X9440595Y-23965976D01*
X9431071Y-23956452D01*
X9440595Y-23946928D01*
X9440595Y-23965976D01*
X9516786Y-23765976D02*
X9640595Y-23765976D01*
X9573929Y-23842167D01*
X9602500Y-23842167D01*
X9621548Y-23851690D01*
X9631071Y-23861214D01*
X9640595Y-23880262D01*
X9640595Y-23927881D01*
X9631071Y-23946928D01*
X9621548Y-23956452D01*
X9602500Y-23965976D01*
X9545357Y-23965976D01*
X9526310Y-23956452D01*
X9516786Y-23946928D01*
X9764405Y-23765976D02*
X9783452Y-23765976D01*
X9802500Y-23775500D01*
X9812024Y-23785024D01*
X9821548Y-23804071D01*
X9831071Y-23842167D01*
X9831071Y-23889786D01*
X9821548Y-23927881D01*
X9812024Y-23946928D01*
X9802500Y-23956452D01*
X9783452Y-23965976D01*
X9764405Y-23965976D01*
X9745357Y-23956452D01*
X9735833Y-23946928D01*
X9726310Y-23927881D01*
X9716786Y-23889786D01*
X9716786Y-23842167D01*
X9726310Y-23804071D01*
X9735833Y-23785024D01*
X9745357Y-23775500D01*
X9764405Y-23765976D01*
X9954881Y-23765976D02*
X9973929Y-23765976D01*
X9992976Y-23775500D01*
X10002500Y-23785024D01*
X10012024Y-23804071D01*
X10021548Y-23842167D01*
X10021548Y-23889786D01*
X10012024Y-23927881D01*
X10002500Y-23946928D01*
X9992976Y-23956452D01*
X9973929Y-23965976D01*
X9954881Y-23965976D01*
X9935833Y-23956452D01*
X9926310Y-23946928D01*
X9916786Y-23927881D01*
X9907262Y-23889786D01*
X9907262Y-23842167D01*
X9916786Y-23804071D01*
X9926310Y-23785024D01*
X9935833Y-23775500D01*
X9954881Y-23765976D01*
X10107262Y-23965976D02*
X10107262Y-23832643D01*
X10107262Y-23851690D02*
X10116786Y-23842167D01*
X10135833Y-23832643D01*
X10164405Y-23832643D01*
X10183452Y-23842167D01*
X10192976Y-23861214D01*
X10192976Y-23965976D01*
X10192976Y-23861214D02*
X10202500Y-23842167D01*
X10221548Y-23832643D01*
X10250119Y-23832643D01*
X10269167Y-23842167D01*
X10278690Y-23861214D01*
X10278690Y-23965976D01*
X10373929Y-23965976D02*
X10373929Y-23832643D01*
X10373929Y-23851690D02*
X10383452Y-23842167D01*
X10402500Y-23832643D01*
X10431071Y-23832643D01*
X10450119Y-23842167D01*
X10459643Y-23861214D01*
X10459643Y-23965976D01*
X10459643Y-23861214D02*
X10469167Y-23842167D01*
X10488214Y-23832643D01*
X10516786Y-23832643D01*
X10535833Y-23842167D01*
X10545357Y-23861214D01*
X10545357Y-23965976D01*
X10935833Y-23756452D02*
X10764405Y-24013595D01*
X11192976Y-23765976D02*
X11212024Y-23765976D01*
X11231071Y-23775500D01*
X11240595Y-23785024D01*
X11250119Y-23804071D01*
X11259643Y-23842167D01*
X11259643Y-23889786D01*
X11250119Y-23927881D01*
X11240595Y-23946928D01*
X11231071Y-23956452D01*
X11212024Y-23965976D01*
X11192976Y-23965976D01*
X11173929Y-23956452D01*
X11164405Y-23946928D01*
X11154881Y-23927881D01*
X11145357Y-23889786D01*
X11145357Y-23842167D01*
X11154881Y-23804071D01*
X11164405Y-23785024D01*
X11173929Y-23775500D01*
X11192976Y-23765976D01*
X11345357Y-23946928D02*
X11354881Y-23956452D01*
X11345357Y-23965976D01*
X11335833Y-23956452D01*
X11345357Y-23946928D01*
X11345357Y-23965976D01*
X11478690Y-23765976D02*
X11497738Y-23765976D01*
X11516786Y-23775500D01*
X11526309Y-23785024D01*
X11535833Y-23804071D01*
X11545357Y-23842167D01*
X11545357Y-23889786D01*
X11535833Y-23927881D01*
X11526309Y-23946928D01*
X11516786Y-23956452D01*
X11497738Y-23965976D01*
X11478690Y-23965976D01*
X11459643Y-23956452D01*
X11450119Y-23946928D01*
X11440595Y-23927881D01*
X11431071Y-23889786D01*
X11431071Y-23842167D01*
X11440595Y-23804071D01*
X11450119Y-23785024D01*
X11459643Y-23775500D01*
X11478690Y-23765976D01*
X11726309Y-23765976D02*
X11631071Y-23765976D01*
X11621548Y-23861214D01*
X11631071Y-23851690D01*
X11650119Y-23842167D01*
X11697738Y-23842167D01*
X11716786Y-23851690D01*
X11726309Y-23861214D01*
X11735833Y-23880262D01*
X11735833Y-23927881D01*
X11726309Y-23946928D01*
X11716786Y-23956452D01*
X11697738Y-23965976D01*
X11650119Y-23965976D01*
X11631071Y-23956452D01*
X11621548Y-23946928D01*
X11926309Y-23965976D02*
X11812024Y-23965976D01*
X11869167Y-23965976D02*
X11869167Y-23765976D01*
X11850119Y-23794548D01*
X11831071Y-23813595D01*
X11812024Y-23823119D01*
X12002500Y-23785024D02*
X12012024Y-23775500D01*
X12031071Y-23765976D01*
X12078690Y-23765976D01*
X12097738Y-23775500D01*
X12107262Y-23785024D01*
X12116786Y-23804071D01*
X12116786Y-23823119D01*
X12107262Y-23851690D01*
X11992976Y-23965976D01*
X12116786Y-23965976D01*
X12192976Y-23765976D02*
X12192976Y-23804071D01*
X12269167Y-23765976D02*
X12269167Y-23804071D01*
X12564405Y-24042167D02*
X12554881Y-24032643D01*
X12535833Y-24004071D01*
X12526309Y-23985024D01*
X12516786Y-23956452D01*
X12507262Y-23908833D01*
X12507262Y-23870738D01*
X12516786Y-23823119D01*
X12526309Y-23794548D01*
X12535833Y-23775500D01*
X12554881Y-23746928D01*
X12564405Y-23737405D01*
X12745357Y-23965976D02*
X12631071Y-23965976D01*
X12688214Y-23965976D02*
X12688214Y-23765976D01*
X12669167Y-23794548D01*
X12650119Y-23813595D01*
X12631071Y-23823119D01*
X12821548Y-23785024D02*
X12831071Y-23775500D01*
X12850119Y-23765976D01*
X12897738Y-23765976D01*
X12916786Y-23775500D01*
X12926309Y-23785024D01*
X12935833Y-23804071D01*
X12935833Y-23823119D01*
X12926309Y-23851690D01*
X12812024Y-23965976D01*
X12935833Y-23965976D01*
X13173928Y-23965976D02*
X13173928Y-23765976D01*
X13259643Y-23965976D02*
X13259643Y-23861214D01*
X13250119Y-23842167D01*
X13231071Y-23832643D01*
X13202500Y-23832643D01*
X13183452Y-23842167D01*
X13173928Y-23851690D01*
X13383452Y-23965976D02*
X13364405Y-23956452D01*
X13354881Y-23946928D01*
X13345357Y-23927881D01*
X13345357Y-23870738D01*
X13354881Y-23851690D01*
X13364405Y-23842167D01*
X13383452Y-23832643D01*
X13412024Y-23832643D01*
X13431071Y-23842167D01*
X13440595Y-23851690D01*
X13450119Y-23870738D01*
X13450119Y-23927881D01*
X13440595Y-23946928D01*
X13431071Y-23956452D01*
X13412024Y-23965976D01*
X13383452Y-23965976D01*
X13564405Y-23965976D02*
X13545357Y-23956452D01*
X13535833Y-23937405D01*
X13535833Y-23765976D01*
X13716786Y-23956452D02*
X13697738Y-23965976D01*
X13659643Y-23965976D01*
X13640595Y-23956452D01*
X13631071Y-23937405D01*
X13631071Y-23861214D01*
X13640595Y-23842167D01*
X13659643Y-23832643D01*
X13697738Y-23832643D01*
X13716786Y-23842167D01*
X13726309Y-23861214D01*
X13726309Y-23880262D01*
X13631071Y-23899309D01*
X13802500Y-23956452D02*
X13821548Y-23965976D01*
X13859643Y-23965976D01*
X13878690Y-23956452D01*
X13888214Y-23937405D01*
X13888214Y-23927881D01*
X13878690Y-23908833D01*
X13859643Y-23899309D01*
X13831071Y-23899309D01*
X13812024Y-23889786D01*
X13802500Y-23870738D01*
X13802500Y-23861214D01*
X13812024Y-23842167D01*
X13831071Y-23832643D01*
X13859643Y-23832643D01*
X13878690Y-23842167D01*
X13954881Y-24042167D02*
X13964405Y-24032643D01*
X13983452Y-24004071D01*
X13992976Y-23985024D01*
X14002500Y-23956452D01*
X14012024Y-23908833D01*
X14012024Y-23870738D01*
X14002500Y-23823119D01*
X13992976Y-23794548D01*
X13983452Y-23775500D01*
X13964405Y-23746928D01*
X13954881Y-23737405D01*
M02*
