M48
; DRILL file {KiCad (6.0.2)} date Sun Oct  8 18:38:40 2023
; FORMAT={-:-/ absolute / metric / decimal}
; #@! TF.CreationDate,2023-10-08T18:38:40+02:00
; #@! TF.GenerationSoftware,Kicad,Pcbnew,(6.0.2)
; #@! TF.FileFunction,Plated,1,2,PTH
FMAT,2
METRIC
; #@! TA.AperFunction,Plated,PTH,ComponentDrill
T1C0.800
; #@! TA.AperFunction,Plated,PTH,ComponentDrill
T2C0.900
; #@! TA.AperFunction,Plated,PTH,ComponentDrill
T3C1.000
; #@! TA.AperFunction,Plated,PTH,ComponentDrill
T4C1.100
; #@! TA.AperFunction,Plated,PTH,ViaDrill
T5C1.300
; #@! TA.AperFunction,Plated,PTH,ComponentDrill
T6C1.300
%
G90
G05
T1
X139.84Y-213.5
X141.71Y-133.71
X141.71Y-143.87
X147.55Y-111.0
X147.58Y-100.2
X147.58Y-119.0
X148.175Y-136.88
X148.175Y-139.42
X148.175Y-141.96
X148.175Y-144.5
X149.42Y-96.2
X149.42Y-123.0
X149.52Y-107.0
X150.0Y-171.5
X150.0Y-181.66
X150.0Y-213.5
X150.05Y-111.0
X150.08Y-100.2
X150.08Y-119.0
X151.12Y-127.0
X153.5Y-213.5
X154.42Y-131.5
X154.5Y-100.2
X154.5Y-119.0
X154.5Y-171.42
X154.5Y-181.58
X154.52Y-111.0
X155.795Y-136.88
X155.795Y-139.42
X155.795Y-141.96
X155.795Y-144.5
X156.0Y-213.5
X159.0Y-171.5
X159.0Y-181.66
X159.37Y-213.45
X159.58Y-96.2
X159.58Y-123.0
X159.68Y-107.0
X161.28Y-127.0
X164.58Y-131.5
X164.66Y-100.2
X164.66Y-119.0
X164.68Y-111.0
X169.53Y-213.45
T2
X146.5Y-189.96
X146.5Y-192.5
X154.5Y-189.98
X154.5Y-192.52
X162.5Y-189.96
X162.5Y-192.5
T3
X139.375Y-159.945
X139.375Y-162.485
X139.375Y-165.025
X139.5Y-89.0
X139.5Y-91.54
X139.5Y-108.42
X139.5Y-110.96
X139.5Y-113.5
X139.5Y-128.8
X139.5Y-148.2
X139.5Y-150.74
X139.5Y-153.28
X151.5Y-217.0
T4
X151.75Y-200.25
X151.75Y-204.75
X158.25Y-200.25
X158.25Y-204.75
T5
X164.66Y-153.315
T6
X96.0Y-68.0
X96.0Y-73.0
X108.5Y-68.0
X108.5Y-73.0
X148.26Y-68.5
X148.26Y-73.5
X160.76Y-68.5
X160.76Y-73.5
X200.76Y-67.5
X200.76Y-72.5
X213.26Y-67.5
X213.26Y-72.5
T0
M30
