%FSLAX45Y45*%
G04 Gerber Fmt 4.5, Leading zero omitted, Abs format (unit mm)*
G04 Created by KiCad (PCBNEW (6.0.2)) date 2023-10-08 18:38:42*
%MOMM*%
%LPD*%
G01*
G04 APERTURE LIST*
%TA.AperFunction,Profile*%
%ADD10C,0.150000*%
%TD*%
%ADD11C,0.200000*%
%ADD12C,0.320000*%
G04 APERTURE END LIST*
D10*
X21900000Y-8100000D02*
X17200000Y-8100000D01*
X17200000Y-8100000D02*
X17200000Y-21908000D01*
X17200000Y-21908000D02*
X13700000Y-21908000D01*
X13700000Y-21908000D02*
X13700000Y-8100000D01*
X13700000Y-8100000D02*
X9000000Y-8100000D01*
X9000000Y-8100000D02*
X9000000Y-6000000D01*
X9000000Y-6000000D02*
X21900000Y-6000000D01*
X21900000Y-6000000D02*
X21900000Y-8100000D01*
D11*
D12*
X9090000Y-6090000D02*
X9410000Y-6410000D01*
X9410000Y-6090000D02*
X9090000Y-6410000D01*
X13740000Y-21540000D02*
X14060000Y-21860000D01*
X14060000Y-21540000D02*
X13740000Y-21860000D01*
X16840000Y-21540000D02*
X17160000Y-21860000D01*
X17160000Y-21540000D02*
X16840000Y-21860000D01*
X21540000Y-6040000D02*
X21860000Y-6360000D01*
X21860000Y-6040000D02*
X21540000Y-6360000D01*
D11*
X9250119Y-22225976D02*
X9250119Y-22025976D01*
X9297738Y-22025976D01*
X9326310Y-22035500D01*
X9345357Y-22054548D01*
X9354881Y-22073595D01*
X9364405Y-22111690D01*
X9364405Y-22140262D01*
X9354881Y-22178357D01*
X9345357Y-22197405D01*
X9326310Y-22216452D01*
X9297738Y-22225976D01*
X9250119Y-22225976D01*
X9450119Y-22225976D02*
X9450119Y-22092643D01*
X9450119Y-22130738D02*
X9459643Y-22111690D01*
X9469167Y-22102167D01*
X9488214Y-22092643D01*
X9507262Y-22092643D01*
X9573929Y-22225976D02*
X9573929Y-22092643D01*
X9573929Y-22025976D02*
X9564405Y-22035500D01*
X9573929Y-22045024D01*
X9583452Y-22035500D01*
X9573929Y-22025976D01*
X9573929Y-22045024D01*
X9697738Y-22225976D02*
X9678690Y-22216452D01*
X9669167Y-22197405D01*
X9669167Y-22025976D01*
X9802500Y-22225976D02*
X9783452Y-22216452D01*
X9773929Y-22197405D01*
X9773929Y-22025976D01*
X10031071Y-22225976D02*
X10031071Y-22025976D01*
X10097738Y-22168833D01*
X10164405Y-22025976D01*
X10164405Y-22225976D01*
X10345357Y-22225976D02*
X10345357Y-22121214D01*
X10335833Y-22102167D01*
X10316786Y-22092643D01*
X10278690Y-22092643D01*
X10259643Y-22102167D01*
X10345357Y-22216452D02*
X10326310Y-22225976D01*
X10278690Y-22225976D01*
X10259643Y-22216452D01*
X10250119Y-22197405D01*
X10250119Y-22178357D01*
X10259643Y-22159310D01*
X10278690Y-22149786D01*
X10326310Y-22149786D01*
X10345357Y-22140262D01*
X10440595Y-22092643D02*
X10440595Y-22292643D01*
X10440595Y-22102167D02*
X10459643Y-22092643D01*
X10497738Y-22092643D01*
X10516786Y-22102167D01*
X10526310Y-22111690D01*
X10535833Y-22130738D01*
X10535833Y-22187881D01*
X10526310Y-22206929D01*
X10516786Y-22216452D01*
X10497738Y-22225976D01*
X10459643Y-22225976D01*
X10440595Y-22216452D01*
X10621548Y-22206929D02*
X10631071Y-22216452D01*
X10621548Y-22225976D01*
X10612024Y-22216452D01*
X10621548Y-22206929D01*
X10621548Y-22225976D01*
X10621548Y-22102167D02*
X10631071Y-22111690D01*
X10621548Y-22121214D01*
X10612024Y-22111690D01*
X10621548Y-22102167D01*
X10621548Y-22121214D01*
X8792500Y-22455500D02*
X8992500Y-22655500D01*
X8992500Y-22455500D02*
X8792500Y-22655500D01*
X9231071Y-22445976D02*
X9354881Y-22445976D01*
X9288214Y-22522167D01*
X9316786Y-22522167D01*
X9335833Y-22531690D01*
X9345357Y-22541214D01*
X9354881Y-22560262D01*
X9354881Y-22607881D01*
X9345357Y-22626928D01*
X9335833Y-22636452D01*
X9316786Y-22645976D01*
X9259643Y-22645976D01*
X9240595Y-22636452D01*
X9231071Y-22626928D01*
X9440595Y-22626928D02*
X9450119Y-22636452D01*
X9440595Y-22645976D01*
X9431071Y-22636452D01*
X9440595Y-22626928D01*
X9440595Y-22645976D01*
X9526310Y-22465024D02*
X9535833Y-22455500D01*
X9554881Y-22445976D01*
X9602500Y-22445976D01*
X9621548Y-22455500D01*
X9631071Y-22465024D01*
X9640595Y-22484071D01*
X9640595Y-22503119D01*
X9631071Y-22531690D01*
X9516786Y-22645976D01*
X9640595Y-22645976D01*
X9764405Y-22445976D02*
X9783452Y-22445976D01*
X9802500Y-22455500D01*
X9812024Y-22465024D01*
X9821548Y-22484071D01*
X9831071Y-22522167D01*
X9831071Y-22569786D01*
X9821548Y-22607881D01*
X9812024Y-22626928D01*
X9802500Y-22636452D01*
X9783452Y-22645976D01*
X9764405Y-22645976D01*
X9745357Y-22636452D01*
X9735833Y-22626928D01*
X9726310Y-22607881D01*
X9716786Y-22569786D01*
X9716786Y-22522167D01*
X9726310Y-22484071D01*
X9735833Y-22465024D01*
X9745357Y-22455500D01*
X9764405Y-22445976D01*
X9954881Y-22445976D02*
X9973929Y-22445976D01*
X9992976Y-22455500D01*
X10002500Y-22465024D01*
X10012024Y-22484071D01*
X10021548Y-22522167D01*
X10021548Y-22569786D01*
X10012024Y-22607881D01*
X10002500Y-22626928D01*
X9992976Y-22636452D01*
X9973929Y-22645976D01*
X9954881Y-22645976D01*
X9935833Y-22636452D01*
X9926310Y-22626928D01*
X9916786Y-22607881D01*
X9907262Y-22569786D01*
X9907262Y-22522167D01*
X9916786Y-22484071D01*
X9926310Y-22465024D01*
X9935833Y-22455500D01*
X9954881Y-22445976D01*
X10107262Y-22645976D02*
X10107262Y-22512643D01*
X10107262Y-22531690D02*
X10116786Y-22522167D01*
X10135833Y-22512643D01*
X10164405Y-22512643D01*
X10183452Y-22522167D01*
X10192976Y-22541214D01*
X10192976Y-22645976D01*
X10192976Y-22541214D02*
X10202500Y-22522167D01*
X10221548Y-22512643D01*
X10250119Y-22512643D01*
X10269167Y-22522167D01*
X10278690Y-22541214D01*
X10278690Y-22645976D01*
X10373929Y-22645976D02*
X10373929Y-22512643D01*
X10373929Y-22531690D02*
X10383452Y-22522167D01*
X10402500Y-22512643D01*
X10431071Y-22512643D01*
X10450119Y-22522167D01*
X10459643Y-22541214D01*
X10459643Y-22645976D01*
X10459643Y-22541214D02*
X10469167Y-22522167D01*
X10488214Y-22512643D01*
X10516786Y-22512643D01*
X10535833Y-22522167D01*
X10545357Y-22541214D01*
X10545357Y-22645976D01*
X10935833Y-22436452D02*
X10764405Y-22693595D01*
X11192976Y-22445976D02*
X11212024Y-22445976D01*
X11231071Y-22455500D01*
X11240595Y-22465024D01*
X11250119Y-22484071D01*
X11259643Y-22522167D01*
X11259643Y-22569786D01*
X11250119Y-22607881D01*
X11240595Y-22626928D01*
X11231071Y-22636452D01*
X11212024Y-22645976D01*
X11192976Y-22645976D01*
X11173929Y-22636452D01*
X11164405Y-22626928D01*
X11154881Y-22607881D01*
X11145357Y-22569786D01*
X11145357Y-22522167D01*
X11154881Y-22484071D01*
X11164405Y-22465024D01*
X11173929Y-22455500D01*
X11192976Y-22445976D01*
X11345357Y-22626928D02*
X11354881Y-22636452D01*
X11345357Y-22645976D01*
X11335833Y-22636452D01*
X11345357Y-22626928D01*
X11345357Y-22645976D01*
X11545357Y-22645976D02*
X11431071Y-22645976D01*
X11488214Y-22645976D02*
X11488214Y-22445976D01*
X11469167Y-22474548D01*
X11450119Y-22493595D01*
X11431071Y-22503119D01*
X11621548Y-22465024D02*
X11631071Y-22455500D01*
X11650119Y-22445976D01*
X11697738Y-22445976D01*
X11716786Y-22455500D01*
X11726309Y-22465024D01*
X11735833Y-22484071D01*
X11735833Y-22503119D01*
X11726309Y-22531690D01*
X11612024Y-22645976D01*
X11735833Y-22645976D01*
X11907262Y-22445976D02*
X11869167Y-22445976D01*
X11850119Y-22455500D01*
X11840595Y-22465024D01*
X11821548Y-22493595D01*
X11812024Y-22531690D01*
X11812024Y-22607881D01*
X11821548Y-22626928D01*
X11831071Y-22636452D01*
X11850119Y-22645976D01*
X11888214Y-22645976D01*
X11907262Y-22636452D01*
X11916786Y-22626928D01*
X11926309Y-22607881D01*
X11926309Y-22560262D01*
X11916786Y-22541214D01*
X11907262Y-22531690D01*
X11888214Y-22522167D01*
X11850119Y-22522167D01*
X11831071Y-22531690D01*
X11821548Y-22541214D01*
X11812024Y-22560262D01*
X12050119Y-22445976D02*
X12069167Y-22445976D01*
X12088214Y-22455500D01*
X12097738Y-22465024D01*
X12107262Y-22484071D01*
X12116786Y-22522167D01*
X12116786Y-22569786D01*
X12107262Y-22607881D01*
X12097738Y-22626928D01*
X12088214Y-22636452D01*
X12069167Y-22645976D01*
X12050119Y-22645976D01*
X12031071Y-22636452D01*
X12021548Y-22626928D01*
X12012024Y-22607881D01*
X12002500Y-22569786D01*
X12002500Y-22522167D01*
X12012024Y-22484071D01*
X12021548Y-22465024D01*
X12031071Y-22455500D01*
X12050119Y-22445976D01*
X12192976Y-22445976D02*
X12192976Y-22484071D01*
X12269167Y-22445976D02*
X12269167Y-22484071D01*
X12564405Y-22722167D02*
X12554881Y-22712643D01*
X12535833Y-22684071D01*
X12526309Y-22665024D01*
X12516786Y-22636452D01*
X12507262Y-22588833D01*
X12507262Y-22550738D01*
X12516786Y-22503119D01*
X12526309Y-22474548D01*
X12535833Y-22455500D01*
X12554881Y-22426928D01*
X12564405Y-22417405D01*
X12726309Y-22512643D02*
X12726309Y-22645976D01*
X12678690Y-22436452D02*
X12631071Y-22579309D01*
X12754881Y-22579309D01*
X12983452Y-22645976D02*
X12983452Y-22445976D01*
X13069167Y-22645976D02*
X13069167Y-22541214D01*
X13059643Y-22522167D01*
X13040595Y-22512643D01*
X13012024Y-22512643D01*
X12992976Y-22522167D01*
X12983452Y-22531690D01*
X13192976Y-22645976D02*
X13173928Y-22636452D01*
X13164405Y-22626928D01*
X13154881Y-22607881D01*
X13154881Y-22550738D01*
X13164405Y-22531690D01*
X13173928Y-22522167D01*
X13192976Y-22512643D01*
X13221548Y-22512643D01*
X13240595Y-22522167D01*
X13250119Y-22531690D01*
X13259643Y-22550738D01*
X13259643Y-22607881D01*
X13250119Y-22626928D01*
X13240595Y-22636452D01*
X13221548Y-22645976D01*
X13192976Y-22645976D01*
X13373928Y-22645976D02*
X13354881Y-22636452D01*
X13345357Y-22617405D01*
X13345357Y-22445976D01*
X13526309Y-22636452D02*
X13507262Y-22645976D01*
X13469167Y-22645976D01*
X13450119Y-22636452D01*
X13440595Y-22617405D01*
X13440595Y-22541214D01*
X13450119Y-22522167D01*
X13469167Y-22512643D01*
X13507262Y-22512643D01*
X13526309Y-22522167D01*
X13535833Y-22541214D01*
X13535833Y-22560262D01*
X13440595Y-22579309D01*
X13612024Y-22636452D02*
X13631071Y-22645976D01*
X13669167Y-22645976D01*
X13688214Y-22636452D01*
X13697738Y-22617405D01*
X13697738Y-22607881D01*
X13688214Y-22588833D01*
X13669167Y-22579309D01*
X13640595Y-22579309D01*
X13621548Y-22569786D01*
X13612024Y-22550738D01*
X13612024Y-22541214D01*
X13621548Y-22522167D01*
X13640595Y-22512643D01*
X13669167Y-22512643D01*
X13688214Y-22522167D01*
X13764405Y-22722167D02*
X13773928Y-22712643D01*
X13792976Y-22684071D01*
X13802500Y-22665024D01*
X13812024Y-22636452D01*
X13821548Y-22588833D01*
X13821548Y-22550738D01*
X13812024Y-22503119D01*
X13802500Y-22474548D01*
X13792976Y-22455500D01*
X13773928Y-22426928D01*
X13764405Y-22417405D01*
X14126309Y-22722167D02*
X14116786Y-22712643D01*
X14097738Y-22684071D01*
X14088214Y-22665024D01*
X14078690Y-22636452D01*
X14069167Y-22588833D01*
X14069167Y-22550738D01*
X14078690Y-22503119D01*
X14088214Y-22474548D01*
X14097738Y-22455500D01*
X14116786Y-22426928D01*
X14126309Y-22417405D01*
X14202500Y-22512643D02*
X14202500Y-22645976D01*
X14202500Y-22531690D02*
X14212024Y-22522167D01*
X14231071Y-22512643D01*
X14259643Y-22512643D01*
X14278690Y-22522167D01*
X14288214Y-22541214D01*
X14288214Y-22645976D01*
X14412024Y-22645976D02*
X14392976Y-22636452D01*
X14383452Y-22626928D01*
X14373928Y-22607881D01*
X14373928Y-22550738D01*
X14383452Y-22531690D01*
X14392976Y-22522167D01*
X14412024Y-22512643D01*
X14440595Y-22512643D01*
X14459643Y-22522167D01*
X14469167Y-22531690D01*
X14478690Y-22550738D01*
X14478690Y-22607881D01*
X14469167Y-22626928D01*
X14459643Y-22636452D01*
X14440595Y-22645976D01*
X14412024Y-22645976D01*
X14535833Y-22512643D02*
X14612024Y-22512643D01*
X14564405Y-22445976D02*
X14564405Y-22617405D01*
X14573928Y-22636452D01*
X14592976Y-22645976D01*
X14612024Y-22645976D01*
X14831071Y-22512643D02*
X14831071Y-22712643D01*
X14831071Y-22522167D02*
X14850119Y-22512643D01*
X14888214Y-22512643D01*
X14907262Y-22522167D01*
X14916786Y-22531690D01*
X14926309Y-22550738D01*
X14926309Y-22607881D01*
X14916786Y-22626928D01*
X14907262Y-22636452D01*
X14888214Y-22645976D01*
X14850119Y-22645976D01*
X14831071Y-22636452D01*
X15040595Y-22645976D02*
X15021548Y-22636452D01*
X15012024Y-22617405D01*
X15012024Y-22445976D01*
X15202500Y-22645976D02*
X15202500Y-22541214D01*
X15192976Y-22522167D01*
X15173928Y-22512643D01*
X15135833Y-22512643D01*
X15116786Y-22522167D01*
X15202500Y-22636452D02*
X15183452Y-22645976D01*
X15135833Y-22645976D01*
X15116786Y-22636452D01*
X15107262Y-22617405D01*
X15107262Y-22598357D01*
X15116786Y-22579309D01*
X15135833Y-22569786D01*
X15183452Y-22569786D01*
X15202500Y-22560262D01*
X15269167Y-22512643D02*
X15345357Y-22512643D01*
X15297738Y-22445976D02*
X15297738Y-22617405D01*
X15307262Y-22636452D01*
X15326309Y-22645976D01*
X15345357Y-22645976D01*
X15488214Y-22636452D02*
X15469167Y-22645976D01*
X15431071Y-22645976D01*
X15412024Y-22636452D01*
X15402500Y-22617405D01*
X15402500Y-22541214D01*
X15412024Y-22522167D01*
X15431071Y-22512643D01*
X15469167Y-22512643D01*
X15488214Y-22522167D01*
X15497738Y-22541214D01*
X15497738Y-22560262D01*
X15402500Y-22579309D01*
X15669167Y-22645976D02*
X15669167Y-22445976D01*
X15669167Y-22636452D02*
X15650119Y-22645976D01*
X15612024Y-22645976D01*
X15592976Y-22636452D01*
X15583452Y-22626928D01*
X15573928Y-22607881D01*
X15573928Y-22550738D01*
X15583452Y-22531690D01*
X15592976Y-22522167D01*
X15612024Y-22512643D01*
X15650119Y-22512643D01*
X15669167Y-22522167D01*
X15745357Y-22722167D02*
X15754881Y-22712643D01*
X15773928Y-22684071D01*
X15783452Y-22665024D01*
X15792976Y-22636452D01*
X15802500Y-22588833D01*
X15802500Y-22550738D01*
X15792976Y-22503119D01*
X15783452Y-22474548D01*
X15773928Y-22455500D01*
X15754881Y-22426928D01*
X15745357Y-22417405D01*
M02*
